<svg xmlns="http://www.w3.org/2000/svg" fill="none" viewBox="572.51 195.98 771.73 658.71">
<path d="M726.428 854.69C723.051 854.69 720.03 854.3 717.367 853.52C714.769 852.741 712.561 851.539 710.742 849.916C708.923 848.292 707.494 846.246 706.455 843.777C705.416 841.244 704.799 838.289 704.604 834.911H713.178C713.437 837.379 714.055 839.523 715.029 841.342C716.068 843.16 717.497 844.557 719.316 845.531C721.199 846.505 723.57 846.993 726.428 846.993C729.481 846.993 731.852 846.343 733.541 845.044C735.294 843.745 736.528 841.959 737.243 839.685C738.022 837.412 738.412 834.814 738.412 831.891V785.027H746.889V830.137C746.889 833.71 746.531 837.022 745.817 840.075C745.102 843.063 743.933 845.661 742.309 847.869C740.75 850.013 738.639 851.702 735.976 852.936C733.378 854.105 730.196 854.69 726.428 854.69ZM777.834 854.495C775.496 854.495 773.222 854.202 771.014 853.618C768.871 852.968 766.922 852.027 765.168 850.792C763.479 849.493 762.115 847.902 761.076 846.018C760.102 844.07 759.615 841.829 759.615 839.296C759.615 836.373 760.134 833.904 761.174 831.891C762.278 829.877 763.739 828.286 765.558 827.117C767.377 825.948 769.488 825.103 771.891 824.584C774.294 824.064 776.795 823.804 779.393 823.804H794.495C794.495 820.881 794.073 818.348 793.228 816.205C792.449 814.061 791.15 812.405 789.331 811.236C787.512 810.002 785.109 809.384 782.121 809.384C780.302 809.384 778.614 809.579 777.055 809.969C775.496 810.359 774.164 810.976 773.06 811.82C771.956 812.665 771.144 813.801 770.624 815.23H761.758C762.213 812.892 763.09 810.911 764.389 809.287C765.753 807.598 767.377 806.234 769.26 805.195C771.209 804.091 773.287 803.279 775.496 802.759C777.704 802.24 779.913 801.98 782.121 801.98C789.526 801.98 794.787 804.156 797.905 808.508C801.023 812.859 802.581 818.738 802.581 826.142V853.91H795.664L795.177 847.382C793.748 849.331 792.026 850.825 790.013 851.864C787.999 852.903 785.921 853.585 783.777 853.91C781.699 854.3 779.718 854.495 777.834 854.495ZM778.614 847.187C781.861 847.187 784.654 846.668 786.993 845.629C789.396 844.524 791.247 842.933 792.546 840.854C793.845 838.776 794.495 836.243 794.495 833.255V830.722H785.434C783.29 830.722 781.179 830.754 779.101 830.819C777.022 830.884 775.139 831.144 773.45 831.599C771.761 832.053 770.397 832.833 769.358 833.937C768.383 835.041 767.896 836.633 767.896 838.711C767.896 840.66 768.383 842.251 769.358 843.485C770.397 844.719 771.728 845.661 773.352 846.311C775.041 846.895 776.795 847.187 778.614 847.187ZM826.032 853.91L810.053 802.564H819.406L831.683 845.921L844.349 802.564H855.553L868.316 845.921L880.398 802.564H889.849L873.87 853.91H862.568L849.902 812.307L837.236 853.91H826.032ZM913.989 854.495C911.651 854.495 909.378 854.202 907.169 853.618C905.026 852.968 903.077 852.027 901.323 850.792C899.635 849.493 898.27 847.902 897.231 846.018C896.257 844.07 895.77 841.829 895.77 839.296C895.77 836.373 896.289 833.904 897.329 831.891C898.433 829.877 899.894 828.286 901.713 827.117C903.532 825.948 905.643 825.103 908.046 824.584C910.449 824.064 912.95 823.804 915.548 823.804H930.65C930.65 820.881 930.228 818.348 929.383 816.205C928.604 814.061 927.305 812.405 925.486 811.236C923.667 810.002 921.264 809.384 918.276 809.384C916.457 809.384 914.769 809.579 913.21 809.969C911.651 810.359 910.319 810.976 909.215 811.82C908.111 812.665 907.299 813.801 906.779 815.23H897.913C898.368 812.892 899.245 810.911 900.544 809.287C901.908 807.598 903.532 806.234 905.415 805.195C907.364 804.091 909.443 803.279 911.651 802.759C913.859 802.24 916.068 801.98 918.276 801.98C925.681 801.98 930.942 804.156 934.06 808.508C937.178 812.859 938.737 818.738 938.737 826.142V853.91H931.819L931.332 847.382C929.903 849.331 928.182 850.825 926.168 851.864C924.155 852.903 922.076 853.585 919.933 853.91C917.854 854.3 915.873 854.495 913.989 854.495ZM914.769 847.187C918.016 847.187 920.809 846.668 923.148 845.629C925.551 844.524 927.402 842.933 928.701 840.854C930 838.776 930.65 836.243 930.65 833.255V830.722H921.589C919.445 830.722 917.334 830.754 915.256 830.819C913.177 830.884 911.294 831.144 909.605 831.599C907.916 832.053 906.552 832.833 905.513 833.937C904.539 835.041 904.051 836.633 904.051 838.711C904.051 840.66 904.539 842.251 905.513 843.485C906.552 844.719 907.884 845.661 909.507 846.311C911.196 846.895 912.95 847.187 914.769 847.187ZM994.78 853.91V792.724H972.664V785.027H1025.37V792.724H1003.26V853.91H994.78ZM1033.3 853.91V802.564H1041.58V853.91H1033.3ZM1037.39 794.965C1035.7 794.965 1034.34 794.445 1033.3 793.406C1032.32 792.367 1031.84 791.035 1031.84 789.411C1031.84 787.787 1032.36 786.488 1033.4 785.514C1034.43 784.475 1035.77 783.955 1037.39 783.955C1038.88 783.955 1040.18 784.475 1041.29 785.514C1042.46 786.553 1043.04 787.852 1043.04 789.411C1043.04 791.035 1042.49 792.367 1041.38 793.406C1040.28 794.445 1038.95 794.965 1037.39 794.965ZM1054.61 853.91V802.564H1062.6L1062.99 808.702C1064.09 807.144 1065.33 805.877 1066.69 804.903C1068.12 803.928 1069.68 803.214 1071.37 802.759C1073.12 802.24 1074.97 801.98 1076.92 801.98C1080.49 801.98 1083.39 802.759 1085.59 804.318C1087.8 805.812 1089.46 807.793 1090.56 810.261C1091.73 808.508 1093.06 807.014 1094.56 805.78C1096.12 804.545 1097.84 803.604 1099.72 802.954C1101.67 802.305 1103.81 801.98 1106.15 801.98C1109.92 801.98 1112.94 802.792 1115.21 804.416C1117.55 806.039 1119.24 808.248 1120.28 811.041C1121.32 813.769 1121.84 816.854 1121.84 820.297V853.91H1113.56V824.486C1113.56 822.797 1113.46 821.076 1113.26 819.322C1113.13 817.569 1112.74 815.945 1112.09 814.451C1111.45 812.892 1110.47 811.658 1109.17 810.749C1107.94 809.774 1106.18 809.287 1103.91 809.287C1101.77 809.287 1099.95 809.807 1098.45 810.846C1097.03 811.82 1095.86 813.152 1094.95 814.841C1094.04 816.529 1093.39 818.348 1093 820.297C1092.61 822.18 1092.41 824.064 1092.41 825.948V853.91H1084.13V824.389C1084.13 822.765 1084.03 821.076 1083.84 819.322C1083.71 817.569 1083.35 815.945 1082.77 814.451C1082.25 812.892 1081.34 811.658 1080.04 810.749C1078.81 809.774 1077.08 809.287 1074.88 809.287C1071.76 809.287 1069.32 810.196 1067.57 812.015C1065.82 813.769 1064.58 815.945 1063.87 818.543C1063.22 821.076 1062.89 823.577 1062.89 826.045V853.91H1054.61ZM1155.87 854.495C1148.79 854.495 1143.4 852.611 1139.7 848.844C1136.06 845.076 1134.24 839.296 1134.24 831.501V802.564H1142.53V831.111C1142.53 834.489 1143.01 837.379 1143.99 839.783C1144.96 842.186 1146.42 844.037 1148.37 845.336C1150.39 846.57 1152.89 847.187 1155.87 847.187C1158.99 847.187 1161.56 846.57 1163.57 845.336C1165.58 844.037 1167.05 842.186 1167.96 839.783C1168.93 837.379 1169.42 834.489 1169.42 831.111V802.564H1177.7V831.501C1177.7 839.296 1175.81 845.076 1172.05 848.844C1168.34 852.611 1162.95 854.495 1155.87 854.495ZM1190.58 853.91V802.564H1198.57L1198.95 810.554C1200.25 808.54 1201.75 806.916 1203.44 805.682C1205.19 804.448 1207.11 803.539 1209.19 802.954C1211.33 802.305 1213.63 801.98 1216.1 801.98C1216.56 801.98 1216.98 801.98 1217.37 801.98C1217.82 801.98 1218.28 801.98 1218.73 801.98V809.774H1215.71C1211.69 809.774 1208.41 810.651 1205.87 812.405C1203.4 814.094 1201.62 816.399 1200.51 819.322C1199.41 822.18 1198.86 825.363 1198.86 828.871V853.91H1190.58Z" fill="#FF0048"/>
<path d="M622.04 726.256C613.812 726.256 606.14 724.977 599.024 722.42C592.019 719.863 586.126 715.804 581.345 710.245C576.675 704.686 573.728 697.514 572.505 688.73H596.856C597.856 692.51 599.691 695.568 602.359 697.903C605.028 700.127 608.197 701.739 611.866 702.74C615.646 703.74 619.594 704.241 623.708 704.241C626.821 704.241 629.879 703.852 632.881 703.073C635.883 702.295 638.329 700.961 640.219 699.071C642.22 697.18 643.221 694.623 643.221 691.399C643.221 688.952 642.665 686.951 641.553 685.394C640.553 683.838 639.052 682.615 637.05 681.725C635.16 680.724 632.825 679.835 630.045 679.057C627.71 678.389 625.264 677.833 622.707 677.389C620.261 676.944 617.815 676.388 615.368 675.721C613.033 675.054 610.754 674.275 608.53 673.386C604.305 672.274 600.247 670.94 596.355 669.383C592.464 667.715 589.017 665.658 586.015 663.212C583.013 660.655 580.622 657.486 578.843 653.706C577.175 649.925 576.341 645.366 576.341 640.029C576.341 634.248 577.286 629.355 579.177 625.352C581.178 621.35 583.791 618.07 587.015 615.512C590.351 612.844 594.02 610.787 598.023 609.341C602.137 607.896 606.251 606.895 610.365 606.339C614.479 605.783 618.371 605.505 622.04 605.505C629.712 605.505 636.605 606.84 642.721 609.508C648.836 612.177 653.84 616.179 657.731 621.516C661.623 626.854 663.847 633.58 664.403 641.697H641.22C640.775 638.362 639.552 635.637 637.551 633.525C635.549 631.412 632.992 629.856 629.879 628.855C626.876 627.854 623.485 627.354 619.705 627.354C617.259 627.354 614.868 627.576 612.533 628.021C610.198 628.466 608.086 629.188 606.195 630.189C604.416 631.079 602.971 632.302 601.859 633.858C600.858 635.415 600.358 637.305 600.358 639.529C600.358 641.753 600.97 643.699 602.193 645.366C603.416 646.923 605.195 648.313 607.53 649.536C609.976 650.648 612.811 651.704 616.036 652.705C619.371 653.817 622.874 654.706 626.543 655.373C630.212 656.041 633.715 656.93 637.05 658.042C641.275 659.154 645.223 660.488 648.892 662.045C652.561 663.49 655.786 665.38 658.565 667.715C661.345 669.939 663.513 672.83 665.07 676.388C666.626 679.835 667.405 684.116 667.405 689.23C667.405 696.013 666.126 701.795 663.569 706.576C661.123 711.246 657.731 715.026 653.395 717.917C649.17 720.808 644.333 722.92 638.885 724.255C633.437 725.589 627.822 726.256 622.04 726.256ZM712.129 726.089C708.126 726.089 704.234 725.589 700.454 724.588C696.785 723.476 693.505 721.809 690.614 719.585C687.723 717.361 685.443 714.581 683.776 711.246C682.108 707.91 681.274 704.018 681.274 699.571C681.274 693.567 682.497 688.786 684.943 685.228C687.389 681.558 690.669 678.779 694.783 676.888C698.897 674.998 703.623 673.72 708.96 673.052C714.408 672.385 720.023 672.052 725.805 672.052H738.48C738.48 668.827 737.869 665.992 736.646 663.546C735.534 660.988 733.81 659.043 731.475 657.708C729.14 656.263 726.138 655.54 722.469 655.54C720.134 655.54 717.855 655.874 715.631 656.541C713.518 657.097 711.739 657.931 710.294 659.043C708.849 660.155 707.903 661.6 707.459 663.379H683.776C684.443 658.487 685.999 654.317 688.445 650.87C690.892 647.312 693.949 644.421 697.618 642.198C701.288 639.974 705.291 638.362 709.627 637.361C714.074 636.249 718.633 635.693 723.303 635.693C736.09 635.693 745.541 639.362 751.656 646.701C757.772 653.928 760.829 664.213 760.829 677.556V724.922H739.815L739.481 713.581C736.701 717.472 733.532 720.308 729.974 722.087C726.528 723.866 723.192 724.977 719.967 725.422C716.743 725.867 714.13 726.089 712.129 726.089ZM717.466 707.576C721.357 707.576 724.915 706.798 728.14 705.241C731.364 703.685 733.922 701.572 735.812 698.904C737.702 696.235 738.647 693.233 738.647 689.897V687.729H722.636C720.301 687.729 718.022 687.84 715.798 688.063C713.685 688.285 711.739 688.73 709.96 689.397C708.293 689.953 706.958 690.898 705.958 692.232C704.957 693.567 704.457 695.346 704.457 697.569C704.457 699.793 705.013 701.683 706.124 703.24C707.347 704.686 708.96 705.797 710.961 706.576C712.963 707.243 715.131 707.576 717.466 707.576ZM814.927 726.089C805.031 726.089 797.693 723.31 792.911 717.75C788.242 712.191 785.907 704.574 785.907 694.901V657.875H772.731V637.027H785.907V613.344H809.256V637.027H835.941V657.875H809.256V690.064C809.256 692.955 809.59 695.457 810.257 697.569C811.035 699.682 812.258 701.35 813.926 702.573C815.705 703.685 818.096 704.241 821.098 704.241C823.766 704.241 825.99 703.852 827.769 703.073C829.659 702.184 831.216 701.239 832.439 700.238L839.777 718.251C837.443 720.141 834.83 721.697 831.939 722.92C829.159 724.032 826.324 724.811 823.433 725.255C820.542 725.811 817.707 726.089 814.927 726.089ZM889.291 726.089C876.393 726.089 866.442 722.809 859.437 716.249C852.543 709.578 849.096 699.571 849.096 686.228V637.027H872.446V684.56C872.446 688.563 873.002 692.121 874.114 695.235C875.337 698.237 877.172 700.627 879.618 702.406C882.175 704.185 885.455 705.075 889.458 705.075C893.794 705.075 897.13 704.13 899.465 702.239C901.8 700.349 903.412 697.847 904.302 694.734C905.191 691.51 905.636 688.118 905.636 684.56V637.027H928.819V686.228C928.819 700.127 925.316 710.245 918.311 716.583C911.418 722.92 901.744 726.089 889.291 726.089ZM997.398 724.922V606.84H1043.43C1052.44 606.84 1060.27 608.229 1066.95 611.009C1073.73 613.678 1078.95 618.014 1082.62 624.018C1086.29 629.911 1088.13 637.806 1088.13 647.701C1088.13 656.93 1086.07 664.658 1081.96 670.884C1077.95 677.111 1072.45 681.781 1065.45 684.894C1058.44 687.896 1050.49 689.397 1041.6 689.397H1021.25V724.922H997.398ZM1021.25 668.049H1041.26C1048.38 668.049 1053.99 666.381 1058.11 663.045C1062.33 659.599 1064.44 654.428 1064.44 647.535C1064.44 641.419 1062.67 636.805 1059.11 633.692C1055.66 630.578 1050.1 629.022 1042.43 629.022H1021.25V668.049ZM1141.59 726.089C1132.36 726.089 1124.52 724.255 1118.07 720.586C1111.63 716.916 1106.68 711.746 1103.23 705.075C1099.78 698.292 1098.06 690.398 1098.06 681.392C1098.06 672.274 1099.84 664.324 1103.4 657.542C1106.96 650.648 1111.96 645.255 1118.41 641.364C1124.97 637.472 1132.7 635.526 1141.59 635.526C1148.26 635.526 1154.1 636.638 1159.1 638.862C1164.22 641.086 1168.5 644.199 1171.95 648.202C1175.5 652.205 1178.12 656.874 1179.78 662.211C1181.56 667.437 1182.4 673.108 1182.29 679.223C1182.29 680.78 1182.23 682.281 1182.12 683.726C1182.01 685.172 1181.79 686.617 1181.45 688.063H1121.24C1121.58 691.399 1122.52 694.456 1124.08 697.236C1125.64 700.016 1127.8 702.239 1130.58 703.907C1133.47 705.464 1137.03 706.242 1141.26 706.242C1144.04 706.242 1146.59 705.964 1148.93 705.408C1151.26 704.741 1153.27 703.74 1154.93 702.406C1156.6 701.072 1157.77 699.515 1158.44 697.736H1181.45C1180.01 704.296 1177.28 709.689 1173.28 713.914C1169.39 718.139 1164.66 721.253 1159.1 723.254C1153.54 725.144 1147.71 726.089 1141.59 726.089ZM1121.74 671.718H1159.94C1159.83 668.716 1159.05 665.936 1157.6 663.379C1156.27 660.71 1154.21 658.598 1151.43 657.041C1148.76 655.373 1145.32 654.539 1141.09 654.539C1136.87 654.539 1133.31 655.373 1130.42 657.041C1127.64 658.709 1125.52 660.877 1124.08 663.546C1122.74 666.103 1121.97 668.827 1121.74 671.718ZM1233.19 726.089C1223.29 726.089 1215.95 723.31 1211.17 717.75C1206.5 712.191 1204.17 704.574 1204.17 694.901V657.875H1190.99V637.027H1204.17V613.344H1227.52V637.027H1254.2V657.875H1227.52V690.064C1227.52 692.955 1227.85 695.457 1228.52 697.569C1229.3 699.682 1230.52 701.35 1232.19 702.573C1233.97 703.685 1236.36 704.241 1239.36 704.241C1242.03 704.241 1244.25 703.852 1246.03 703.073C1247.92 702.184 1249.48 701.239 1250.7 700.238L1258.04 718.251C1255.7 720.141 1253.09 721.697 1250.2 722.92C1247.42 724.032 1244.58 724.811 1241.69 725.255C1238.8 725.811 1235.97 726.089 1233.19 726.089ZM1295.54 726.089C1291.54 726.089 1287.65 725.589 1283.87 724.588C1280.2 723.476 1276.92 721.809 1274.03 719.585C1271.14 717.361 1268.86 714.581 1267.19 711.246C1265.52 707.91 1264.69 704.018 1264.69 699.571C1264.69 693.567 1265.91 688.786 1268.36 685.228C1270.8 681.558 1274.08 678.779 1278.2 676.888C1282.31 674.998 1287.04 673.72 1292.37 673.052C1297.82 672.385 1303.44 672.052 1309.22 672.052H1321.89C1321.89 668.827 1321.28 665.992 1320.06 663.546C1318.95 660.988 1317.22 659.043 1314.89 657.708C1312.56 656.263 1309.55 655.54 1305.88 655.54C1303.55 655.54 1301.27 655.874 1299.05 656.541C1296.93 657.097 1295.15 657.931 1293.71 659.043C1292.26 660.155 1291.32 661.6 1290.87 663.379H1267.19C1267.86 658.487 1269.41 654.317 1271.86 650.87C1274.31 647.312 1277.36 644.421 1281.03 642.198C1284.7 639.974 1288.71 638.362 1293.04 637.361C1297.49 636.249 1302.05 635.693 1306.72 635.693C1319.5 635.693 1328.96 639.362 1335.07 646.701C1341.19 653.928 1344.24 664.213 1344.24 677.556V724.922H1323.23L1322.9 713.581C1320.12 717.472 1316.95 720.308 1313.39 722.087C1309.94 723.866 1306.61 724.977 1303.38 725.422C1300.16 725.867 1297.54 726.089 1295.54 726.089ZM1300.88 707.576C1304.77 707.576 1308.33 706.798 1311.55 705.241C1314.78 703.685 1317.34 701.572 1319.23 698.904C1321.12 696.235 1322.06 693.233 1322.06 689.897V687.729H1306.05C1303.72 687.729 1301.44 687.84 1299.21 688.063C1297.1 688.285 1295.15 688.73 1293.37 689.397C1291.71 689.953 1290.37 690.898 1289.37 692.232C1288.37 693.567 1287.87 695.346 1287.87 697.569C1287.87 699.793 1288.43 701.683 1289.54 703.24C1290.76 704.686 1292.37 705.797 1294.38 706.576C1296.38 707.243 1298.55 707.576 1300.88 707.576Z" fill="#0A2384"/>
<path d="M712.938 391.041C718.814 391.041 723.578 386.277 723.578 380.401C723.578 374.525 718.814 369.762 712.938 369.762C707.062 369.762 702.299 374.525 702.299 380.401C702.299 386.277 707.062 391.041 712.938 391.041Z" fill="#3188E5" stroke="black" stroke-width="0.032522"/>
<path d="M737.743 291.705C743.619 291.705 748.383 286.941 748.383 281.065C748.383 275.189 743.619 270.426 737.743 270.426C731.867 270.426 727.104 275.189 727.104 281.065C727.104 286.941 731.867 291.705 737.743 291.705Z" fill="#3188E5" stroke="black" stroke-width="0.032522"/>
<path d="M712.938 291.705C718.814 291.705 723.578 286.941 723.578 281.065C723.578 275.189 718.814 270.426 712.938 270.426C707.062 270.426 702.299 275.189 702.299 281.065C702.299 286.941 707.062 291.705 712.938 291.705Z" fill="#3188E5" stroke="black" stroke-width="0.032522"/>
<path d="M688.128 291.705C694.004 291.705 698.767 286.941 698.767 281.065C698.767 275.189 694.004 270.426 688.128 270.426C682.252 270.426 677.488 275.189 677.488 281.065C677.488 286.941 682.252 291.705 688.128 291.705Z" fill="#3188E5" stroke="black" stroke-width="0.032522"/>
<path d="M762.557 266.894C768.433 266.894 773.197 262.131 773.197 256.255C773.197 250.379 768.433 245.615 762.557 245.615C756.681 245.615 751.918 250.379 751.918 256.255C751.918 262.131 756.681 266.894 762.557 266.894Z" fill="#3188E5" stroke="black" stroke-width="0.032522"/>
<path d="M737.743 266.894C743.619 266.894 748.383 262.131 748.383 256.255C748.383 250.379 743.619 245.615 737.743 245.615C731.867 245.615 727.104 250.379 727.104 256.255C727.104 262.131 731.867 266.894 737.743 266.894Z" fill="#3188E5" stroke="black" stroke-width="0.032522"/>
<path d="M762.557 242.086C768.433 242.086 773.197 237.322 773.197 231.446C773.197 225.57 768.433 220.807 762.557 220.807C756.681 220.807 751.918 225.57 751.918 231.446C751.918 237.322 756.681 242.086 762.557 242.086Z" fill="#3188E5" stroke="black" stroke-width="0.032522"/>
<path d="M762.557 217.279C768.433 217.279 773.197 212.516 773.197 206.639C773.197 200.763 768.433 196 762.557 196C756.681 196 751.918 200.763 751.918 206.639C751.918 212.516 756.681 217.279 762.557 217.279Z" fill="#3188E5" stroke="black" stroke-width="0.032522"/>
<path d="M737.743 316.611C743.619 316.611 748.383 311.848 748.383 305.972C748.383 300.095 743.619 295.332 737.743 295.332C731.867 295.332 727.104 300.095 727.104 305.972C727.104 311.848 731.867 316.611 737.743 316.611Z" fill="#3188E5" stroke="black" stroke-width="0.032522"/>
<path d="M1259.13 539.99C1265 539.99 1269.77 535.226 1269.77 529.35C1269.77 523.474 1265 518.711 1259.13 518.711C1253.25 518.711 1248.49 523.474 1248.49 529.35C1248.49 535.226 1253.25 539.99 1259.13 539.99Z" fill="#3188E5" stroke="black" stroke-width="0.032522"/>
<path d="M1234.32 515.179C1240.19 515.179 1244.96 510.416 1244.96 504.54C1244.96 498.664 1240.19 493.9 1234.32 493.9C1228.44 493.9 1223.68 498.664 1223.68 504.54C1223.68 510.416 1228.44 515.179 1234.32 515.179Z" fill="#3188E5" stroke="black" stroke-width="0.032522"/>
<path d="M1134.98 515.179C1140.86 515.179 1145.62 510.416 1145.62 504.54C1145.62 498.664 1140.86 493.9 1134.98 493.9C1129.11 493.9 1124.34 498.664 1124.34 504.54C1124.34 510.416 1129.11 515.179 1134.98 515.179Z" fill="#3188E5" stroke="black" stroke-width="0.032522"/>
<path d="M1085.37 490.375C1091.24 490.375 1096.01 485.611 1096.01 479.735C1096.01 473.859 1091.24 469.096 1085.37 469.096C1079.49 469.096 1074.73 473.859 1074.73 479.735C1074.73 485.611 1079.49 490.375 1085.37 490.375Z" fill="#3188E5" stroke="black" stroke-width="0.032522"/>
<path d="M986.032 490.375C991.908 490.375 996.672 485.611 996.672 479.735C996.672 473.859 991.908 469.096 986.032 469.096C980.156 469.096 975.393 473.859 975.393 479.735C975.393 485.611 980.156 490.375 986.032 490.375Z" fill="#3188E5" stroke="black" stroke-width="0.032522"/>
<path d="M936.417 490.375C942.293 490.375 947.056 485.611 947.056 479.735C947.056 473.859 942.293 469.096 936.417 469.096C930.541 469.096 925.777 473.859 925.777 479.735C925.777 485.611 930.541 490.375 936.417 490.375Z" fill="#3188E5" stroke="black" stroke-width="0.032522"/>
<path d="M1184.6 465.463C1190.48 465.463 1195.24 460.699 1195.24 454.823C1195.24 448.947 1190.48 444.184 1184.6 444.184C1178.73 444.184 1173.96 448.947 1173.96 454.823C1173.96 460.699 1178.73 465.463 1184.6 465.463Z" fill="#3188E5" stroke="black" stroke-width="0.032522"/>
<path d="M1134.98 465.463C1140.86 465.463 1145.62 460.699 1145.62 454.823C1145.62 448.947 1140.86 444.184 1134.98 444.184C1129.11 444.184 1124.34 448.947 1124.34 454.823C1124.34 460.699 1129.11 465.463 1134.98 465.463Z" fill="#3188E5" stroke="black" stroke-width="0.032522"/>
<path d="M1060.46 465.463C1066.33 465.463 1071.1 460.699 1071.1 454.823C1071.1 448.947 1066.33 444.184 1060.46 444.184C1054.58 444.184 1049.82 448.947 1049.82 454.823C1049.82 460.699 1054.58 465.463 1060.46 465.463Z" fill="#3188E5" stroke="black" stroke-width="0.032522"/>
<path d="M936.417 440.656C942.293 440.656 947.056 435.892 947.056 430.016C947.056 424.14 942.293 419.377 936.417 419.377C930.541 419.377 925.777 424.14 925.777 430.016C925.777 435.892 930.541 440.656 936.417 440.656Z" fill="#3188E5" stroke="black" stroke-width="0.032522"/>
<path d="M861.895 440.656C867.771 440.656 872.535 435.892 872.535 430.016C872.535 424.14 867.771 419.377 861.895 419.377C856.019 419.377 851.256 424.14 851.256 430.016C851.256 435.892 856.019 440.656 861.895 440.656Z" fill="#3188E5" stroke="black" stroke-width="0.032522"/>
<path d="M712.938 440.656C718.814 440.656 723.578 435.892 723.578 430.016C723.578 424.14 718.814 419.377 712.938 419.377C707.062 419.377 702.299 424.14 702.299 430.016C702.299 435.892 707.062 440.656 712.938 440.656Z" fill="#3188E5" stroke="black" stroke-width="0.032522"/>
<path d="M961.223 415.847C967.1 415.847 971.863 411.084 971.863 405.208C971.863 399.332 967.1 394.568 961.223 394.568C955.347 394.568 950.584 399.332 950.584 405.208C950.584 411.084 955.347 415.847 961.223 415.847Z" fill="#3188E5" stroke="black" stroke-width="0.032522"/>
<path d="M1209.51 391.041C1215.38 391.041 1220.15 386.277 1220.15 380.401C1220.15 374.525 1215.38 369.762 1209.51 369.762C1203.63 369.762 1198.87 374.525 1198.87 380.401C1198.87 386.277 1203.63 391.041 1209.51 391.041Z" fill="#3188E5" stroke="black" stroke-width="0.032522"/>
<path d="M1159.79 391.041C1165.67 391.041 1170.43 386.277 1170.43 380.401C1170.43 374.525 1165.67 369.762 1159.79 369.762C1153.92 369.762 1149.15 374.525 1149.15 380.401C1149.15 386.277 1153.92 391.041 1159.79 391.041Z" fill="#3188E5" stroke="black" stroke-width="0.032522"/>
<path d="M986.032 391.041C991.908 391.041 996.672 386.277 996.672 380.401C996.672 374.525 991.908 369.762 986.032 369.762C980.156 369.762 975.393 374.525 975.393 380.401C975.393 386.277 980.156 391.041 986.032 391.041Z" fill="#3188E5" stroke="black" stroke-width="0.032522"/>
<path d="M762.557 391.041C768.433 391.041 773.197 386.277 773.197 380.401C773.197 374.525 768.433 369.762 762.557 369.762C756.681 369.762 751.918 374.525 751.918 380.401C751.918 386.277 756.681 391.041 762.557 391.041Z" fill="#3188E5" stroke="black" stroke-width="0.032522"/>
<path d="M986.032 366.226C991.908 366.226 996.672 361.463 996.672 355.587C996.672 349.711 991.908 344.947 986.032 344.947C980.156 344.947 975.393 349.711 975.393 355.587C975.393 361.463 980.156 366.226 986.032 366.226Z" fill="#3188E5" stroke="black" stroke-width="0.032522"/>
<path d="M961.223 341.422C967.1 341.422 971.863 336.658 971.863 330.782C971.863 324.906 967.1 320.143 961.223 320.143C955.347 320.143 950.584 324.906 950.584 330.782C950.584 336.658 955.347 341.422 961.223 341.422Z" fill="#3188E5" stroke="black" stroke-width="0.032522"/>
<path d="M936.417 341.422C942.293 341.422 947.056 336.658 947.056 330.782C947.056 324.906 942.293 320.143 936.417 320.143C930.541 320.143 925.777 324.906 925.777 330.782C925.777 336.658 930.541 341.422 936.417 341.422Z" fill="#3188E5" stroke="black" stroke-width="0.032522"/>
<path d="M936.417 316.611C942.293 316.611 947.056 311.848 947.056 305.972C947.056 300.095 942.293 295.332 936.417 295.332C930.541 295.332 925.777 300.095 925.777 305.972C925.777 311.848 930.541 316.611 936.417 316.611Z" fill="#3188E5" stroke="black" stroke-width="0.032522"/>
<path d="M911.511 316.611C917.387 316.611 922.15 311.848 922.15 305.972C922.15 300.095 917.387 295.332 911.511 295.332C905.635 295.332 900.871 300.095 900.871 305.972C900.871 311.848 905.635 316.611 911.511 316.611Z" fill="#3188E5" stroke="black" stroke-width="0.032522"/>
<path d="M886.272 316.611C892.148 316.611 896.912 311.848 896.912 305.972C896.912 300.095 892.148 295.332 886.272 295.332C880.396 295.332 875.633 300.095 875.633 305.972C875.633 311.848 880.396 316.611 886.272 316.611Z" fill="#3188E5" stroke="black" stroke-width="0.032522"/>
<path d="M1085.37 291.705C1091.24 291.705 1096.01 286.941 1096.01 281.065C1096.01 275.189 1091.24 270.426 1085.37 270.426C1079.49 270.426 1074.73 275.189 1074.73 281.065C1074.73 286.941 1079.49 291.705 1085.37 291.705Z" fill="#3188E5" stroke="black" stroke-width="0.032522"/>
<path d="M1035.65 291.705C1041.53 291.705 1046.29 286.941 1046.29 281.065C1046.29 275.189 1041.53 270.426 1035.65 270.426C1029.78 270.426 1025.01 275.189 1025.01 281.065C1025.01 286.941 1029.78 291.705 1035.65 291.705Z" fill="#3188E5" stroke="black" stroke-width="0.032522"/>
<path d="M1010.84 291.705C1016.71 291.705 1021.48 286.941 1021.48 281.065C1021.48 275.189 1016.71 270.426 1010.84 270.426C1004.96 270.426 1000.2 275.189 1000.2 281.065C1000.2 286.941 1004.96 291.705 1010.84 291.705Z" fill="#3188E5" stroke="black" stroke-width="0.032522"/>
<path d="M886.696 291.705C892.572 291.705 897.336 286.941 897.336 281.065C897.336 275.189 892.572 270.426 886.696 270.426C880.82 270.426 876.057 275.189 876.057 281.065C876.057 286.941 880.82 291.705 886.696 291.705Z" fill="#3188E5" stroke="black" stroke-width="0.032522"/>
<path d="M787.466 291.705C793.342 291.705 798.105 286.941 798.105 281.065C798.105 275.189 793.342 270.426 787.466 270.426C781.59 270.426 776.826 275.189 776.826 281.065C776.826 286.941 781.59 291.705 787.466 291.705Z" fill="#3188E5" stroke="black" stroke-width="0.032522"/>
<path d="M787.466 316.521C793.342 316.521 798.105 311.758 798.105 305.882C798.105 300.006 793.342 295.242 787.466 295.242C781.59 295.242 776.826 300.006 776.826 305.882C776.826 311.758 781.59 316.521 787.466 316.521Z" fill="#3188E5" stroke="black" stroke-width="0.032522"/>
<path d="M1159.79 266.894C1165.67 266.894 1170.43 262.131 1170.43 256.255C1170.43 250.379 1165.67 245.615 1159.79 245.615C1153.92 245.615 1149.15 250.379 1149.15 256.255C1149.15 262.131 1153.92 266.894 1159.79 266.894Z" fill="#3188E5" stroke="black" stroke-width="0.032522"/>
<path d="M1110.17 266.894C1116.05 266.894 1120.81 262.131 1120.81 256.255C1120.81 250.379 1116.05 245.615 1110.17 245.615C1104.3 245.615 1099.54 250.379 1099.54 256.255C1099.54 262.131 1104.3 266.894 1110.17 266.894Z" fill="#3188E5" stroke="black" stroke-width="0.032522"/>
<path d="M1209.51 515.179C1215.38 515.179 1220.15 510.416 1220.15 504.54C1220.15 498.664 1215.38 493.9 1209.51 493.9C1203.63 493.9 1198.87 498.664 1198.87 504.54C1198.87 510.416 1203.63 515.179 1209.51 515.179Z" fill="#3188E5" stroke="black" stroke-width="0.032522"/>
<path d="M1184.6 515.179C1190.48 515.179 1195.24 510.416 1195.24 504.54C1195.24 498.664 1190.48 493.9 1184.6 493.9C1178.73 493.9 1173.96 498.664 1173.96 504.54C1173.96 510.416 1178.73 515.179 1184.6 515.179Z" fill="#3188E5" stroke="black" stroke-width="0.032522"/>
<path d="M1159.79 515.179C1165.67 515.179 1170.43 510.416 1170.43 504.54C1170.43 498.664 1165.67 493.9 1159.79 493.9C1153.92 493.9 1149.15 498.664 1149.15 504.54C1149.15 510.416 1153.92 515.179 1159.79 515.179Z" fill="#3188E5" stroke="black" stroke-width="0.032522"/>
<path d="M1060.46 515.179C1066.33 515.179 1071.1 510.416 1071.1 504.54C1071.1 498.664 1066.33 493.9 1060.46 493.9C1054.58 493.9 1049.82 498.664 1049.82 504.54C1049.82 510.416 1054.58 515.179 1060.46 515.179Z" fill="#3188E5" stroke="black" stroke-width="0.032522"/>
<path d="M1184.6 490.375C1190.48 490.375 1195.24 485.611 1195.24 479.735C1195.24 473.859 1190.48 469.096 1184.6 469.096C1178.73 469.096 1173.96 473.859 1173.96 479.735C1173.96 485.611 1178.73 490.375 1184.6 490.375Z" fill="#3188E5" stroke="black" stroke-width="0.032522"/>
<path d="M1234.32 490.375C1240.19 490.375 1244.96 485.611 1244.96 479.735C1244.96 473.859 1240.19 469.096 1234.32 469.096C1228.44 469.096 1223.68 473.859 1223.68 479.735C1223.68 485.611 1228.44 490.375 1234.32 490.375Z" fill="#3188E5" stroke="black" stroke-width="0.032522"/>
<path d="M1134.98 490.375C1140.86 490.375 1145.62 485.611 1145.62 479.735C1145.62 473.859 1140.86 469.096 1134.98 469.096C1129.11 469.096 1124.34 473.859 1124.34 479.735C1124.34 485.611 1129.11 490.375 1134.98 490.375Z" fill="#3188E5" stroke="black" stroke-width="0.032522"/>
<path d="M1209.51 490.375C1215.38 490.375 1220.15 485.611 1220.15 479.735C1220.15 473.859 1215.38 469.096 1209.51 469.096C1203.63 469.096 1198.87 473.859 1198.87 479.735C1198.87 485.611 1203.63 490.375 1209.51 490.375Z" fill="#3188E5" stroke="black" stroke-width="0.032522"/>
<path d="M1159.79 490.375C1165.67 490.375 1170.43 485.611 1170.43 479.735C1170.43 473.859 1165.67 469.096 1159.79 469.096C1153.92 469.096 1149.15 473.859 1149.15 479.735C1149.15 485.611 1153.92 490.375 1159.79 490.375Z" fill="#3188E5" stroke="black" stroke-width="0.032522"/>
<path d="M1110.17 490.375C1116.05 490.375 1120.81 485.611 1120.81 479.735C1120.81 473.859 1116.05 469.096 1110.17 469.096C1104.3 469.096 1099.54 473.859 1099.54 479.735C1099.54 485.611 1104.3 490.375 1110.17 490.375Z" fill="#3188E5" stroke="black" stroke-width="0.032522"/>
<path d="M1010.84 440.656C1016.71 440.656 1021.48 435.892 1021.48 430.016C1021.48 424.14 1016.71 419.377 1010.84 419.377C1004.96 419.377 1000.2 424.14 1000.2 430.016C1000.2 435.892 1004.96 440.656 1010.84 440.656Z" fill="#3188E5" stroke="black" stroke-width="0.032522"/>
<path d="M961.223 490.375C967.1 490.375 971.863 485.611 971.863 479.735C971.863 473.859 967.1 469.096 961.223 469.096C955.347 469.096 950.584 473.859 950.584 479.735C950.584 485.611 955.347 490.375 961.223 490.375Z" fill="#3188E5" stroke="black" stroke-width="0.032522"/>
<path d="M1209.51 465.463C1215.38 465.463 1220.15 460.699 1220.15 454.823C1220.15 448.947 1215.38 444.184 1209.51 444.184C1203.63 444.184 1198.87 448.947 1198.87 454.823C1198.87 460.699 1203.63 465.463 1209.51 465.463Z" fill="#3188E5" stroke="black" stroke-width="0.032522"/>
<path d="M1085.37 465.463C1091.24 465.463 1096.01 460.699 1096.01 454.823C1096.01 448.947 1091.24 444.184 1085.37 444.184C1079.49 444.184 1074.73 448.947 1074.73 454.823C1074.73 460.699 1079.49 465.463 1085.37 465.463Z" fill="#3188E5" stroke="black" stroke-width="0.032522"/>
<path d="M911.511 490.375C917.387 490.375 922.15 485.611 922.15 479.735C922.15 473.859 917.387 469.096 911.511 469.096C905.635 469.096 900.871 473.859 900.871 479.735C900.871 485.611 905.635 490.375 911.511 490.375Z" fill="#3188E5" stroke="black" stroke-width="0.032522"/>
<path d="M787.466 490.375C793.342 490.375 798.105 485.611 798.105 479.735C798.105 473.859 793.342 469.096 787.466 469.096C781.59 469.096 776.826 473.859 776.826 479.735C776.826 485.611 781.59 490.375 787.466 490.375Z" fill="#3188E5" stroke="black" stroke-width="0.032522"/>
<path d="M1159.79 465.463C1165.67 465.463 1170.43 460.699 1170.43 454.823C1170.43 448.947 1165.67 444.184 1159.79 444.184C1153.92 444.184 1149.15 448.947 1149.15 454.823C1149.15 460.699 1153.92 465.463 1159.79 465.463Z" fill="#3188E5" stroke="black" stroke-width="0.032522"/>
<path d="M1110.17 465.463C1116.05 465.463 1120.81 460.699 1120.81 454.823C1120.81 448.947 1116.05 444.184 1110.17 444.184C1104.3 444.184 1099.54 448.947 1099.54 454.823C1099.54 460.699 1104.3 465.463 1110.17 465.463Z" fill="#3188E5" stroke="black" stroke-width="0.032522"/>
<path d="M1035.65 440.656C1041.53 440.656 1046.29 435.892 1046.29 430.016C1046.29 424.14 1041.53 419.377 1035.65 419.377C1029.78 419.377 1025.01 424.14 1025.01 430.016C1025.01 435.892 1029.78 440.656 1035.65 440.656Z" fill="#3188E5" stroke="black" stroke-width="0.032522"/>
<path d="M961.223 440.656C967.1 440.656 971.863 435.892 971.863 430.016C971.863 424.14 967.1 419.377 961.223 419.377C955.347 419.377 950.584 424.14 950.584 430.016C950.584 435.892 955.347 440.656 961.223 440.656Z" fill="#3188E5" stroke="black" stroke-width="0.032522"/>
<path d="M1035.65 465.463C1041.53 465.463 1046.29 460.699 1046.29 454.823C1046.29 448.947 1041.53 444.184 1035.65 444.184C1029.78 444.184 1025.01 448.947 1025.01 454.823C1025.01 460.699 1029.78 465.463 1035.65 465.463Z" fill="#3188E5" stroke="black" stroke-width="0.032522"/>
<path d="M1010.84 465.463C1016.71 465.463 1021.48 460.699 1021.48 454.823C1021.48 448.947 1016.71 444.184 1010.84 444.184C1004.96 444.184 1000.2 448.947 1000.2 454.823C1000.2 460.699 1004.96 465.463 1010.84 465.463Z" fill="#3188E5" stroke="black" stroke-width="0.032522"/>
<path d="M986.032 465.463C991.908 465.463 996.672 460.699 996.672 454.823C996.672 448.947 991.908 444.184 986.032 444.184C980.156 444.184 975.393 448.947 975.393 454.823C975.393 460.699 980.156 465.463 986.032 465.463Z" fill="#3188E5" stroke="black" stroke-width="0.032522"/>
<path d="M961.223 465.463C967.1 465.463 971.863 460.699 971.863 454.823C971.863 448.947 967.1 444.184 961.223 444.184C955.347 444.184 950.584 448.947 950.584 454.823C950.584 460.699 955.347 465.463 961.223 465.463Z" fill="#3188E5" stroke="black" stroke-width="0.032522"/>
<path d="M936.417 465.463C942.293 465.463 947.056 460.699 947.056 454.823C947.056 448.947 942.293 444.184 936.417 444.184C930.541 444.184 925.777 448.947 925.777 454.823C925.777 460.699 930.541 465.463 936.417 465.463Z" fill="#3188E5" stroke="black" stroke-width="0.032522"/>
<path d="M911.511 465.463C917.387 465.463 922.15 460.699 922.15 454.823C922.15 448.947 917.387 444.184 911.511 444.184C905.635 444.184 900.871 448.947 900.871 454.823C900.871 460.699 905.635 465.463 911.511 465.463Z" fill="#3188E5" stroke="black" stroke-width="0.032522"/>
<path d="M886.696 465.463C892.572 465.463 897.336 460.699 897.336 454.823C897.336 448.947 892.572 444.184 886.696 444.184C880.82 444.184 876.057 448.947 876.057 454.823C876.057 460.699 880.82 465.463 886.696 465.463Z" fill="#3188E5" stroke="black" stroke-width="0.032522"/>
<path d="M861.895 465.463C867.771 465.463 872.535 460.699 872.535 454.823C872.535 448.947 867.771 444.184 861.895 444.184C856.019 444.184 851.256 448.947 851.256 454.823C851.256 460.699 856.019 465.463 861.895 465.463Z" fill="#3188E5" stroke="black" stroke-width="0.032522"/>
<path d="M837.081 465.463C842.957 465.463 847.72 460.699 847.72 454.823C847.72 448.947 842.957 444.184 837.081 444.184C831.205 444.184 826.441 448.947 826.441 454.823C826.441 460.699 831.205 465.463 837.081 465.463Z" fill="#3188E5" stroke="black" stroke-width="0.032522"/>
<path d="M812.27 465.463C818.146 465.463 822.91 460.699 822.91 454.823C822.91 448.947 818.146 444.184 812.27 444.184C806.394 444.184 801.631 448.947 801.631 454.823C801.631 460.699 806.394 465.463 812.27 465.463Z" fill="#3188E5" stroke="black" stroke-width="0.032522"/>
<path d="M787.466 465.463C793.342 465.463 798.105 460.699 798.105 454.823C798.105 448.947 793.342 444.184 787.466 444.184C781.59 444.184 776.826 448.947 776.826 454.823C776.826 460.699 781.59 465.463 787.466 465.463Z" fill="#3188E5" stroke="black" stroke-width="0.032522"/>
<path d="M762.557 465.463C768.433 465.463 773.197 460.699 773.197 454.823C773.197 448.947 768.433 444.184 762.557 444.184C756.681 444.184 751.918 448.947 751.918 454.823C751.918 460.699 756.681 465.463 762.557 465.463Z" fill="#3188E5" stroke="black" stroke-width="0.032522"/>
<path d="M737.743 465.463C743.619 465.463 748.383 460.699 748.383 454.823C748.383 448.947 743.619 444.184 737.743 444.184C731.867 444.184 727.104 448.947 727.104 454.823C727.104 460.699 731.867 465.463 737.743 465.463Z" fill="#3188E5" stroke="black" stroke-width="0.032522"/>
<path d="M712.938 465.463C718.814 465.463 723.578 460.699 723.578 454.823C723.578 448.947 718.814 444.184 712.938 444.184C707.062 444.184 702.299 448.947 702.299 454.823C702.299 460.699 707.062 465.463 712.938 465.463Z" fill="#3188E5" stroke="black" stroke-width="0.032522"/>
<path d="M688.128 465.463C694.004 465.463 698.767 460.699 698.767 454.823C698.767 448.947 694.004 444.184 688.128 444.184C682.252 444.184 677.488 448.947 677.488 454.823C677.488 460.699 682.252 465.463 688.128 465.463Z" fill="#3188E5" stroke="black" stroke-width="0.032522"/>
<path d="M663.2 465.463C669.076 465.463 673.84 460.699 673.84 454.823C673.84 448.947 669.076 444.184 663.2 444.184C657.324 444.184 652.561 448.947 652.561 454.823C652.561 460.699 657.324 465.463 663.2 465.463Z" fill="#3188E5" stroke="black" stroke-width="0.032522"/>
<path d="M1234.32 440.656C1240.19 440.656 1244.96 435.892 1244.96 430.016C1244.96 424.14 1240.19 419.377 1234.32 419.377C1228.44 419.377 1223.68 424.14 1223.68 430.016C1223.68 435.892 1228.44 440.656 1234.32 440.656Z" fill="#3188E5" stroke="black" stroke-width="0.032522"/>
<path d="M1209.51 440.656C1215.38 440.656 1220.15 435.892 1220.15 430.016C1220.15 424.14 1215.38 419.377 1209.51 419.377C1203.63 419.377 1198.87 424.14 1198.87 430.016C1198.87 435.892 1203.63 440.656 1209.51 440.656Z" fill="#3188E5" stroke="black" stroke-width="0.032522"/>
<path d="M1184.6 440.656C1190.48 440.656 1195.24 435.892 1195.24 430.016C1195.24 424.14 1190.48 419.377 1184.6 419.377C1178.73 419.377 1173.96 424.14 1173.96 430.016C1173.96 435.892 1178.73 440.656 1184.6 440.656Z" fill="#3188E5" stroke="black" stroke-width="0.032522"/>
<path d="M1159.79 440.656C1165.67 440.656 1170.43 435.892 1170.43 430.016C1170.43 424.14 1165.67 419.377 1159.79 419.377C1153.92 419.377 1149.15 424.14 1149.15 430.016C1149.15 435.892 1153.92 440.656 1159.79 440.656Z" fill="#3188E5" stroke="black" stroke-width="0.032522"/>
<path d="M1134.98 440.656C1140.86 440.656 1145.62 435.892 1145.62 430.016C1145.62 424.14 1140.86 419.377 1134.98 419.377C1129.11 419.377 1124.34 424.14 1124.34 430.016C1124.34 435.892 1129.11 440.656 1134.98 440.656Z" fill="#3188E5" stroke="black" stroke-width="0.032522"/>
<path d="M1110.17 440.656C1116.05 440.656 1120.81 435.892 1120.81 430.016C1120.81 424.14 1116.05 419.377 1110.17 419.377C1104.3 419.377 1099.54 424.14 1099.54 430.016C1099.54 435.892 1104.3 440.656 1110.17 440.656Z" fill="#3188E5" stroke="black" stroke-width="0.032522"/>
<path d="M1085.37 440.656C1091.24 440.656 1096.01 435.892 1096.01 430.016C1096.01 424.14 1091.24 419.377 1085.37 419.377C1079.49 419.377 1074.73 424.14 1074.73 430.016C1074.73 435.892 1079.49 440.656 1085.37 440.656Z" fill="#3188E5" stroke="black" stroke-width="0.032522"/>
<path d="M1060.46 440.656C1066.33 440.656 1071.1 435.892 1071.1 430.016C1071.1 424.14 1066.33 419.377 1060.46 419.377C1054.58 419.377 1049.82 424.14 1049.82 430.016C1049.82 435.892 1054.58 440.656 1060.46 440.656Z" fill="#3188E5" stroke="black" stroke-width="0.032522"/>
<path d="M986.032 440.656C991.908 440.656 996.672 435.892 996.672 430.016C996.672 424.14 991.908 419.377 986.032 419.377C980.156 419.377 975.393 424.14 975.393 430.016C975.393 435.892 980.156 440.656 986.032 440.656Z" fill="#3188E5" stroke="black" stroke-width="0.032522"/>
<path d="M911.511 440.656C917.387 440.656 922.15 435.892 922.15 430.016C922.15 424.14 917.387 419.377 911.511 419.377C905.635 419.377 900.871 424.14 900.871 430.016C900.871 435.892 905.635 440.656 911.511 440.656Z" fill="#3188E5" stroke="black" stroke-width="0.032522"/>
<path d="M812.27 440.656C818.146 440.656 822.91 435.892 822.91 430.016C822.91 424.14 818.146 419.377 812.27 419.377C806.394 419.377 801.631 424.14 801.631 430.016C801.631 435.892 806.394 440.656 812.27 440.656Z" fill="#3188E5" stroke="black" stroke-width="0.032522"/>
<path d="M886.696 440.656C892.572 440.656 897.336 435.892 897.336 430.016C897.336 424.14 892.572 419.377 886.696 419.377C880.82 419.377 876.057 424.14 876.057 430.016C876.057 435.892 880.82 440.656 886.696 440.656Z" fill="#3188E5" stroke="black" stroke-width="0.032522"/>
<path d="M837.081 440.656C842.957 440.656 847.72 435.892 847.72 430.016C847.72 424.14 842.957 419.377 837.081 419.377C831.205 419.377 826.441 424.14 826.441 430.016C826.441 435.892 831.205 440.656 837.081 440.656Z" fill="#3188E5" stroke="black" stroke-width="0.032522"/>
<path d="M787.466 440.656C793.342 440.656 798.105 435.892 798.105 430.016C798.105 424.14 793.342 419.377 787.466 419.377C781.59 419.377 776.826 424.14 776.826 430.016C776.826 435.892 781.59 440.656 787.466 440.656Z" fill="#3188E5" stroke="black" stroke-width="0.032522"/>
<path d="M737.743 440.656C743.619 440.656 748.383 435.892 748.383 430.016C748.383 424.14 743.619 419.377 737.743 419.377C731.867 419.377 727.104 424.14 727.104 430.016C727.104 435.892 731.867 440.656 737.743 440.656Z" fill="#3188E5" stroke="black" stroke-width="0.032522"/>
<path d="M762.557 440.656C768.433 440.656 773.197 435.892 773.197 430.016C773.197 424.14 768.433 419.377 762.557 419.377C756.681 419.377 751.918 424.14 751.918 430.016C751.918 435.892 756.681 440.656 762.557 440.656Z" fill="#3188E5" stroke="black" stroke-width="0.032522"/>
<path d="M1010.84 415.847C1016.71 415.847 1021.48 411.084 1021.48 405.208C1021.48 399.332 1016.71 394.568 1010.84 394.568C1004.96 394.568 1000.2 399.332 1000.2 405.208C1000.2 411.084 1004.96 415.847 1010.84 415.847Z" fill="#3188E5" stroke="black" stroke-width="0.032522"/>
<path d="M886.696 415.847C892.572 415.847 897.336 411.084 897.336 405.208C897.336 399.332 892.572 394.568 886.696 394.568C880.82 394.568 876.057 399.332 876.057 405.208C876.057 411.084 880.82 415.847 886.696 415.847Z" fill="#3188E5" stroke="black" stroke-width="0.032522"/>
<path d="M688.128 440.656C694.004 440.656 698.767 435.892 698.767 430.016C698.767 424.14 694.004 419.377 688.128 419.377C682.252 419.377 677.488 424.14 677.488 430.016C677.488 435.892 682.252 440.656 688.128 440.656Z" fill="#3188E5" stroke="black" stroke-width="0.032522"/>
<path d="M1234.32 415.847C1240.19 415.847 1244.96 411.084 1244.96 405.208C1244.96 399.332 1240.19 394.568 1234.32 394.568C1228.44 394.568 1223.68 399.332 1223.68 405.208C1223.68 411.084 1228.44 415.847 1234.32 415.847Z" fill="#3188E5" stroke="black" stroke-width="0.032522"/>
<path d="M1209.51 415.847C1215.38 415.847 1220.15 411.084 1220.15 405.208C1220.15 399.332 1215.38 394.568 1209.51 394.568C1203.63 394.568 1198.87 399.332 1198.87 405.208C1198.87 411.084 1203.63 415.847 1209.51 415.847Z" fill="#3188E5" stroke="black" stroke-width="0.032522"/>
<path d="M1184.6 415.847C1190.48 415.847 1195.24 411.084 1195.24 405.208C1195.24 399.332 1190.48 394.568 1184.6 394.568C1178.73 394.568 1173.96 399.332 1173.96 405.208C1173.96 411.084 1178.73 415.847 1184.6 415.847Z" fill="#3188E5" stroke="black" stroke-width="0.032522"/>
<path d="M1159.79 415.847C1165.67 415.847 1170.43 411.084 1170.43 405.208C1170.43 399.332 1165.67 394.568 1159.79 394.568C1153.92 394.568 1149.15 399.332 1149.15 405.208C1149.15 411.084 1153.92 415.847 1159.79 415.847Z" fill="#3188E5" stroke="black" stroke-width="0.032522"/>
<path d="M1134.98 415.847C1140.86 415.847 1145.62 411.084 1145.62 405.208C1145.62 399.332 1140.86 394.568 1134.98 394.568C1129.11 394.568 1124.34 399.332 1124.34 405.208C1124.34 411.084 1129.11 415.847 1134.98 415.847Z" fill="#3188E5" stroke="black" stroke-width="0.032522"/>
<path d="M1110.17 415.847C1116.05 415.847 1120.81 411.084 1120.81 405.208C1120.81 399.332 1116.05 394.568 1110.17 394.568C1104.3 394.568 1099.54 399.332 1099.54 405.208C1099.54 411.084 1104.3 415.847 1110.17 415.847Z" fill="#3188E5" stroke="black" stroke-width="0.032522"/>
<path d="M1085.37 415.847C1091.24 415.847 1096.01 411.084 1096.01 405.208C1096.01 399.332 1091.24 394.568 1085.37 394.568C1079.49 394.568 1074.73 399.332 1074.73 405.208C1074.73 411.084 1079.49 415.847 1085.37 415.847Z" fill="#3188E5" stroke="black" stroke-width="0.032522"/>
<path d="M1060.46 415.847C1066.33 415.847 1071.1 411.084 1071.1 405.208C1071.1 399.332 1066.33 394.568 1060.46 394.568C1054.58 394.568 1049.82 399.332 1049.82 405.208C1049.82 411.084 1054.58 415.847 1060.46 415.847Z" fill="#3188E5" stroke="black" stroke-width="0.032522"/>
<path d="M1035.65 415.847C1041.53 415.847 1046.29 411.084 1046.29 405.208C1046.29 399.332 1041.53 394.568 1035.65 394.568C1029.78 394.568 1025.01 399.332 1025.01 405.208C1025.01 411.084 1029.78 415.847 1035.65 415.847Z" fill="#3188E5" stroke="black" stroke-width="0.032522"/>
<path d="M986.032 415.847C991.908 415.847 996.672 411.084 996.672 405.208C996.672 399.332 991.908 394.568 986.032 394.568C980.156 394.568 975.393 399.332 975.393 405.208C975.393 411.084 980.156 415.847 986.032 415.847Z" fill="#3188E5" stroke="black" stroke-width="0.032522"/>
<path d="M936.417 415.847C942.293 415.847 947.056 411.084 947.056 405.208C947.056 399.332 942.293 394.568 936.417 394.568C930.541 394.568 925.777 399.332 925.777 405.208C925.777 411.084 930.541 415.847 936.417 415.847Z" fill="#3188E5" stroke="black" stroke-width="0.032522"/>
<path d="M911.511 415.847C917.387 415.847 922.15 411.084 922.15 405.208C922.15 399.332 917.387 394.568 911.511 394.568C905.635 394.568 900.871 399.332 900.871 405.208C900.871 411.084 905.635 415.847 911.511 415.847Z" fill="#3188E5" stroke="black" stroke-width="0.032522"/>
<path d="M762.557 415.847C768.433 415.847 773.197 411.084 773.197 405.208C773.197 399.332 768.433 394.568 762.557 394.568C756.681 394.568 751.918 399.332 751.918 405.208C751.918 411.084 756.681 415.847 762.557 415.847Z" fill="#3188E5" stroke="black" stroke-width="0.032522"/>
<path d="M712.938 415.847C718.814 415.847 723.578 411.084 723.578 405.208C723.578 399.332 718.814 394.568 712.938 394.568C707.062 394.568 702.299 399.332 702.299 405.208C702.299 411.084 707.062 415.847 712.938 415.847Z" fill="#3188E5" stroke="black" stroke-width="0.032522"/>
<path d="M787.466 415.847C793.342 415.847 798.105 411.084 798.105 405.208C798.105 399.332 793.342 394.568 787.466 394.568C781.59 394.568 776.826 399.332 776.826 405.208C776.826 411.084 781.59 415.847 787.466 415.847Z" fill="#3188E5" stroke="black" stroke-width="0.032522"/>
<path d="M737.743 415.847C743.619 415.847 748.383 411.084 748.383 405.208C748.383 399.332 743.619 394.568 737.743 394.568C731.867 394.568 727.104 399.332 727.104 405.208C727.104 411.084 731.867 415.847 737.743 415.847Z" fill="#3188E5" stroke="black" stroke-width="0.032522"/>
<path d="M1234.32 391.041C1240.19 391.041 1244.96 386.277 1244.96 380.401C1244.96 374.525 1240.19 369.762 1234.32 369.762C1228.44 369.762 1223.68 374.525 1223.68 380.401C1223.68 386.277 1228.44 391.041 1234.32 391.041Z" fill="#3188E5" stroke="black" stroke-width="0.032522"/>
<path d="M1060.46 391.041C1066.33 391.041 1071.1 386.277 1071.1 380.401C1071.1 374.525 1066.33 369.762 1060.46 369.762C1054.58 369.762 1049.82 374.525 1049.82 380.401C1049.82 386.277 1054.58 391.041 1060.46 391.041Z" fill="#3188E5" stroke="black" stroke-width="0.032522"/>
<path d="M1010.84 391.041C1016.71 391.041 1021.48 386.277 1021.48 380.401C1021.48 374.525 1016.71 369.762 1010.84 369.762C1004.96 369.762 1000.2 374.525 1000.2 380.401C1000.2 386.277 1004.96 391.041 1010.84 391.041Z" fill="#3188E5" stroke="black" stroke-width="0.032522"/>
<path d="M1184.6 391.041C1190.48 391.041 1195.24 386.277 1195.24 380.401C1195.24 374.525 1190.48 369.762 1184.6 369.762C1178.73 369.762 1173.96 374.525 1173.96 380.401C1173.96 386.277 1178.73 391.041 1184.6 391.041Z" fill="#3188E5" stroke="black" stroke-width="0.032522"/>
<path d="M1134.98 391.041C1140.86 391.041 1145.62 386.277 1145.62 380.401C1145.62 374.525 1140.86 369.762 1134.98 369.762C1129.11 369.762 1124.34 374.525 1124.34 380.401C1124.34 386.277 1129.11 391.041 1134.98 391.041Z" fill="#3188E5" stroke="black" stroke-width="0.032522"/>
<path d="M1110.17 391.041C1116.05 391.041 1120.81 386.277 1120.81 380.401C1120.81 374.525 1116.05 369.762 1110.17 369.762C1104.3 369.762 1099.54 374.525 1099.54 380.401C1099.54 386.277 1104.3 391.041 1110.17 391.041Z" fill="#3188E5" stroke="black" stroke-width="0.032522"/>
<path d="M1085.37 391.041C1091.24 391.041 1096.01 386.277 1096.01 380.401C1096.01 374.525 1091.24 369.762 1085.37 369.762C1079.49 369.762 1074.73 374.525 1074.73 380.401C1074.73 386.277 1079.49 391.041 1085.37 391.041Z" fill="#3188E5" stroke="black" stroke-width="0.032522"/>
<path d="M1035.65 391.041C1041.53 391.041 1046.29 386.277 1046.29 380.401C1046.29 374.525 1041.53 369.762 1035.65 369.762C1029.78 369.762 1025.01 374.525 1025.01 380.401C1025.01 386.277 1029.78 391.041 1035.65 391.041Z" fill="#3188E5" stroke="black" stroke-width="0.032522"/>
<path d="M961.223 391.041C967.1 391.041 971.863 386.277 971.863 380.401C971.863 374.525 967.1 369.762 961.223 369.762C955.347 369.762 950.584 374.525 950.584 380.401C950.584 386.277 955.347 391.041 961.223 391.041Z" fill="#3188E5" stroke="black" stroke-width="0.032522"/>
<path d="M936.417 391.041C942.293 391.041 947.056 386.277 947.056 380.401C947.056 374.525 942.293 369.762 936.417 369.762C930.541 369.762 925.777 374.525 925.777 380.401C925.777 386.277 930.541 391.041 936.417 391.041Z" fill="#3188E5" stroke="black" stroke-width="0.032522"/>
<path d="M911.511 391.041C917.387 391.041 922.15 386.277 922.15 380.401C922.15 374.525 917.387 369.762 911.511 369.762C905.635 369.762 900.871 374.525 900.871 380.401C900.871 386.277 905.635 391.041 911.511 391.041Z" fill="#3188E5" stroke="black" stroke-width="0.032522"/>
<path d="M1184.6 366.226C1190.48 366.226 1195.24 361.463 1195.24 355.587C1195.24 349.711 1190.48 344.947 1184.6 344.947C1178.73 344.947 1173.96 349.711 1173.96 355.587C1173.96 361.463 1178.73 366.226 1184.6 366.226Z" fill="#3188E5" stroke="black" stroke-width="0.032522"/>
<path d="M762.557 341.422C768.433 341.422 773.197 336.658 773.197 330.782C773.197 324.906 768.433 320.143 762.557 320.143C756.681 320.143 751.918 324.906 751.918 330.782C751.918 336.658 756.681 341.422 762.557 341.422Z" fill="#3188E5" stroke="black" stroke-width="0.032522"/>
<path d="M737.743 391.041C743.619 391.041 748.383 386.277 748.383 380.401C748.383 374.525 743.619 369.762 737.743 369.762C731.867 369.762 727.104 374.525 727.104 380.401C727.104 386.277 731.867 391.041 737.743 391.041Z" fill="#3188E5" stroke="black" stroke-width="0.032522"/>
<path d="M762.557 366.226C768.433 366.226 773.197 361.463 773.197 355.587C773.197 349.711 768.433 344.947 762.557 344.947C756.681 344.947 751.918 349.711 751.918 355.587C751.918 361.463 756.681 366.226 762.557 366.226Z" fill="#3188E5" stroke="black" stroke-width="0.032522"/>
<path d="M961.223 366.226C967.1 366.226 971.863 361.463 971.863 355.587C971.863 349.711 967.1 344.947 961.223 344.947C955.347 344.947 950.584 349.711 950.584 355.587C950.584 361.463 955.347 366.226 961.223 366.226Z" fill="#3188E5" stroke="black" stroke-width="0.032522"/>
<path d="M936.417 366.226C942.293 366.226 947.056 361.463 947.056 355.587C947.056 349.711 942.293 344.947 936.417 344.947C930.541 344.947 925.777 349.711 925.777 355.587C925.777 361.463 930.541 366.226 936.417 366.226Z" fill="#3188E5" stroke="black" stroke-width="0.032522"/>
<path d="M911.511 366.226C917.387 366.226 922.15 361.463 922.15 355.587C922.15 349.711 917.387 344.947 911.511 344.947C905.635 344.947 900.871 349.711 900.871 355.587C900.871 361.463 905.635 366.226 911.511 366.226Z" fill="#3188E5" stroke="black" stroke-width="0.032522"/>
<path d="M737.743 366.226C743.619 366.226 748.383 361.463 748.383 355.587C748.383 349.711 743.619 344.947 737.743 344.947C731.867 344.947 727.104 349.711 727.104 355.587C727.104 361.463 731.867 366.226 737.743 366.226Z" fill="#3188E5" stroke="black" stroke-width="0.032522"/>
<path d="M961.223 316.611C967.1 316.611 971.863 311.848 971.863 305.972C971.863 300.095 967.1 295.332 961.223 295.332C955.347 295.332 950.584 300.095 950.584 305.972C950.584 311.848 955.347 316.611 961.223 316.611Z" fill="#3188E5" stroke="black" stroke-width="0.032522"/>
<path d="M911.511 341.422C917.387 341.422 922.15 336.658 922.15 330.782C922.15 324.906 917.387 320.143 911.511 320.143C905.635 320.143 900.871 324.906 900.871 330.782C900.871 336.658 905.635 341.422 911.511 341.422Z" fill="#3188E5" stroke="black" stroke-width="0.032522"/>
<path d="M737.743 341.422C743.619 341.422 748.383 336.658 748.383 330.782C748.383 324.906 743.619 320.143 737.743 320.143C731.867 320.143 727.104 324.906 727.104 330.782C727.104 336.658 731.867 341.422 737.743 341.422Z" fill="#3188E5" stroke="black" stroke-width="0.032522"/>
<path d="M712.938 341.422C718.814 341.422 723.578 336.658 723.578 330.782C723.578 324.906 718.814 320.143 712.938 320.143C707.062 320.143 702.299 324.906 702.299 330.782C702.299 336.658 707.062 341.422 712.938 341.422Z" fill="#3188E5" stroke="black" stroke-width="0.032522"/>
<path d="M688.128 341.422C694.004 341.422 698.767 336.658 698.767 330.782C698.767 324.906 694.004 320.143 688.128 320.143C682.252 320.143 677.488 324.906 677.488 330.782C677.488 336.658 682.252 341.422 688.128 341.422Z" fill="#3188E5" stroke="black" stroke-width="0.032522"/>
<path d="M712.938 316.611C718.814 316.611 723.578 311.848 723.578 305.972C723.578 300.095 718.814 295.332 712.938 295.332C707.062 295.332 702.299 300.095 702.299 305.972C702.299 311.848 707.062 316.611 712.938 316.611Z" fill="#3188E5" stroke="black" stroke-width="0.032522"/>
<path d="M688.128 316.611C694.004 316.611 698.767 311.848 698.767 305.972C698.767 300.095 694.004 295.332 688.128 295.332C682.252 295.332 677.488 300.095 677.488 305.972C677.488 311.848 682.252 316.611 688.128 316.611Z" fill="#3188E5" stroke="black" stroke-width="0.032522"/>
<path d="M663.2 316.611C669.076 316.611 673.84 311.848 673.84 305.972C673.84 300.095 669.076 295.332 663.2 295.332C657.324 295.332 652.561 300.095 652.561 305.972C652.561 311.848 657.324 316.611 663.2 316.611Z" fill="#3188E5" stroke="black" stroke-width="0.032522"/>
<path d="M762.557 316.611C768.433 316.611 773.197 311.848 773.197 305.972C773.197 300.095 768.433 295.332 762.557 295.332C756.681 295.332 751.918 300.095 751.918 305.972C751.918 311.848 756.681 316.611 762.557 316.611Z" fill="#3188E5" stroke="black" stroke-width="0.032522"/>
<path d="M1060.46 291.705C1066.33 291.705 1071.1 286.941 1071.1 281.065C1071.1 275.189 1066.33 270.426 1060.46 270.426C1054.58 270.426 1049.82 275.189 1049.82 281.065C1049.82 286.941 1054.58 291.705 1060.46 291.705Z" fill="#3188E5" stroke="black" stroke-width="0.032522"/>
<path d="M961.223 291.705C967.1 291.705 971.863 286.941 971.863 281.065C971.863 275.189 967.1 270.426 961.223 270.426C955.347 270.426 950.584 275.189 950.584 281.065C950.584 286.941 955.347 291.705 961.223 291.705Z" fill="#3188E5" stroke="black" stroke-width="0.032522"/>
<path d="M911.511 291.705C917.387 291.705 922.15 286.941 922.15 281.065C922.15 275.189 917.387 270.426 911.511 270.426C905.635 270.426 900.871 275.189 900.871 281.065C900.871 286.941 905.635 291.705 911.511 291.705Z" fill="#3188E5" stroke="black" stroke-width="0.032522"/>
<path d="M936.417 291.705C942.293 291.705 947.056 286.941 947.056 281.065C947.056 275.189 942.293 270.426 936.417 270.426C930.541 270.426 925.777 275.189 925.777 281.065C925.777 286.941 930.541 291.705 936.417 291.705Z" fill="#3188E5" stroke="black" stroke-width="0.032522"/>
<path d="M1234.32 266.894C1240.19 266.894 1244.96 262.131 1244.96 256.255C1244.96 250.379 1240.19 245.615 1234.32 245.615C1228.44 245.615 1223.68 250.379 1223.68 256.255C1223.68 262.131 1228.44 266.894 1234.32 266.894Z" fill="#3188E5" stroke="black" stroke-width="0.032522"/>
<path d="M762.557 291.705C768.433 291.705 773.197 286.941 773.197 281.065C773.197 275.189 768.433 270.426 762.557 270.426C756.681 270.426 751.918 275.189 751.918 281.065C751.918 286.941 756.681 291.705 762.557 291.705Z" fill="#3188E5" stroke="black" stroke-width="0.032522"/>
<path d="M861.895 291.705C867.771 291.705 872.535 286.941 872.535 281.065C872.535 275.189 867.771 270.426 861.895 270.426C856.019 270.426 851.256 275.189 851.256 281.065C851.256 286.941 856.019 291.705 861.895 291.705Z" fill="#3188E5" stroke="black" stroke-width="0.032522"/>
<path d="M858.233 314.194C862.086 314.194 865.21 311.071 865.21 307.217C865.21 303.364 862.086 300.24 858.233 300.24C854.38 300.24 851.256 303.364 851.256 307.217C851.256 311.071 854.38 314.194 858.233 314.194Z" fill="#3188E5" stroke="black" stroke-width="0.0213271"/>
<path d="M858.233 414.263C862.086 414.263 865.21 411.139 865.21 407.286C865.21 403.432 862.086 400.309 858.233 400.309C854.38 400.309 851.256 403.432 851.256 407.286C851.256 411.139 854.38 414.263 858.233 414.263Z" fill="#3188E5" stroke="black" stroke-width="0.0213271"/>
<path d="M888.864 339.21C892.717 339.21 895.841 336.086 895.841 332.233C895.841 328.38 892.717 325.256 888.864 325.256C885.01 325.256 881.887 328.38 881.887 332.233C881.887 336.086 885.01 339.21 888.864 339.21Z" fill="#3188E5" stroke="black" stroke-width="0.0213271"/>
<path d="M784.626 339.21C788.479 339.21 791.603 336.086 791.603 332.233C791.603 328.38 788.479 325.256 784.626 325.256C780.772 325.256 777.648 328.38 777.648 332.233C777.648 336.086 780.772 339.21 784.626 339.21Z" fill="#3188E5" stroke="black" stroke-width="0.0213271"/>
<path d="M888.864 382.991C892.717 382.991 895.841 379.868 895.841 376.014C895.841 372.161 892.717 369.037 888.864 369.037C885.01 369.037 881.887 372.161 881.887 376.014C881.887 379.868 885.01 382.991 888.864 382.991Z" fill="#3188E5" stroke="black" stroke-width="0.0213271"/>
<path d="M784.626 382.991C788.479 382.991 791.603 379.868 791.603 376.014C791.603 372.161 788.479 369.037 784.626 369.037C780.772 369.037 777.648 372.161 777.648 376.014C777.648 379.868 780.772 382.991 784.626 382.991Z" fill="#3188E5" stroke="black" stroke-width="0.0213271"/>
<path d="M815.897 314.194C819.75 314.194 822.874 311.071 822.874 307.217C822.874 303.364 819.75 300.24 815.897 300.24C812.044 300.24 808.92 303.364 808.92 307.217C808.92 311.071 812.044 314.194 815.897 314.194Z" fill="#3188E5" stroke="black" stroke-width="0.0213271"/>
<path d="M815.897 414.263C819.75 414.263 822.874 411.139 822.874 407.286C822.874 403.432 819.75 400.309 815.897 400.309C812.044 400.309 808.92 403.432 808.92 407.286C808.92 411.139 812.044 414.263 815.897 414.263Z" fill="#3188E5" stroke="black" stroke-width="0.0213271"/>
<path d="M837.081 291.705C842.957 291.705 847.72 286.941 847.72 281.065C847.72 275.189 842.957 270.426 837.081 270.426C831.205 270.426 826.441 275.189 826.441 281.065C826.441 286.941 831.205 291.705 837.081 291.705Z" fill="#3188E5" stroke="black" stroke-width="0.032522"/>
<path d="M812.27 291.705C818.146 291.705 822.91 286.941 822.91 281.065C822.91 275.189 818.146 270.426 812.27 270.426C806.394 270.426 801.631 275.189 801.631 281.065C801.631 286.941 806.394 291.705 812.27 291.705Z" fill="#3188E5" stroke="black" stroke-width="0.032522"/>
<path d="M1184.6 266.894C1190.48 266.894 1195.24 262.131 1195.24 256.255C1195.24 250.379 1190.48 245.615 1184.6 245.615C1178.73 245.615 1173.96 250.379 1173.96 256.255C1173.96 262.131 1178.73 266.894 1184.6 266.894Z" fill="#3188E5" stroke="black" stroke-width="0.032522"/>
<path d="M1085.37 266.894C1091.24 266.894 1096.01 262.131 1096.01 256.255C1096.01 250.379 1091.24 245.615 1085.37 245.615C1079.49 245.615 1074.73 250.379 1074.73 256.255C1074.73 262.131 1079.49 266.894 1085.37 266.894Z" fill="#3188E5" stroke="black" stroke-width="0.032522"/>
<path d="M1134.98 266.894C1140.86 266.894 1145.62 262.131 1145.62 256.255C1145.62 250.379 1140.86 245.615 1134.98 245.615C1129.11 245.615 1124.34 250.379 1124.34 256.255C1124.34 262.131 1129.11 266.894 1134.98 266.894Z" fill="#3188E5" stroke="black" stroke-width="0.032522"/>
<path d="M1060.46 266.894C1066.33 266.894 1071.1 262.131 1071.1 256.255C1071.1 250.379 1066.33 245.615 1060.46 245.615C1054.58 245.615 1049.82 250.379 1049.82 256.255C1049.82 262.131 1054.58 266.894 1060.46 266.894Z" fill="#3188E5" stroke="black" stroke-width="0.032522"/>
<path d="M1035.65 266.894C1041.53 266.894 1046.29 262.131 1046.29 256.255C1046.29 250.379 1041.53 245.615 1035.65 245.615C1029.78 245.615 1025.01 250.379 1025.01 256.255C1025.01 262.131 1029.78 266.894 1035.65 266.894Z" fill="#3188E5" stroke="black" stroke-width="0.032522"/>
<path d="M1010.84 266.894C1016.71 266.894 1021.48 262.131 1021.48 256.255C1021.48 250.379 1016.71 245.615 1010.84 245.615C1004.96 245.615 1000.2 250.379 1000.2 256.255C1000.2 262.131 1004.96 266.894 1010.84 266.894Z" fill="#3188E5" stroke="black" stroke-width="0.032522"/>
<path d="M986.032 266.894C991.908 266.894 996.672 262.131 996.672 256.255C996.672 250.379 991.908 245.615 986.032 245.615C980.156 245.615 975.393 250.379 975.393 256.255C975.393 262.131 980.156 266.894 986.032 266.894Z" fill="#3188E5" stroke="black" stroke-width="0.032522"/>
<path d="M961.223 266.894C967.1 266.894 971.863 262.131 971.863 256.255C971.863 250.379 967.1 245.615 961.223 245.615C955.347 245.615 950.584 250.379 950.584 256.255C950.584 262.131 955.347 266.894 961.223 266.894Z" fill="#3188E5" stroke="black" stroke-width="0.032522"/>
<path d="M936.417 266.894C942.293 266.894 947.056 262.131 947.056 256.255C947.056 250.379 942.293 245.615 936.417 245.615C930.541 245.615 925.777 250.379 925.777 256.255C925.777 262.131 930.541 266.894 936.417 266.894Z" fill="#3188E5" stroke="black" stroke-width="0.032522"/>
<path d="M911.511 266.894C917.387 266.894 922.15 262.131 922.15 256.255C922.15 250.379 917.387 245.615 911.511 245.615C905.635 245.615 900.871 250.379 900.871 256.255C900.871 262.131 905.635 266.894 911.511 266.894Z" fill="#3188E5" stroke="black" stroke-width="0.032522"/>
<path d="M886.696 266.894C892.572 266.894 897.336 262.131 897.336 256.255C897.336 250.379 892.572 245.615 886.696 245.615C880.82 245.615 876.057 250.379 876.057 256.255C876.057 262.131 880.82 266.894 886.696 266.894Z" fill="#3188E5" stroke="black" stroke-width="0.032522"/>
<path d="M861.895 266.894C867.771 266.894 872.535 262.131 872.535 256.255C872.535 250.379 867.771 245.615 861.895 245.615C856.019 245.615 851.256 250.379 851.256 256.255C851.256 262.131 856.019 266.894 861.895 266.894Z" fill="#3188E5" stroke="black" stroke-width="0.032522"/>
<path d="M837.081 266.894C842.957 266.894 847.72 262.131 847.72 256.255C847.72 250.379 842.957 245.615 837.081 245.615C831.205 245.615 826.441 250.379 826.441 256.255C826.441 262.131 831.205 266.894 837.081 266.894Z" fill="#3188E5" stroke="black" stroke-width="0.032522"/>
<path d="M812.27 266.894C818.146 266.894 822.91 262.131 822.91 256.255C822.91 250.379 818.146 245.615 812.27 245.615C806.394 245.615 801.631 250.379 801.631 256.255C801.631 262.131 806.394 266.894 812.27 266.894Z" fill="#3188E5" stroke="black" stroke-width="0.032522"/>
<path d="M787.466 266.894C793.342 266.894 798.105 262.131 798.105 256.255C798.105 250.379 793.342 245.615 787.466 245.615C781.59 245.615 776.826 250.379 776.826 256.255C776.826 262.131 781.59 266.894 787.466 266.894Z" fill="#3188E5" stroke="black" stroke-width="0.032522"/>
<path d="M1184.6 242.086C1190.48 242.086 1195.24 237.322 1195.24 231.446C1195.24 225.57 1190.48 220.807 1184.6 220.807C1178.73 220.807 1173.96 225.57 1173.96 231.446C1173.96 237.322 1178.73 242.086 1184.6 242.086Z" fill="#3188E5" stroke="black" stroke-width="0.032522"/>
<path d="M1159.79 242.086C1165.67 242.086 1170.43 237.322 1170.43 231.446C1170.43 225.57 1165.67 220.807 1159.79 220.807C1153.92 220.807 1149.15 225.57 1149.15 231.446C1149.15 237.322 1153.92 242.086 1159.79 242.086Z" fill="#3188E5" stroke="black" stroke-width="0.032522"/>
<path d="M1134.98 242.086C1140.86 242.086 1145.62 237.322 1145.62 231.446C1145.62 225.57 1140.86 220.807 1134.98 220.807C1129.11 220.807 1124.34 225.57 1124.34 231.446C1124.34 237.322 1129.11 242.086 1134.98 242.086Z" fill="#3188E5" stroke="black" stroke-width="0.032522"/>
<path d="M1110.17 242.086C1116.05 242.086 1120.81 237.322 1120.81 231.446C1120.81 225.57 1116.05 220.807 1110.17 220.807C1104.3 220.807 1099.54 225.57 1099.54 231.446C1099.54 237.322 1104.3 242.086 1110.17 242.086Z" fill="#3188E5" stroke="black" stroke-width="0.032522"/>
<path d="M1085.37 242.086C1091.24 242.086 1096.01 237.322 1096.01 231.446C1096.01 225.57 1091.24 220.807 1085.37 220.807C1079.49 220.807 1074.73 225.57 1074.73 231.446C1074.73 237.322 1079.49 242.086 1085.37 242.086Z" fill="#3188E5" stroke="black" stroke-width="0.032522"/>
<path d="M1060.46 242.086C1066.33 242.086 1071.1 237.322 1071.1 231.446C1071.1 225.57 1066.33 220.807 1060.46 220.807C1054.58 220.807 1049.82 225.57 1049.82 231.446C1049.82 237.322 1054.58 242.086 1060.46 242.086Z" fill="#3188E5" stroke="black" stroke-width="0.032522"/>
<path d="M1035.65 242.086C1041.53 242.086 1046.29 237.322 1046.29 231.446C1046.29 225.57 1041.53 220.807 1035.65 220.807C1029.78 220.807 1025.01 225.57 1025.01 231.446C1025.01 237.322 1029.78 242.086 1035.65 242.086Z" fill="#3188E5" stroke="black" stroke-width="0.032522"/>
<path d="M1010.84 242.086C1016.71 242.086 1021.48 237.322 1021.48 231.446C1021.48 225.57 1016.71 220.807 1010.84 220.807C1004.96 220.807 1000.2 225.57 1000.2 231.446C1000.2 237.322 1004.96 242.086 1010.84 242.086Z" fill="#3188E5" stroke="black" stroke-width="0.032522"/>
<path d="M986.032 242.086C991.908 242.086 996.672 237.322 996.672 231.446C996.672 225.57 991.908 220.807 986.032 220.807C980.156 220.807 975.393 225.57 975.393 231.446C975.393 237.322 980.156 242.086 986.032 242.086Z" fill="#3188E5" stroke="black" stroke-width="0.032522"/>
<path d="M936.417 242.086C942.293 242.086 947.056 237.322 947.056 231.446C947.056 225.57 942.293 220.807 936.417 220.807C930.541 220.807 925.777 225.57 925.777 231.446C925.777 237.322 930.541 242.086 936.417 242.086Z" fill="#3188E5" stroke="black" stroke-width="0.032522"/>
<path d="M911.511 242.086C917.387 242.086 922.15 237.322 922.15 231.446C922.15 225.57 917.387 220.807 911.511 220.807C905.635 220.807 900.871 225.57 900.871 231.446C900.871 237.322 905.635 242.086 911.511 242.086Z" fill="#3188E5" stroke="black" stroke-width="0.032522"/>
<path d="M886.696 242.086C892.572 242.086 897.336 237.322 897.336 231.446C897.336 225.57 892.572 220.807 886.696 220.807C880.82 220.807 876.057 225.57 876.057 231.446C876.057 237.322 880.82 242.086 886.696 242.086Z" fill="#3188E5" stroke="black" stroke-width="0.032522"/>
<path d="M861.895 242.086C867.771 242.086 872.535 237.322 872.535 231.446C872.535 225.57 867.771 220.807 861.895 220.807C856.019 220.807 851.256 225.57 851.256 231.446C851.256 237.322 856.019 242.086 861.895 242.086Z" fill="#3188E5" stroke="black" stroke-width="0.032522"/>
<path d="M837.081 242.086C842.957 242.086 847.72 237.322 847.72 231.446C847.72 225.57 842.957 220.807 837.081 220.807C831.205 220.807 826.441 225.57 826.441 231.446C826.441 237.322 831.205 242.086 837.081 242.086Z" fill="#3188E5" stroke="black" stroke-width="0.032522"/>
<path d="M812.27 242.086C818.146 242.086 822.91 237.322 822.91 231.446C822.91 225.57 818.146 220.807 812.27 220.807C806.394 220.807 801.631 225.57 801.631 231.446C801.631 237.322 806.394 242.086 812.27 242.086Z" fill="#3188E5" stroke="black" stroke-width="0.032522"/>
<path d="M787.466 242.086C793.342 242.086 798.105 237.322 798.105 231.446C798.105 225.57 793.342 220.807 787.466 220.807C781.59 220.807 776.826 225.57 776.826 231.446C776.826 237.322 781.59 242.086 787.466 242.086Z" fill="#3188E5" stroke="black" stroke-width="0.032522"/>
<path d="M787.466 217.279C793.342 217.279 798.105 212.516 798.105 206.639C798.105 200.763 793.342 196 787.466 196C781.59 196 776.826 200.763 776.826 206.639C776.826 212.516 781.59 217.279 787.466 217.279Z" fill="#3188E5" stroke="black" stroke-width="0.032522"/>
<path d="M780.311 350.328C808.806 350.328 831.906 327.228 831.906 298.732H842.226C842.226 327.228 865.326 350.328 893.821 350.328V360.647C865.326 360.647 842.226 383.748 842.226 412.243H831.906C831.906 383.748 808.806 360.647 780.311 360.647V350.328Z" fill="#FF0048"/>
<path d="M800.581 311.706C820.73 331.856 853.399 331.856 873.548 311.706L880.845 319.003C860.696 339.153 860.696 371.821 880.845 391.971L873.548 399.267C853.399 379.118 820.73 379.118 800.581 399.267L793.284 391.971C813.433 371.821 813.433 339.153 793.284 319.003L800.581 311.706Z" fill="#FF0048"/>
</svg>