<?xml version="1.0" encoding="UTF-8"?>
<svg xmlns="http://www.w3.org/2000/svg" xmlns:xlink="http://www.w3.org/1999/xlink" width="1200px" height="259px" viewBox="0 0 1199 259" version="1.1">
<g id="surface1">
<path style=" stroke:none;fill-rule:nonzero;fill:rgb(11.764706%,16.078432%,23.137255%);fill-opacity:1;" d="M 156.046875 200.628906 C 134.871094 192.753906 113.097656 191.550781 93.140625 197 C 79.226562 200.628906 65.925781 207.890625 53.828125 216.96875 L 45.367188 224.234375 L 42.945312 226.65625 L 48.386719 231.5 C 48.996094 231.5 48.996094 232.105469 49.59375 232.714844 C 50.808594 233.917969 52.015625 234.527344 53.828125 235.742188 L 57.457031 238.164062 L 61.09375 235.136719 C 61.691406 234.527344 62.90625 233.320312 64.113281 232.714844 C 75.003906 223.636719 87.089844 217.578125 99.796875 214.546875 C 116.125 210.3125 133.664062 210.921875 151.203125 217.578125 C 165.71875 223.027344 195.355469 229.683594 231.039062 214.546875 L 232.246094 213.949219 L 234.058594 212.128906 C 234.058594 211.527344 234.664062 211.527344 235.265625 210.921875 C 238.292969 207.285156 241.3125 203.65625 243.734375 199.421875 L 255.832031 180.648438 L 236.480469 191.550781 C 208.050781 207.285156 182.042969 210.3125 156.046875 200.628906 Z M 156.046875 200.628906 "/>
<path style=" stroke:none;fill-rule:nonzero;fill:rgb(11.764706%,16.078432%,23.137255%);fill-opacity:1;" d="M 73.179688 135.25 C 89.511719 131.015625 107.050781 131.621094 124.585938 138.277344 C 143.9375 145.542969 193.53125 155.835938 249.175781 105.59375 L 258.253906 96.507812 L 261.273438 93.488281 L 260.066406 90.457031 C 259.457031 88.035156 258.253906 85.007812 257.035156 81.980469 L 254.015625 73.507812 L 247.96875 79.558594 C 247.359375 80.773438 246.15625 81.378906 244.941406 82.585938 C 218.335938 109.828125 177.210938 137.671875 130.027344 120.722656 C 108.863281 112.859375 87.089844 111.644531 67.132812 117.09375 C 47.78125 122.542969 30.851562 132.828125 15.125 147.355469 L 15.125 146.757812 L 6.046875 156.445312 C 6.046875 157.042969 5.449219 157.042969 4.84375 157.648438 L 3.027344 159.464844 L 3.628906 161.886719 C 4.234375 164.914062 5.441406 167.945312 6.046875 170.972656 L 9.675781 180.648438 L 15.722656 172.785156 C 16.332031 171.570312 17.539062 170.972656 18.144531 169.757812 C 30.851562 158.257812 48.386719 141.90625 73.179688 135.25 Z M 73.179688 135.25 "/>
<path style=" stroke:none;fill-rule:nonzero;fill:rgb(11.764706%,16.078432%,23.137255%);fill-opacity:1;" d="M 173.574219 241.792969 L 172.359375 245.429688 L 173.574219 241.792969 C 171.761719 241.191406 170.542969 240.585938 168.730469 239.976562 C 147.566406 232.105469 125.792969 230.898438 105.835938 236.351562 C 101.597656 237.554688 97.363281 238.773438 93.140625 240.585938 L 78.621094 247.242188 L 74.992188 249.054688 L 87.089844 253.300781 C 90.71875 254.507812 94.34375 255.722656 97.972656 256.929688 L 99.785156 257.535156 L 101.597656 256.929688 C 103.414062 256.320312 105.226562 255.113281 107.050781 255.113281 C 108.253906 255.113281 109.460938 254.507812 110.675781 253.898438 C 125.1875 250.269531 140.910156 250.269531 157.847656 255.722656 C 159.664062 256.320312 160.867188 256.929688 162.683594 257.535156 L 165.710938 258.742188 L 167.523438 258.144531 C 171.761719 256.929688 176.59375 255.722656 180.230469 253.898438 L 197.160156 247.851562 L 179.621094 243.613281 C 177.808594 243.007812 175.386719 242.398438 173.574219 241.792969 Z M 173.574219 241.792969 "/>
<path style=" stroke:none;fill-rule:nonzero;fill:rgb(11.764706%,16.078432%,23.137255%);fill-opacity:1;" d="M 266.113281 116.484375 L 257.035156 125.5625 C 255.832031 126.769531 254.617188 127.984375 253.410156 129.191406 C 228.609375 152.808594 188.699219 178.226562 143.9375 161.277344 C 122.773438 153.40625 101 152.199219 81.042969 157.648438 C 62.296875 163.089844 45.359375 172.777344 30.242188 187.304688 L 22.378906 195.785156 L 19.960938 198.8125 L 22.378906 202.441406 C 24.195312 204.863281 25.398438 206.675781 26.613281 209.097656 L 30.242188 214.546875 L 34.476562 209.097656 C 35.074219 208.5 36.289062 207.285156 36.890625 206.675781 C 51.40625 190.941406 67.132812 181.257812 85.277344 176.414062 C 101.609375 172.167969 119.148438 172.777344 136.683594 179.433594 C 151.800781 184.882812 167.523438 186.707031 183.25 184.882812 C 211.070312 181.855469 238.890625 166.121094 259.457031 148.5625 C 260.664062 147.355469 261.878906 146.75 263.085938 145.542969 L 264.898438 143.71875 L 264.898438 141.90625 C 264.898438 138.277344 265.507812 134.035156 265.507812 130.40625 Z M 266.113281 116.484375 "/>
<path style=" stroke:none;fill-rule:nonzero;fill:rgb(11.764706%,16.078432%,23.137255%);fill-opacity:1;" d="M 14.519531 124.347656 C 28.429688 109.820312 44.152344 100.742188 61.082031 95.898438 C 77.414062 91.664062 94.953125 92.261719 112.492188 98.929688 C 166.925781 118.898438 214.097656 86.214844 234.65625 68.65625 L 242.519531 60.792969 L 245.546875 58.363281 L 243.125 54.734375 C 241.3125 52.921875 240.105469 50.5 238.285156 48.078125 L 234.65625 43.234375 L 230.421875 47.472656 C 229.824219 48.078125 228.609375 49.285156 228.007812 49.894531 C 202.609375 74.105469 163.289062 98.929688 118.539062 81.980469 C 97.375 74.105469 75.601562 72.890625 55.640625 78.34375 C 42.9375 81.980469 30.839844 88.027344 18.753906 95.898438 L 6.046875 106.191406 C 4.84375 107.398438 4.234375 108.007812 3.019531 109.210938 L 1.8125 110.429688 L 1.8125 112.242188 C 1.207031 116.476562 1.207031 120.722656 0.609375 124.347656 L 0 139.484375 L 10.285156 128.582031 C 11.488281 127.378906 12.703125 125.5625 14.519531 124.347656 Z M 14.519531 124.347656 "/>
<path style=" stroke:none;fill-rule:nonzero;fill:rgb(11.764706%,16.078432%,23.137255%);fill-opacity:1;" d="M 36.289062 60.792969 L 34.476562 57.15625 L 36.289062 60.792969 C 39.917969 58.96875 44.152344 57.765625 47.78125 56.550781 C 64.113281 52.3125 81.648438 52.921875 99.1875 59.578125 C 110.6875 63.8125 122.175781 65.636719 134.871094 65.636719 C 160.269531 65.636719 185.679688 56.550781 209.265625 39 L 218.335938 31.738281 L 221.363281 29.316406 L 215.914062 25.070312 C 214.097656 23.257812 211.679688 21.445312 209.265625 20.226562 L 205.628906 17.808594 L 202.609375 20.226562 C 201.402344 20.835938 200.796875 22.050781 199.582031 22.648438 C 167.535156 46.863281 135.476562 53.53125 105.234375 42.019531 C 83.464844 34.15625 61.691406 32.335938 39.917969 39 C 38.105469 39.597656 36.289062 40.207031 33.871094 40.816406 L 32.664062 41.421875 L 30.851562 43.234375 C 30.851562 43.84375 30.242188 43.84375 29.632812 44.441406 C 27.222656 48.078125 24.195312 51.109375 21.773438 54.734375 L 10.285156 72.292969 L 29.035156 62.605469 C 32.054688 62.605469 34.476562 61.390625 36.289062 60.792969 Z M 36.289062 60.792969 "/>
<path style=" stroke:none;fill-rule:nonzero;fill:rgb(11.764706%,16.078432%,23.137255%);fill-opacity:1;" d="M 85.875 19.628906 L 87.6875 20.238281 C 95.550781 23.257812 107.648438 26.285156 122.773438 26.285156 C 138.496094 26.285156 153.613281 22.660156 168.730469 16.601562 L 187.484375 7.523438 L 174.78125 3.289062 C 171.152344 2.070312 167.523438 0.867188 163.289062 0.257812 L 161.476562 0.257812 L 159.664062 0.867188 C 157.847656 1.464844 156.035156 2.679688 154.222656 3.289062 C 136.078125 9.945312 117.929688 11.148438 100.394531 6.308594 C 98.578125 5.710938 96.765625 5.101562 94.953125 4.492188 L 93.140625 3.886719 L 91.324219 4.492188 C 87.6875 5.710938 84.0625 6.914062 80.433594 8.730469 L 66.523438 14.785156 L 81.042969 19.023438 C 82.246094 18.414062 84.0625 19.023438 85.875 19.628906 Z M 85.875 19.628906 "/>
<path style=" stroke:none;fill-rule:nonzero;fill:rgb(11.764706%,16.078432%,23.137255%);fill-opacity:1;" d="M 392.273438 131.867188 C 383.222656 131.867188 375.445312 130.339844 368.957031 127.285156 C 362.460938 124.226562 357.394531 119.945312 353.757812 114.4375 C 350.121094 108.921875 348.054688 102.425781 347.558594 94.9375 L 370.136719 93.898438 C 370.722656 98.039062 371.910156 101.582031 373.679688 104.539062 C 375.546875 107.390625 378.007812 109.558594 381.054688 111.035156 C 384.203125 112.511719 388.039062 113.25 392.570312 113.25 C 396.300781 113.25 399.453125 112.8125 402.011719 111.921875 C 404.667969 111.035156 406.6875 109.707031 408.0625 107.933594 C 409.4375 106.0625 410.128906 103.800781 410.128906 101.144531 C 410.128906 98.675781 409.539062 96.5625 408.359375 94.785156 C 407.171875 92.917969 404.910156 91.242188 401.5625 89.765625 C 398.226562 88.195312 393.308594 86.664062 386.8125 85.183594 C 377.855469 83.121094 370.628906 80.808594 365.125 78.25 C 359.710938 75.6875 355.777344 72.488281 353.316406 68.648438 C 350.859375 64.710938 349.625 59.785156 349.625 53.875 C 349.625 47.574219 351.148438 42.058594 354.195312 37.335938 C 357.347656 32.605469 361.871094 28.914062 367.777344 26.257812 C 373.679688 23.59375 380.707031 22.265625 388.878906 22.265625 C 397.535156 22.265625 404.863281 23.789062 410.867188 26.847656 C 416.867188 29.894531 421.542969 34.082031 424.890625 39.402344 C 428.328125 44.714844 430.394531 50.816406 431.085938 57.71875 L 408.652344 58.894531 C 408.359375 55.25 407.371094 52.097656 405.695312 49.445312 C 404.03125 46.6875 401.769531 44.574219 398.910156 43.097656 C 396.058594 41.617188 392.617188 40.878906 388.578125 40.878906 C 383.464844 40.878906 379.4375 42.011719 376.480469 44.273438 C 373.632812 46.535156 372.199219 49.492188 372.199219 53.136719 C 372.199219 55.699219 372.847656 57.867188 374.117188 59.632812 C 375.5 61.308594 377.714844 62.785156 380.765625 64.066406 C 383.90625 65.347656 388.335938 66.582031 394.039062 67.757812 C 403.78125 69.730469 411.457031 72.238281 417.0625 75.292969 C 422.765625 78.25 426.804688 81.792969 429.160156 85.925781 C 431.527344 90.066406 432.703125 94.785156 432.703125 100.105469 C 432.703125 106.605469 431.03125 112.269531 427.695312 117.09375 C 424.441406 121.816406 419.765625 125.460938 413.671875 128.023438 C 407.667969 130.585938 400.535156 131.867188 392.273438 131.867188 Z M 475.445312 131.277344 C 467.273438 131.277344 460.582031 129.398438 455.375 125.65625 C 450.25 121.816406 447.699219 116.503906 447.699219 109.707031 C 447.699219 102.714844 449.859375 97.347656 454.1875 93.609375 C 458.617188 89.765625 465.117188 86.960938 473.667969 85.183594 L 499.199219 80.164062 C 499.199219 75.042969 498.023438 71.207031 495.65625 68.648438 C 493.394531 65.984375 490.105469 64.65625 485.777344 64.65625 C 481.539062 64.65625 478.242188 65.644531 475.886719 67.609375 C 473.519531 69.480469 471.996094 72.292969 471.3125 76.03125 L 449.027344 74.996094 C 450.503906 66.328125 454.382812 59.785156 460.683594 55.351562 C 467.078125 50.816406 475.445312 48.554688 485.777344 48.554688 C 497.574219 48.554688 506.425781 51.359375 512.335938 56.980469 C 518.335938 62.589844 521.335938 70.816406 521.335938 81.640625 L 521.335938 108.671875 C 521.335938 110.941406 521.683594 112.464844 522.367188 113.25 C 523.152344 113.941406 524.292969 114.289062 525.757812 114.289062 L 527.976562 114.289062 L 527.976562 129.5 C 527.28125 129.695312 526.152344 129.894531 524.582031 130.089844 C 523.105469 130.285156 521.628906 130.386719 520.160156 130.386719 C 517.007812 130.386719 514.054688 129.847656 511.296875 128.761719 C 508.640625 127.675781 506.484375 125.855469 504.808594 123.292969 C 503.136719 120.636719 502.292969 116.898438 502.292969 112.074219 L 504.21875 113.550781 C 503.230469 117.09375 501.460938 120.199219 498.902344 122.851562 C 496.441406 125.507812 493.199219 127.582031 489.167969 129.0625 C 485.234375 130.539062 480.652344 131.277344 475.445312 131.277344 Z M 480.753906 116.054688 C 484.390625 116.054688 487.589844 115.375 490.347656 113.988281 C 493.09375 112.511719 495.265625 110.398438 496.835938 107.640625 C 498.414062 104.882812 499.199219 101.628906 499.199219 97.890625 L 499.199219 94.046875 L 481.195312 97.890625 C 477.652344 98.582031 474.949219 99.761719 473.082031 101.433594 C 471.3125 103.015625 470.425781 105.082031 470.425781 107.640625 C 470.425781 110.296875 471.3125 112.363281 473.082031 113.839844 C 474.847656 115.316406 477.410156 116.054688 480.753906 116.054688 Z M 569.511719 129.5 C 561.339844 129.5 555.347656 127.628906 551.503906 123.890625 C 547.671875 120.046875 545.746094 113.988281 545.746094 105.714844 L 545.746094 31.71875 L 567.882812 31.71875 L 567.882812 103.0625 C 567.882812 106.902344 568.667969 109.511719 570.25 110.886719 C 571.921875 112.269531 574.378906 112.960938 577.625 112.960938 L 588.691406 112.960938 L 588.691406 129.5 Z M 533.058594 66.871094 L 533.058594 50.332031 L 588.691406 50.332031 L 588.691406 66.871094 Z M 629.769531 131.277344 C 621.601562 131.277344 615.207031 128.660156 610.585938 123.441406 C 606.054688 118.121094 603.789062 110.746094 603.789062 101.285156 L 603.789062 50.332031 L 625.929688 50.332031 L 625.929688 96.113281 C 625.929688 102.21875 626.863281 106.707031 628.734375 109.558594 C 630.601562 112.316406 633.554688 113.699219 637.585938 113.699219 C 642.109375 113.699219 645.605469 112.167969 648.066406 109.117188 C 650.625 105.96875 651.898438 101.285156 651.898438 95.085938 L 651.898438 50.332031 L 674.035156 50.332031 L 674.035156 129.5 L 653.824219 129.5 L 653.234375 106.753906 L 656.03125 107.34375 C 654.851562 115.222656 652.046875 121.179688 647.625 125.21875 C 643.195312 129.257812 637.238281 131.277344 629.769531 131.277344 Z M 731.144531 129.5 L 731.144531 24.632812 L 773.054688 24.632812 C 785.648438 24.632812 795.480469 27.679688 802.566406 33.785156 C 809.746094 39.890625 813.335938 48.265625 813.335938 58.894531 C 813.335938 65.890625 811.710938 71.992188 808.46875 77.210938 C 805.316406 82.332031 800.699219 86.316406 794.59375 89.175781 C 788.59375 91.933594 781.414062 93.308594 773.054688 93.308594 L 753.574219 93.308594 L 753.574219 129.5 Z M 753.574219 74.40625 L 771.726562 74.40625 C 777.625 74.40625 782.199219 73.125 785.449219 70.5625 C 788.695312 67.910156 790.320312 64.019531 790.320312 58.894531 C 790.320312 53.875 788.695312 50.078125 785.449219 47.527344 C 782.300781 44.863281 777.71875 43.535156 771.726562 43.535156 L 753.574219 43.535156 Z M 861.96875 131.277344 C 853.902344 131.277344 846.871094 129.601562 840.867188 126.246094 C 834.960938 122.804688 830.34375 117.980469 826.996094 111.773438 C 823.75 105.574219 822.125 98.285156 822.125 89.917969 C 822.125 81.546875 823.75 74.304688 826.996094 68.199219 C 830.34375 62 834.960938 57.175781 840.867188 53.726562 C 846.765625 50.285156 853.75 48.554688 861.820312 48.554688 C 869.691406 48.554688 876.53125 50.285156 882.339844 53.726562 C 888.132812 57.175781 892.613281 62.09375 895.761719 68.496094 C 899.007812 74.902344 900.632812 82.53125 900.632812 91.394531 L 900.632812 95.824219 L 845 95.824219 C 845.289062 102.125 846.964844 106.800781 850.019531 109.859375 C 853.160156 112.90625 857.292969 114.4375 862.40625 114.4375 C 866.148438 114.4375 869.25 113.644531 871.710938 112.074219 C 874.269531 110.492188 876.085938 108.082031 877.167969 104.835938 L 899.457031 106.164062 C 897.390625 114.035156 893.003906 120.199219 886.320312 124.628906 C 879.628906 129.0625 871.511719 131.277344 861.96875 131.277344 Z M 845 82.230469 L 877.90625 82.230469 C 877.609375 76.425781 875.992188 72.097656 873.035156 69.234375 C 870.183594 66.382812 866.445312 64.953125 861.820312 64.953125 C 857.199219 64.953125 853.359375 66.476562 850.3125 69.535156 C 847.355469 72.488281 845.589844 76.722656 845 82.230469 Z M 946.105469 129.5 C 937.933594 129.5 931.933594 127.628906 928.097656 123.890625 C 924.265625 120.046875 922.339844 113.988281 922.339844 105.714844 L 922.339844 31.71875 L 944.476562 31.71875 L 944.476562 103.0625 C 944.476562 106.902344 945.261719 109.511719 946.84375 110.886719 C 948.507812 112.269531 950.976562 112.960938 954.21875 112.960938 L 965.289062 112.960938 L 965.289062 129.5 Z M 909.644531 66.871094 L 909.644531 50.332031 L 965.289062 50.332031 L 965.289062 66.871094 Z M 1002.839844 131.277344 C 994.671875 131.277344 987.984375 129.398438 982.777344 125.65625 C 977.65625 121.816406 975.105469 116.503906 975.105469 109.707031 C 975.105469 102.714844 977.261719 97.347656 981.589844 93.609375 C 986.023438 89.765625 992.511719 86.960938 1001.074219 85.183594 L 1026.605469 80.164062 C 1026.605469 75.042969 1025.417969 71.207031 1023.0625 68.648438 C 1020.789062 65.984375 1017.5 64.65625 1013.171875 64.65625 C 1008.9375 64.65625 1005.644531 65.644531 1003.289062 67.609375 C 1000.925781 69.480469 999.390625 72.292969 998.707031 76.03125 L 976.429688 74.996094 C 977.90625 66.328125 981.789062 59.785156 988.089844 55.351562 C 994.472656 50.816406 1002.839844 48.554688 1013.171875 48.554688 C 1024.976562 48.554688 1033.832031 51.359375 1039.738281 56.980469 C 1045.730469 62.589844 1048.742188 70.816406 1048.742188 81.640625 L 1048.742188 108.671875 C 1048.742188 110.941406 1049.078125 112.464844 1049.769531 113.25 C 1050.554688 113.941406 1051.6875 114.289062 1053.164062 114.289062 L 1055.378906 114.289062 L 1055.378906 129.5 C 1054.6875 129.695312 1053.554688 129.894531 1051.984375 130.089844 C 1050.507812 130.285156 1049.03125 130.386719 1047.554688 130.386719 C 1044.402344 130.386719 1041.449219 129.847656 1038.703125 128.761719 C 1036.046875 127.675781 1033.878906 125.855469 1032.214844 123.292969 C 1030.53125 120.636719 1029.699219 116.898438 1029.699219 112.074219 L 1031.617188 113.550781 C 1030.632812 117.09375 1028.859375 120.199219 1026.304688 122.851562 C 1023.847656 125.507812 1020.59375 127.582031 1016.5625 129.0625 C 1012.628906 130.539062 1008.058594 131.277344 1002.839844 131.277344 Z M 1008.160156 116.054688 C 1011.789062 116.054688 1014.992188 115.375 1017.75 113.988281 C 1020.5 112.511719 1022.660156 110.398438 1024.238281 107.640625 C 1025.808594 104.882812 1026.605469 101.628906 1026.605469 97.890625 L 1026.605469 94.046875 L 1008.597656 97.890625 C 1005.054688 98.582031 1002.34375 99.761719 1000.484375 101.433594 C 998.707031 103.015625 997.828125 105.082031 997.828125 107.640625 C 997.828125 110.296875 998.707031 112.363281 1000.484375 113.839844 C 1002.25 115.316406 1004.804688 116.054688 1008.160156 116.054688 Z M 1008.160156 116.054688 "/>
<path style=" stroke:none;fill-rule:nonzero;fill:rgb(11.764706%,16.078432%,23.137255%);fill-opacity:1;" d="M 361.871094 232.226562 C 358.382812 232.226562 355.308594 231.441406 352.652344 229.863281 C 350.042969 228.246094 348.027344 226.027344 346.59375 223.214844 C 345.175781 220.363281 344.4375 217.089844 344.390625 213.398438 L 352.503906 212.949219 C 352.550781 216.894531 353.390625 219.867188 355.007812 221.886719 C 356.636719 223.90625 358.925781 224.917969 361.871094 224.917969 C 364.972656 224.917969 367.332031 223.859375 368.957031 221.738281 C 370.628906 219.625 371.460938 216.566406 371.460938 212.585938 L 371.460938 178.609375 L 379.4375 178.609375 L 379.4375 212.585938 C 379.4375 216.566406 378.699219 220.046875 377.222656 223 C 375.789062 225.953125 373.78125 228.246094 371.171875 229.863281 C 368.5625 231.441406 365.460938 232.226562 361.871094 232.226562 Z M 401.964844 231.9375 C 397.890625 231.9375 394.617188 230.992188 392.152344 229.125 C 389.746094 227.253906 388.542969 224.617188 388.542969 221.222656 C 388.542969 217.828125 389.550781 215.195312 391.5625 213.324219 C 393.628906 211.398438 396.804688 210.023438 401.085938 209.183594 L 414.585938 206.601562 C 414.585938 203.542969 413.875 201.28125 412.445312 199.804688 C 411.015625 198.28125 408.902344 197.515625 406.097656 197.515625 C 403.59375 197.515625 401.621094 198.085938 400.199219 199.214844 C 398.769531 200.300781 397.789062 201.925781 397.246094 204.085938 L 389.207031 203.574219 C 389.945312 199.636719 391.757812 196.53125 394.664062 194.269531 C 397.621094 192.007812 401.425781 190.867188 406.097656 190.867188 C 411.410156 190.867188 415.445312 192.296875 418.203125 195.160156 C 421.007812 197.964844 422.402344 201.925781 422.402344 207.042969 L 422.402344 222.335938 C 422.402344 223.269531 422.550781 223.933594 422.851562 224.328125 C 423.195312 224.671875 423.738281 224.84375 424.46875 224.84375 L 425.871094 224.84375 L 425.871094 231.050781 C 425.628906 231.097656 425.234375 231.144531 424.691406 231.199219 C 424.148438 231.246094 423.589844 231.265625 423 231.265625 C 421.328125 231.265625 419.878906 230.992188 418.644531 230.460938 C 417.464844 229.917969 416.578125 229.03125 415.988281 227.796875 C 415.398438 226.515625 415.101562 224.8125 415.101562 222.699219 L 415.914062 223.074219 C 415.523438 224.796875 414.660156 226.320312 413.335938 227.648438 C 412.054688 228.984375 410.40625 230.039062 408.390625 230.824219 C 406.417969 231.5625 404.285156 231.9375 401.964844 231.9375 Z M 403.21875 225.730469 C 405.585938 225.730469 407.605469 225.289062 409.277344 224.402344 C 410.949219 223.46875 412.25 222.1875 413.183594 220.558594 C 414.121094 218.933594 414.585938 217.089844 414.585938 215.023438 L 414.585938 212.511719 L 403.078125 214.726562 C 400.714844 215.164062 399.039062 215.886719 398.058594 216.867188 C 397.125 217.800781 396.65625 219.007812 396.65625 220.484375 C 396.65625 222.160156 397.226562 223.46875 398.347656 224.402344 C 399.535156 225.289062 401.152344 225.730469 403.21875 225.730469 Z M 439.453125 231.050781 L 427.507812 191.753906 L 435.695312 191.753906 L 444.109375 222.476562 L 452.738281 191.753906 L 460.113281 191.753906 L 468.753906 222.476562 L 477.230469 191.753906 L 485.429688 191.753906 L 473.472656 231.050781 L 464.695312 231.050781 L 456.429688 202.984375 L 448.167969 231.050781 Z M 502.519531 231.9375 C 498.433594 231.9375 495.171875 230.992188 492.703125 229.125 C 490.300781 227.253906 489.09375 224.617188 489.09375 221.222656 C 489.09375 217.828125 490.105469 215.195312 492.113281 213.324219 C 494.179688 211.398438 497.359375 210.023438 501.628906 209.183594 L 515.140625 206.601562 C 515.140625 203.542969 514.429688 201.28125 513 199.804688 C 511.566406 198.28125 509.457031 197.515625 506.652344 197.515625 C 504.144531 197.515625 502.171875 198.085938 500.75 199.214844 C 499.320312 200.300781 498.339844 201.925781 497.796875 204.085938 L 489.757812 203.574219 C 490.496094 199.636719 492.308594 196.53125 495.21875 194.269531 C 498.164062 192.007812 501.976562 190.867188 506.652344 190.867188 C 511.960938 190.867188 516 192.296875 518.757812 195.160156 C 521.550781 197.964844 522.953125 201.925781 522.953125 207.042969 L 522.953125 222.335938 C 522.953125 223.269531 523.105469 223.933594 523.402344 224.328125 C 523.75 224.671875 524.292969 224.84375 525.019531 224.84375 L 526.421875 224.84375 L 526.421875 231.050781 C 526.179688 231.097656 525.789062 231.144531 525.246094 231.199219 C 524.703125 231.246094 524.140625 231.265625 523.554688 231.265625 C 521.878906 231.265625 520.429688 230.992188 519.195312 230.460938 C 518.019531 229.917969 517.128906 229.03125 516.542969 227.796875 C 515.953125 226.515625 515.652344 224.8125 515.652344 222.699219 L 516.464844 223.074219 C 516.074219 224.796875 515.214844 226.320312 513.886719 227.648438 C 512.605469 228.984375 510.960938 230.039062 508.941406 230.824219 C 506.96875 231.5625 504.828125 231.9375 502.519531 231.9375 Z M 503.769531 225.730469 C 506.136719 225.730469 508.15625 225.289062 509.828125 224.402344 C 511.503906 223.46875 512.800781 222.1875 513.738281 220.558594 C 514.671875 218.933594 515.140625 217.089844 515.140625 215.023438 L 515.140625 212.511719 L 503.632812 214.726562 C 501.265625 215.164062 499.59375 215.886719 498.609375 216.867188 C 497.675781 217.800781 497.207031 219.007812 497.207031 220.484375 C 497.207031 222.160156 497.769531 223.46875 498.902344 224.402344 C 500.089844 225.289062 501.707031 225.730469 503.769531 225.730469 Z M 564.097656 231.050781 L 564.097656 185.921875 L 548.019531 185.921875 L 548.019531 178.609375 L 588.152344 178.609375 L 588.152344 185.921875 L 572.070312 185.921875 L 572.070312 231.050781 Z M 593.394531 231.050781 L 593.394531 191.753906 L 601.210938 191.753906 L 601.210938 231.050781 Z M 593.246094 186.070312 L 593.246094 178.246094 L 601.359375 178.246094 L 601.359375 186.070312 Z M 613.652344 231.050781 L 613.652344 191.753906 L 620.816406 191.753906 L 621.039062 201.507812 L 620.152344 201.207031 C 620.589844 199.046875 621.355469 197.195312 622.441406 195.671875 C 623.574219 194.148438 624.945312 192.960938 626.574219 192.128906 C 628.191406 191.289062 629.964844 190.867188 631.882812 190.867188 C 635.230469 190.867188 637.960938 191.832031 640.074219 193.757812 C 642.183594 195.625 643.511719 198.207031 644.054688 201.507812 L 642.800781 201.507812 C 643.242188 199.1875 643.980469 197.269531 645.019531 195.746094 C 646.101562 194.167969 647.476562 192.960938 649.148438 192.128906 C 650.824219 191.289062 652.710938 190.867188 654.832031 190.867188 C 657.582031 190.867188 659.917969 191.464844 661.835938 192.644531 C 663.808594 193.773438 665.285156 195.449219 666.265625 197.664062 C 667.296875 199.878906 667.820312 202.589844 667.820312 205.789062 L 667.820312 231.050781 L 659.992188 231.050781 L 659.992188 207.703125 C 659.992188 204.3125 659.378906 201.75 658.152344 200.03125 C 656.917969 198.308594 655.046875 197.441406 652.542969 197.441406 C 650.917969 197.441406 649.496094 197.859375 648.261719 198.703125 C 647.035156 199.535156 646.074219 200.738281 645.382812 202.320312 C 644.746094 203.890625 644.429688 205.789062 644.429688 208.003906 L 644.429688 231.050781 L 636.96875 231.050781 L 636.96875 208.003906 C 636.96875 204.65625 636.40625 202.066406 635.277344 200.253906 C 634.191406 198.382812 632.324219 197.441406 629.667969 197.441406 C 627.996094 197.441406 626.546875 197.859375 625.3125 198.703125 C 624.132812 199.535156 623.199219 200.769531 622.515625 202.394531 C 621.824219 203.964844 621.476562 205.835938 621.476562 208.003906 L 621.476562 231.050781 Z M 691.582031 231.9375 C 687.648438 231.9375 684.496094 230.628906 682.140625 228.019531 C 679.820312 225.355469 678.671875 221.691406 678.671875 217.015625 L 678.671875 191.753906 L 686.488281 191.753906 L 686.488281 215.023438 C 686.488281 218.570312 687.105469 221.175781 688.328125 222.851562 C 689.5625 224.523438 691.433594 225.355469 693.9375 225.355469 C 696.800781 225.355469 699.003906 224.449219 700.585938 222.625 C 702.203125 220.757812 703.015625 218.148438 703.015625 214.800781 L 703.015625 191.753906 L 710.839844 191.753906 L 710.839844 231.050781 L 703.53125 231.050781 L 703.390625 220.785156 L 704.492188 221.222656 C 703.800781 224.671875 702.351562 227.328125 700.136719 229.199219 C 697.929688 231.023438 695.070312 231.9375 691.582031 231.9375 Z M 722.636719 231.050781 L 722.636719 191.753906 L 729.800781 191.753906 L 730.089844 202.171875 L 729.425781 201.945312 C 729.96875 198.402344 731.050781 195.824219 732.679688 194.195312 C 734.34375 192.570312 736.585938 191.753906 739.390625 191.753906 L 743.148438 191.753906 L 743.148438 198.777344 L 739.390625 198.777344 C 737.417969 198.777344 735.773438 199.09375 734.445312 199.730469 C 733.117188 200.375 732.109375 201.355469 731.417969 202.683594 C 730.78125 204.019531 730.464844 205.742188 730.464844 207.855469 L 730.464844 231.050781 Z M 722.636719 231.050781 "/>
</g>
</svg>
