<svg xmlns="http://www.w3.org/2000/svg" fill="none" viewBox="224.98 369.98 1460.7 344.02">
    <path
        d="M932.356 648.768C928.978 648.768 925.958 648.378 923.295 647.599C920.697 646.819 918.488 645.617 916.67 643.994C914.851 642.37 913.422 640.324 912.383 637.856C911.343 635.322 910.726 632.367 910.532 628.989H919.105C919.365 631.458 919.982 633.601 920.957 635.42C921.996 637.238 923.425 638.635 925.244 639.609C927.127 640.584 929.498 641.071 932.356 641.071C935.409 641.071 937.78 640.421 939.468 639.122C941.222 637.823 942.456 636.037 943.171 633.763C943.95 631.49 944.34 628.892 944.34 625.969V579.105H952.816V624.215C952.816 627.788 952.459 631.1 951.745 634.153C951.03 637.141 949.861 639.739 948.237 641.948C946.678 644.091 944.567 645.78 941.904 647.014C939.306 648.183 936.123 648.768 932.356 648.768ZM983.762 648.573C981.424 648.573 979.15 648.281 976.942 647.696C974.798 647.046 972.85 646.105 971.096 644.871C969.407 643.571 968.043 641.98 967.004 640.096C966.03 638.148 965.542 635.907 965.542 633.374C965.542 630.451 966.062 627.983 967.101 625.969C968.205 623.955 969.667 622.364 971.486 621.195C973.304 620.026 975.415 619.181 977.819 618.662C980.222 618.142 982.723 617.882 985.321 617.882H1000.42C1000.42 614.959 1000 612.426 999.156 610.283C998.376 608.139 997.077 606.483 995.259 605.314C993.44 604.08 991.037 603.463 988.049 603.463C986.23 603.463 984.541 603.657 982.982 604.047C981.424 604.437 980.092 605.054 978.988 605.898C977.884 606.743 977.072 607.879 976.552 609.308H967.686C968.141 606.97 969.017 604.989 970.316 603.365C971.681 601.676 973.304 600.312 975.188 599.273C977.137 598.169 979.215 597.357 981.424 596.837C983.632 596.318 985.84 596.058 988.049 596.058C995.454 596.058 1000.71 598.234 1003.83 602.586C1006.95 606.938 1008.51 612.816 1008.51 620.221V647.988H1001.59L1001.1 641.46C999.675 643.409 997.954 644.903 995.941 645.942C993.927 646.982 991.849 647.664 989.705 647.988C987.627 648.378 985.646 648.573 983.762 648.573ZM984.541 641.266C987.789 641.266 990.582 640.746 992.92 639.707C995.324 638.602 997.175 637.011 998.474 634.933C999.773 632.854 1000.42 630.321 1000.42 627.333V624.8H991.361C989.218 624.8 987.107 624.832 985.028 624.897C982.95 624.962 981.066 625.222 979.378 625.677C977.689 626.131 976.325 626.911 975.285 628.015C974.311 629.119 973.824 630.711 973.824 632.789C973.824 634.738 974.311 636.329 975.285 637.563C976.325 638.797 977.656 639.739 979.28 640.389C980.969 640.973 982.723 641.266 984.541 641.266ZM1031.96 647.988L1015.98 596.642H1025.33L1037.61 639.999L1050.28 596.642H1061.48L1074.24 639.999L1086.33 596.642H1095.78L1079.8 647.988H1068.5L1055.83 606.386L1043.16 647.988H1031.96ZM1119.92 648.573C1117.58 648.573 1115.31 648.281 1113.1 647.696C1110.95 647.046 1109 646.105 1107.25 644.871C1105.56 643.571 1104.2 641.98 1103.16 640.096C1102.18 638.148 1101.7 635.907 1101.7 633.374C1101.7 630.451 1102.22 627.983 1103.26 625.969C1104.36 623.955 1105.82 622.364 1107.64 621.195C1109.46 620.026 1111.57 619.181 1113.97 618.662C1116.38 618.142 1118.88 617.882 1121.48 617.882H1136.58C1136.58 614.959 1136.16 612.426 1135.31 610.283C1134.53 608.139 1133.23 606.483 1131.41 605.314C1129.6 604.08 1127.19 603.463 1124.2 603.463C1122.39 603.463 1120.7 603.657 1119.14 604.047C1117.58 604.437 1116.25 605.054 1115.14 605.898C1114.04 606.743 1113.23 607.879 1112.71 609.308H1103.84C1104.3 606.97 1105.17 604.989 1106.47 603.365C1107.84 601.676 1109.46 600.312 1111.34 599.273C1113.29 598.169 1115.37 597.357 1117.58 596.837C1119.79 596.318 1122 596.058 1124.2 596.058C1131.61 596.058 1136.87 598.234 1139.99 602.586C1143.11 606.938 1144.66 612.816 1144.66 620.221V647.988H1137.75L1137.26 641.46C1135.83 643.409 1134.11 644.903 1132.1 645.942C1130.08 646.982 1128 647.664 1125.86 647.988C1123.78 648.378 1121.8 648.573 1119.92 648.573ZM1120.7 641.266C1123.94 641.266 1126.74 640.746 1129.08 639.707C1131.48 638.602 1133.33 637.011 1134.63 634.933C1135.93 632.854 1136.58 630.321 1136.58 627.333V624.8H1127.52C1125.37 624.8 1123.26 624.832 1121.18 624.897C1119.11 624.962 1117.22 625.222 1115.53 625.677C1113.84 626.131 1112.48 626.911 1111.44 628.015C1110.47 629.119 1109.98 630.711 1109.98 632.789C1109.98 634.738 1110.47 636.329 1111.44 637.563C1112.48 638.797 1113.81 639.739 1115.44 640.389C1117.12 640.973 1118.88 641.266 1120.7 641.266ZM1200.71 647.988V586.802H1178.59V579.105H1231.3V586.802H1209.18V647.988H1200.71ZM1239.23 647.988V596.642H1247.51V647.988H1239.23ZM1243.32 589.043C1241.63 589.043 1240.27 588.523 1239.23 587.484C1238.25 586.445 1237.76 585.113 1237.76 583.489C1237.76 581.866 1238.28 580.566 1239.32 579.592C1240.36 578.553 1241.69 578.033 1243.32 578.033C1244.81 578.033 1246.11 578.553 1247.22 579.592C1248.38 580.631 1248.97 581.93 1248.97 583.489C1248.97 585.113 1248.42 586.445 1247.31 587.484C1246.21 588.523 1244.88 589.043 1243.32 589.043ZM1260.54 647.988V596.642H1268.53L1268.92 602.781C1270.02 601.222 1271.26 599.955 1272.62 598.981C1274.05 598.007 1275.61 597.292 1277.3 596.837C1279.05 596.318 1280.9 596.058 1282.85 596.058C1286.42 596.058 1289.31 596.837 1291.52 598.396C1293.73 599.89 1295.39 601.871 1296.49 604.339C1297.66 602.586 1298.99 601.092 1300.49 599.858C1302.04 598.624 1303.77 597.682 1305.65 597.032C1307.6 596.383 1309.74 596.058 1312.08 596.058C1315.85 596.058 1318.87 596.87 1321.14 598.494C1323.48 600.117 1325.17 602.326 1326.21 605.119C1327.25 607.847 1327.77 610.932 1327.77 614.375V647.988H1319.48V618.564C1319.48 616.876 1319.39 615.154 1319.19 613.4C1319.06 611.647 1318.67 610.023 1318.02 608.529C1317.37 606.97 1316.4 605.736 1315.1 604.827C1313.87 603.852 1312.11 603.365 1309.84 603.365C1307.69 603.365 1305.88 603.885 1304.38 604.924C1302.95 605.898 1301.78 607.23 1300.87 608.919C1299.97 610.607 1299.32 612.426 1298.93 614.375C1298.54 616.258 1298.34 618.142 1298.34 620.026V647.988H1290.06V618.467C1290.06 616.843 1289.96 615.154 1289.77 613.4C1289.64 611.647 1289.28 610.023 1288.7 608.529C1288.18 606.97 1287.27 605.736 1285.97 604.827C1284.73 603.852 1283.01 603.365 1280.8 603.365C1277.69 603.365 1275.25 604.275 1273.5 606.093C1271.74 607.847 1270.51 610.023 1269.79 612.621C1269.15 615.154 1268.82 617.655 1268.82 620.123V647.988H1260.54ZM1361.8 648.573C1354.72 648.573 1349.33 646.689 1345.63 642.922C1341.99 639.155 1340.17 633.374 1340.17 625.579V596.642H1348.45V625.19C1348.45 628.567 1348.94 631.458 1349.92 633.861C1350.89 636.264 1352.35 638.115 1354.3 639.414C1356.31 640.649 1358.81 641.266 1361.8 641.266C1364.92 641.266 1367.49 640.649 1369.5 639.414C1371.51 638.115 1372.97 636.264 1373.88 633.861C1374.86 631.458 1375.34 628.567 1375.34 625.19V596.642H1383.63V625.579C1383.63 633.374 1381.74 639.155 1377.98 642.922C1374.27 646.689 1368.88 648.573 1361.8 648.573ZM1396.5 647.988V596.642H1404.49L1404.88 604.632C1406.18 602.618 1407.68 600.994 1409.36 599.76C1411.12 598.526 1413.03 597.617 1415.11 597.032C1417.26 596.383 1419.56 596.058 1422.03 596.058C1422.48 596.058 1422.91 596.058 1423.3 596.058C1423.75 596.058 1424.21 596.058 1424.66 596.058V603.852H1421.64C1417.61 603.852 1414.33 604.729 1411.8 606.483C1409.33 608.172 1407.55 610.478 1406.44 613.4C1405.34 616.258 1404.79 619.441 1404.79 622.949V647.988H1396.5Z"
        fill="#FF0048"></path>
    <path
        d="M963.479 530.334C955.251 530.334 947.579 529.056 940.463 526.498C933.458 523.941 927.565 519.883 922.784 514.323C918.114 508.764 915.168 501.592 913.945 492.808H938.295C939.296 496.589 941.13 499.646 943.799 501.981C946.467 504.205 949.636 505.817 953.305 506.818C957.086 507.819 961.033 508.319 965.147 508.319C968.26 508.319 971.318 507.93 974.32 507.151C977.322 506.373 979.768 505.039 981.659 503.149C983.66 501.258 984.661 498.701 984.661 495.477C984.661 493.03 984.105 491.029 982.993 489.472C981.992 487.916 980.491 486.693 978.49 485.803C976.599 484.803 974.265 483.913 971.485 483.135C969.15 482.468 966.704 481.912 964.146 481.467C961.7 481.022 959.254 480.466 956.808 479.799C954.473 479.132 952.194 478.354 949.97 477.464C945.745 476.352 941.686 475.018 937.795 473.461C933.903 471.793 930.456 469.736 927.454 467.29C924.452 464.733 922.061 461.564 920.282 457.784C918.615 454.003 917.781 449.445 917.781 444.107C917.781 438.326 918.726 433.433 920.616 429.431C922.617 425.428 925.23 422.148 928.455 419.59C931.79 416.922 935.46 414.865 939.462 413.419C943.576 411.974 947.69 410.973 951.804 410.417C955.918 409.861 959.81 409.583 963.479 409.583C971.151 409.583 978.045 410.918 984.16 413.586C990.276 416.255 995.279 420.258 999.171 425.595C1003.06 430.932 1005.29 437.659 1005.84 445.775H982.659C982.214 442.44 980.991 439.716 978.99 437.603C976.989 435.49 974.431 433.934 971.318 432.933C968.316 431.932 964.925 431.432 961.144 431.432C958.698 431.432 956.308 431.654 953.973 432.099C951.638 432.544 949.525 433.267 947.635 434.267C945.856 435.157 944.41 436.38 943.298 437.937C942.298 439.493 941.797 441.383 941.797 443.607C941.797 445.831 942.409 447.777 943.632 449.445C944.855 451.001 946.634 452.391 948.969 453.614C951.415 454.726 954.251 455.782 957.475 456.783C960.811 457.895 964.313 458.784 967.982 459.452C971.652 460.119 975.154 461.008 978.49 462.12C982.715 463.232 986.662 464.566 990.331 466.123C994 467.568 997.225 469.458 1000 471.793C1002.78 474.017 1004.95 476.908 1006.51 480.466C1008.07 483.913 1008.84 488.194 1008.84 493.308C1008.84 500.091 1007.57 505.873 1005.01 510.654C1002.56 515.324 999.171 519.104 994.834 521.995C990.609 524.886 985.773 526.999 980.324 528.333C974.876 529.667 969.261 530.334 963.479 530.334ZM1053.57 530.167C1049.57 530.167 1045.67 529.667 1041.89 528.666C1038.22 527.555 1034.94 525.887 1032.05 523.663C1029.16 521.439 1026.88 518.659 1025.21 515.324C1023.55 511.988 1022.71 508.097 1022.71 503.649C1022.71 497.645 1023.94 492.864 1026.38 489.306C1028.83 485.636 1032.11 482.857 1036.22 480.967C1040.34 479.076 1045.06 477.798 1050.4 477.131C1055.85 476.463 1061.46 476.13 1067.24 476.13H1079.92C1079.92 472.905 1079.31 470.07 1078.09 467.624C1076.97 465.067 1075.25 463.121 1072.91 461.786C1070.58 460.341 1067.58 459.618 1063.91 459.618C1061.57 459.618 1059.29 459.952 1057.07 460.619C1054.96 461.175 1053.18 462.009 1051.73 463.121C1050.29 464.233 1049.34 465.678 1048.9 467.457H1025.21C1025.88 462.565 1027.44 458.395 1029.88 454.948C1032.33 451.39 1035.39 448.499 1039.06 446.276C1042.73 444.052 1046.73 442.44 1051.07 441.439C1055.51 440.327 1060.07 439.771 1064.74 439.771C1077.53 439.771 1086.98 443.44 1093.1 450.779C1099.21 458.006 1102.27 468.291 1102.27 481.634V529H1081.25L1080.92 517.659C1078.14 521.55 1074.97 524.386 1071.41 526.165C1067.97 527.944 1064.63 529.056 1061.41 529.5C1058.18 529.945 1055.57 530.167 1053.57 530.167ZM1058.91 511.655C1062.8 511.655 1066.35 510.876 1069.58 509.32C1072.8 507.763 1075.36 505.65 1077.25 502.982C1079.14 500.313 1080.09 497.311 1080.09 493.976V491.807H1064.08C1061.74 491.807 1059.46 491.919 1057.24 492.141C1055.12 492.363 1053.18 492.808 1051.4 493.475C1049.73 494.031 1048.4 494.976 1047.4 496.311C1046.4 497.645 1045.9 499.424 1045.9 501.648C1045.9 503.871 1046.45 505.762 1047.56 507.318C1048.79 508.764 1050.4 509.876 1052.4 510.654C1054.4 511.321 1056.57 511.655 1058.91 511.655ZM1156.37 530.167C1146.47 530.167 1139.13 527.388 1134.35 521.828C1129.68 516.269 1127.35 508.652 1127.35 498.979V461.953H1114.17V441.105H1127.35V417.422H1150.7V441.105H1177.38V461.953H1150.7V494.142C1150.7 497.033 1151.03 499.535 1151.7 501.648C1152.47 503.76 1153.7 505.428 1155.37 506.651C1157.14 507.763 1159.54 508.319 1162.54 508.319C1165.21 508.319 1167.43 507.93 1169.21 507.151C1171.1 506.262 1172.66 505.317 1173.88 504.316L1181.22 522.329C1178.88 524.219 1176.27 525.776 1173.38 526.999C1170.6 528.11 1167.76 528.889 1164.87 529.334C1161.98 529.89 1159.15 530.167 1156.37 530.167ZM1230.73 530.167C1217.83 530.167 1207.88 526.887 1200.88 520.327C1193.98 513.656 1190.54 503.649 1190.54 490.306V441.105H1213.89V488.639C1213.89 492.641 1214.44 496.199 1215.55 499.313C1216.78 502.315 1218.61 504.705 1221.06 506.484C1223.61 508.263 1226.89 509.153 1230.9 509.153C1235.23 509.153 1238.57 508.208 1240.9 506.318C1243.24 504.427 1244.85 501.926 1245.74 498.812C1246.63 495.588 1247.08 492.197 1247.08 488.639V441.105H1270.26V490.306C1270.26 504.205 1266.76 514.323 1259.75 520.661C1252.86 526.999 1243.18 530.167 1230.73 530.167ZM1338.84 529V410.918H1384.87C1393.88 410.918 1401.71 412.308 1408.39 415.087C1415.17 417.756 1420.39 422.092 1424.06 428.096C1427.73 433.989 1429.57 441.884 1429.57 451.779C1429.57 461.008 1427.51 468.736 1423.4 474.962C1419.39 481.189 1413.89 485.859 1406.88 488.972C1399.88 491.974 1391.93 493.475 1383.03 493.475H1362.69V529H1338.84ZM1362.69 472.127H1382.7C1389.82 472.127 1395.43 470.459 1399.55 467.124C1403.77 463.677 1405.88 458.506 1405.88 451.613C1405.88 445.497 1404.1 440.883 1400.55 437.77C1397.1 434.656 1391.54 433.1 1383.87 433.1H1362.69V472.127ZM1483.03 530.167C1473.8 530.167 1465.96 528.333 1459.51 524.664C1453.06 520.994 1448.12 515.824 1444.67 509.153C1441.22 502.37 1439.5 494.476 1439.5 485.47C1439.5 476.352 1441.28 468.402 1444.84 461.62C1448.39 454.726 1453.4 449.333 1459.85 445.442C1466.41 441.55 1474.14 439.604 1483.03 439.604C1489.7 439.604 1495.54 440.716 1500.54 442.94C1505.66 445.164 1509.94 448.277 1513.38 452.28C1516.94 456.283 1519.56 460.953 1521.22 466.29C1523 471.515 1523.84 477.186 1523.73 483.301C1523.73 484.858 1523.67 486.359 1523.56 487.805C1523.45 489.25 1523.22 490.696 1522.89 492.141H1462.68C1463.02 495.477 1463.96 498.534 1465.52 501.314C1467.07 504.094 1469.24 506.318 1472.02 507.985C1474.91 509.542 1478.47 510.32 1482.7 510.32C1485.48 510.32 1488.03 510.042 1490.37 509.486C1492.7 508.819 1494.71 507.819 1496.37 506.484C1498.04 505.15 1499.21 503.593 1499.88 501.814H1522.89C1521.45 508.375 1518.72 513.767 1514.72 517.992C1510.83 522.217 1506.1 525.331 1500.54 527.332C1494.98 529.222 1489.15 530.167 1483.03 530.167ZM1463.18 475.796H1501.38C1501.27 472.794 1500.49 470.014 1499.04 467.457C1497.71 464.789 1495.65 462.676 1492.87 461.119C1490.2 459.452 1486.76 458.618 1482.53 458.618C1478.3 458.618 1474.75 459.452 1471.86 461.119C1469.08 462.787 1466.96 464.955 1465.52 467.624C1464.18 470.181 1463.41 472.905 1463.18 475.796ZM1574.63 530.167C1564.73 530.167 1557.39 527.388 1552.61 521.828C1547.94 516.269 1545.61 508.652 1545.61 498.979V461.953H1532.43V441.105H1545.61V417.422H1568.96V441.105H1595.64V461.953H1568.96V494.142C1568.96 497.033 1569.29 499.535 1569.96 501.648C1570.74 503.76 1571.96 505.428 1573.63 506.651C1575.4 507.763 1577.8 508.319 1580.8 508.319C1583.47 508.319 1585.69 507.93 1587.47 507.151C1589.36 506.262 1590.92 505.317 1592.14 504.316L1599.48 522.329C1597.14 524.219 1594.53 525.776 1591.64 526.999C1588.86 528.11 1586.02 528.889 1583.13 529.334C1580.24 529.89 1577.41 530.167 1574.63 530.167ZM1636.98 530.167C1632.98 530.167 1629.09 529.667 1625.31 528.666C1621.64 527.555 1618.36 525.887 1615.47 523.663C1612.58 521.439 1610.3 518.659 1608.63 515.324C1606.96 511.988 1606.13 508.097 1606.13 503.649C1606.13 497.645 1607.35 492.864 1609.8 489.306C1612.24 485.636 1615.52 482.857 1619.64 480.967C1623.75 479.076 1628.48 477.798 1633.81 477.131C1639.26 476.463 1644.88 476.13 1650.66 476.13H1663.33C1663.33 472.905 1662.72 470.07 1661.5 467.624C1660.39 465.067 1658.66 463.121 1656.33 461.786C1653.99 460.341 1650.99 459.618 1647.32 459.618C1644.99 459.618 1642.71 459.952 1640.49 460.619C1638.37 461.175 1636.59 462.009 1635.15 463.121C1633.7 464.233 1632.76 465.678 1632.31 467.457H1608.63C1609.3 462.565 1610.85 458.395 1613.3 454.948C1615.75 451.39 1618.8 448.499 1622.47 446.276C1626.14 444.052 1630.14 442.44 1634.48 441.439C1638.93 440.327 1643.49 439.771 1648.16 439.771C1660.94 439.771 1670.39 443.44 1676.51 450.779C1682.63 458.006 1685.68 468.291 1685.68 481.634V529H1664.67L1664.33 517.659C1661.56 521.55 1658.39 524.386 1654.83 526.165C1651.38 527.944 1648.05 529.056 1644.82 529.5C1641.6 529.945 1638.98 530.167 1636.98 530.167ZM1642.32 511.655C1646.21 511.655 1649.77 510.876 1652.99 509.32C1656.22 507.763 1658.78 505.65 1660.67 502.982C1662.56 500.313 1663.5 497.311 1663.5 493.976V491.807H1647.49C1645.15 491.807 1642.88 491.919 1640.65 492.141C1638.54 492.363 1636.59 492.808 1634.81 493.475C1633.15 494.031 1631.81 494.976 1630.81 496.311C1629.81 497.645 1629.31 499.424 1629.31 501.648C1629.31 503.871 1629.87 505.762 1630.98 507.318C1632.2 508.764 1633.81 509.876 1635.82 510.654C1637.82 511.321 1639.98 511.655 1642.32 511.655Z"
        fill="#0A2384"></path>
    <path
        d="M285.378 565.041C291.254 565.041 296.017 560.277 296.017 554.401C296.017 548.525 291.254 543.762 285.378 543.762C279.502 543.762 274.738 548.525 274.738 554.401C274.738 560.277 279.502 565.041 285.378 565.041Z"
        fill="#3188E5" stroke="black" stroke-width="0.032522"></path>
    <path
        d="M310.182 465.705C316.058 465.705 320.822 460.941 320.822 455.065C320.822 449.189 316.058 444.426 310.182 444.426C304.306 444.426 299.543 449.189 299.543 455.065C299.543 460.941 304.306 465.705 310.182 465.705Z"
        fill="#3188E5" stroke="black" stroke-width="0.032522"></path>
    <path
        d="M285.378 465.705C291.254 465.705 296.017 460.941 296.017 455.065C296.017 449.189 291.254 444.426 285.378 444.426C279.502 444.426 274.738 449.189 274.738 455.065C274.738 460.941 279.502 465.705 285.378 465.705Z"
        fill="#3188E5" stroke="black" stroke-width="0.032522"></path>
    <path
        d="M260.567 465.705C266.443 465.705 271.207 460.941 271.207 455.065C271.207 449.189 266.443 444.426 260.567 444.426C254.691 444.426 249.928 449.189 249.928 455.065C249.928 460.941 254.691 465.705 260.567 465.705Z"
        fill="#3188E5" stroke="black" stroke-width="0.032522"></path>
    <path
        d="M334.997 440.894C340.873 440.894 345.636 436.131 345.636 430.255C345.636 424.379 340.873 419.615 334.997 419.615C329.121 419.615 324.357 424.379 324.357 430.255C324.357 436.131 329.121 440.894 334.997 440.894Z"
        fill="#3188E5" stroke="black" stroke-width="0.032522"></path>
    <path
        d="M310.182 440.894C316.058 440.894 320.822 436.131 320.822 430.255C320.822 424.379 316.058 419.615 310.182 419.615C304.306 419.615 299.543 424.379 299.543 430.255C299.543 436.131 304.306 440.894 310.182 440.894Z"
        fill="#3188E5" stroke="black" stroke-width="0.032522"></path>
    <path
        d="M334.997 416.086C340.873 416.086 345.636 411.322 345.636 405.446C345.636 399.57 340.873 394.807 334.997 394.807C329.121 394.807 324.357 399.57 324.357 405.446C324.357 411.322 329.121 416.086 334.997 416.086Z"
        fill="#3188E5" stroke="black" stroke-width="0.032522"></path>
    <path
        d="M334.997 391.279C340.873 391.279 345.636 386.516 345.636 380.639C345.636 374.763 340.873 370 334.997 370C329.121 370 324.357 374.763 324.357 380.639C324.357 386.516 329.121 391.279 334.997 391.279Z"
        fill="#3188E5" stroke="black" stroke-width="0.032522"></path>
    <path
        d="M310.182 490.611C316.058 490.611 320.822 485.848 320.822 479.972C320.822 474.095 316.058 469.332 310.182 469.332C304.306 469.332 299.543 474.095 299.543 479.972C299.543 485.848 304.306 490.611 310.182 490.611Z"
        fill="#3188E5" stroke="black" stroke-width="0.032522"></path>
    <path
        d="M831.567 713.99C837.443 713.99 842.207 709.226 842.207 703.35C842.207 697.474 837.443 692.711 831.567 692.711C825.691 692.711 820.928 697.474 820.928 703.35C820.928 709.226 825.691 713.99 831.567 713.99Z"
        fill="#3188E5" stroke="black" stroke-width="0.032522"></path>
    <path
        d="M806.757 689.179C812.633 689.179 817.396 684.416 817.396 678.54C817.396 672.664 812.633 667.9 806.757 667.9C800.881 667.9 796.117 672.664 796.117 678.54C796.117 684.416 800.881 689.179 806.757 689.179Z"
        fill="#3188E5" stroke="black" stroke-width="0.032522"></path>
    <path
        d="M707.421 689.179C713.297 689.179 718.06 684.416 718.06 678.54C718.06 672.664 713.297 667.9 707.421 667.9C701.545 667.9 696.781 672.664 696.781 678.54C696.781 684.416 701.545 689.179 707.421 689.179Z"
        fill="#3188E5" stroke="black" stroke-width="0.032522"></path>
    <path
        d="M657.806 664.375C663.682 664.375 668.445 659.611 668.445 653.735C668.445 647.859 663.682 643.096 657.806 643.096C651.929 643.096 647.166 647.859 647.166 653.735C647.166 659.611 651.929 664.375 657.806 664.375Z"
        fill="#3188E5" stroke="black" stroke-width="0.032522"></path>
    <path
        d="M558.472 664.375C564.348 664.375 569.111 659.611 569.111 653.735C569.111 647.859 564.348 643.096 558.472 643.096C552.595 643.096 547.832 647.859 547.832 653.735C547.832 659.611 552.595 664.375 558.472 664.375Z"
        fill="#3188E5" stroke="black" stroke-width="0.032522"></path>
    <path
        d="M508.856 664.375C514.732 664.375 519.496 659.611 519.496 653.735C519.496 647.859 514.732 643.096 508.856 643.096C502.98 643.096 498.217 647.859 498.217 653.735C498.217 659.611 502.98 664.375 508.856 664.375Z"
        fill="#3188E5" stroke="black" stroke-width="0.032522"></path>
    <path
        d="M757.044 639.463C762.92 639.463 767.683 634.699 767.683 628.823C767.683 622.947 762.92 618.184 757.044 618.184C751.168 618.184 746.404 622.947 746.404 628.823C746.404 634.699 751.168 639.463 757.044 639.463Z"
        fill="#3188E5" stroke="black" stroke-width="0.032522"></path>
    <path
        d="M707.421 639.463C713.297 639.463 718.06 634.699 718.06 628.823C718.06 622.947 713.297 618.184 707.421 618.184C701.545 618.184 696.781 622.947 696.781 628.823C696.781 634.699 701.545 639.463 707.421 639.463Z"
        fill="#3188E5" stroke="black" stroke-width="0.032522"></path>
    <path
        d="M632.897 639.463C638.773 639.463 643.537 634.699 643.537 628.823C643.537 622.947 638.773 618.184 632.897 618.184C627.021 618.184 622.258 622.947 622.258 628.823C622.258 634.699 627.021 639.463 632.897 639.463Z"
        fill="#3188E5" stroke="black" stroke-width="0.032522"></path>
    <path
        d="M508.856 614.656C514.732 614.656 519.496 609.892 519.496 604.016C519.496 598.14 514.732 593.377 508.856 593.377C502.98 593.377 498.217 598.14 498.217 604.016C498.217 609.892 502.98 614.656 508.856 614.656Z"
        fill="#3188E5" stroke="black" stroke-width="0.032522"></path>
    <path
        d="M434.335 614.656C440.211 614.656 444.974 609.892 444.974 604.016C444.974 598.14 440.211 593.377 434.335 593.377C428.459 593.377 423.695 598.14 423.695 604.016C423.695 609.892 428.459 614.656 434.335 614.656Z"
        fill="#3188E5" stroke="black" stroke-width="0.032522"></path>
    <path
        d="M285.378 614.656C291.254 614.656 296.017 609.892 296.017 604.016C296.017 598.14 291.254 593.377 285.378 593.377C279.502 593.377 274.738 598.14 274.738 604.016C274.738 609.892 279.502 614.656 285.378 614.656Z"
        fill="#3188E5" stroke="black" stroke-width="0.032522"></path>
    <path
        d="M533.663 589.847C539.539 589.847 544.302 585.084 544.302 579.208C544.302 573.332 539.539 568.568 533.663 568.568C527.787 568.568 523.023 573.332 523.023 579.208C523.023 585.084 527.787 589.847 533.663 589.847Z"
        fill="#3188E5" stroke="black" stroke-width="0.032522"></path>
    <path
        d="M781.948 565.041C787.824 565.041 792.588 560.277 792.588 554.401C792.588 548.525 787.824 543.762 781.948 543.762C776.072 543.762 771.309 548.525 771.309 554.401C771.309 560.277 776.072 565.041 781.948 565.041Z"
        fill="#3188E5" stroke="black" stroke-width="0.032522"></path>
    <path
        d="M732.231 565.041C738.107 565.041 742.871 560.277 742.871 554.401C742.871 548.525 738.107 543.762 732.231 543.762C726.355 543.762 721.592 548.525 721.592 554.401C721.592 560.277 726.355 565.041 732.231 565.041Z"
        fill="#3188E5" stroke="black" stroke-width="0.032522"></path>
    <path
        d="M558.472 565.041C564.348 565.041 569.111 560.277 569.111 554.401C569.111 548.525 564.348 543.762 558.472 543.762C552.595 543.762 547.832 548.525 547.832 554.401C547.832 560.277 552.595 565.041 558.472 565.041Z"
        fill="#3188E5" stroke="black" stroke-width="0.032522"></path>
    <path
        d="M334.997 565.041C340.873 565.041 345.636 560.277 345.636 554.401C345.636 548.525 340.873 543.762 334.997 543.762C329.121 543.762 324.357 548.525 324.357 554.401C324.357 560.277 329.121 565.041 334.997 565.041Z"
        fill="#3188E5" stroke="black" stroke-width="0.032522"></path>
    <path
        d="M558.472 540.226C564.348 540.226 569.111 535.463 569.111 529.587C569.111 523.711 564.348 518.947 558.472 518.947C552.595 518.947 547.832 523.711 547.832 529.587C547.832 535.463 552.595 540.226 558.472 540.226Z"
        fill="#3188E5" stroke="black" stroke-width="0.032522"></path>
    <path
        d="M533.663 515.422C539.539 515.422 544.302 510.658 544.302 504.782C544.302 498.906 539.539 494.143 533.663 494.143C527.787 494.143 523.023 498.906 523.023 504.782C523.023 510.658 527.787 515.422 533.663 515.422Z"
        fill="#3188E5" stroke="black" stroke-width="0.032522"></path>
    <path
        d="M508.856 515.422C514.732 515.422 519.496 510.658 519.496 504.782C519.496 498.906 514.732 494.143 508.856 494.143C502.98 494.143 498.217 498.906 498.217 504.782C498.217 510.658 502.98 515.422 508.856 515.422Z"
        fill="#3188E5" stroke="black" stroke-width="0.032522"></path>
    <path
        d="M508.856 490.611C514.732 490.611 519.496 485.848 519.496 479.972C519.496 474.095 514.732 469.332 508.856 469.332C502.98 469.332 498.217 474.095 498.217 479.972C498.217 485.848 502.98 490.611 508.856 490.611Z"
        fill="#3188E5" stroke="black" stroke-width="0.032522"></path>
    <path
        d="M483.95 490.611C489.826 490.611 494.59 485.848 494.59 479.972C494.59 474.095 489.826 469.332 483.95 469.332C478.074 469.332 473.311 474.095 473.311 479.972C473.311 485.848 478.074 490.611 483.95 490.611Z"
        fill="#3188E5" stroke="black" stroke-width="0.032522"></path>
    <path
        d="M458.712 490.611C464.588 490.611 469.351 485.848 469.351 479.972C469.351 474.095 464.588 469.332 458.712 469.332C452.836 469.332 448.072 474.095 448.072 479.972C448.072 485.848 452.836 490.611 458.712 490.611Z"
        fill="#3188E5" stroke="black" stroke-width="0.032522"></path>
    <path
        d="M657.806 465.705C663.682 465.705 668.445 460.941 668.445 455.065C668.445 449.189 663.682 444.426 657.806 444.426C651.929 444.426 647.166 449.189 647.166 455.065C647.166 460.941 651.929 465.705 657.806 465.705Z"
        fill="#3188E5" stroke="black" stroke-width="0.032522"></path>
    <path
        d="M608.093 465.705C613.969 465.705 618.732 460.941 618.732 455.065C618.732 449.189 613.969 444.426 608.093 444.426C602.217 444.426 597.453 449.189 597.453 455.065C597.453 460.941 602.217 465.705 608.093 465.705Z"
        fill="#3188E5" stroke="black" stroke-width="0.032522"></path>
    <path
        d="M583.278 465.705C589.154 465.705 593.918 460.941 593.918 455.065C593.918 449.189 589.154 444.426 583.278 444.426C577.402 444.426 572.639 449.189 572.639 455.065C572.639 460.941 577.402 465.705 583.278 465.705Z"
        fill="#3188E5" stroke="black" stroke-width="0.032522"></path>
    <path
        d="M459.136 465.705C465.012 465.705 469.775 460.941 469.775 455.065C469.775 449.189 465.012 444.426 459.136 444.426C453.26 444.426 448.496 449.189 448.496 455.065C448.496 460.941 453.26 465.705 459.136 465.705Z"
        fill="#3188E5" stroke="black" stroke-width="0.032522"></path>
    <path
        d="M359.905 465.705C365.781 465.705 370.545 460.941 370.545 455.065C370.545 449.189 365.781 444.426 359.905 444.426C354.029 444.426 349.266 449.189 349.266 455.065C349.266 460.941 354.029 465.705 359.905 465.705Z"
        fill="#3188E5" stroke="black" stroke-width="0.032522"></path>
    <path
        d="M359.905 490.521C365.781 490.521 370.545 485.758 370.545 479.882C370.545 474.006 365.781 469.242 359.905 469.242C354.029 469.242 349.266 474.006 349.266 479.882C349.266 485.758 354.029 490.521 359.905 490.521Z"
        fill="#3188E5" stroke="black" stroke-width="0.032522"></path>
    <path
        d="M732.231 440.894C738.107 440.894 742.871 436.131 742.871 430.255C742.871 424.379 738.107 419.615 732.231 419.615C726.355 419.615 721.592 424.379 721.592 430.255C721.592 436.131 726.355 440.894 732.231 440.894Z"
        fill="#3188E5" stroke="black" stroke-width="0.032522"></path>
    <path
        d="M682.614 440.894C688.49 440.894 693.254 436.131 693.254 430.255C693.254 424.379 688.49 419.615 682.614 419.615C676.738 419.615 671.975 424.379 671.975 430.255C671.975 436.131 676.738 440.894 682.614 440.894Z"
        fill="#3188E5" stroke="black" stroke-width="0.032522"></path>
    <path
        d="M781.948 689.179C787.824 689.179 792.588 684.416 792.588 678.54C792.588 672.664 787.824 667.9 781.948 667.9C776.072 667.9 771.309 672.664 771.309 678.54C771.309 684.416 776.072 689.179 781.948 689.179Z"
        fill="#3188E5" stroke="black" stroke-width="0.032522"></path>
    <path
        d="M757.044 689.179C762.92 689.179 767.683 684.416 767.683 678.54C767.683 672.664 762.92 667.9 757.044 667.9C751.168 667.9 746.404 672.664 746.404 678.54C746.404 684.416 751.168 689.179 757.044 689.179Z"
        fill="#3188E5" stroke="black" stroke-width="0.032522"></path>
    <path
        d="M732.231 689.179C738.107 689.179 742.871 684.416 742.871 678.54C742.871 672.664 738.107 667.9 732.231 667.9C726.355 667.9 721.592 672.664 721.592 678.54C721.592 684.416 726.355 689.179 732.231 689.179Z"
        fill="#3188E5" stroke="black" stroke-width="0.032522"></path>
    <path
        d="M632.897 689.179C638.773 689.179 643.537 684.416 643.537 678.54C643.537 672.664 638.773 667.9 632.897 667.9C627.021 667.9 622.258 672.664 622.258 678.54C622.258 684.416 627.021 689.179 632.897 689.179Z"
        fill="#3188E5" stroke="black" stroke-width="0.032522"></path>
    <path
        d="M757.044 664.375C762.92 664.375 767.683 659.611 767.683 653.735C767.683 647.859 762.92 643.096 757.044 643.096C751.168 643.096 746.404 647.859 746.404 653.735C746.404 659.611 751.168 664.375 757.044 664.375Z"
        fill="#3188E5" stroke="black" stroke-width="0.032522"></path>
    <path
        d="M806.757 664.375C812.633 664.375 817.396 659.611 817.396 653.735C817.396 647.859 812.633 643.096 806.757 643.096C800.881 643.096 796.117 647.859 796.117 653.735C796.117 659.611 800.881 664.375 806.757 664.375Z"
        fill="#3188E5" stroke="black" stroke-width="0.032522"></path>
    <path
        d="M707.421 664.375C713.297 664.375 718.06 659.611 718.06 653.735C718.06 647.859 713.297 643.096 707.421 643.096C701.545 643.096 696.781 647.859 696.781 653.735C696.781 659.611 701.545 664.375 707.421 664.375Z"
        fill="#3188E5" stroke="black" stroke-width="0.032522"></path>
    <path
        d="M781.948 664.375C787.824 664.375 792.588 659.611 792.588 653.735C792.588 647.859 787.824 643.096 781.948 643.096C776.072 643.096 771.309 647.859 771.309 653.735C771.309 659.611 776.072 664.375 781.948 664.375Z"
        fill="#3188E5" stroke="black" stroke-width="0.032522"></path>
    <path
        d="M732.231 664.375C738.107 664.375 742.871 659.611 742.871 653.735C742.871 647.859 738.107 643.096 732.231 643.096C726.355 643.096 721.592 647.859 721.592 653.735C721.592 659.611 726.355 664.375 732.231 664.375Z"
        fill="#3188E5" stroke="black" stroke-width="0.032522"></path>
    <path
        d="M682.614 664.375C688.49 664.375 693.254 659.611 693.254 653.735C693.254 647.859 688.49 643.096 682.614 643.096C676.738 643.096 671.975 647.859 671.975 653.735C671.975 659.611 676.738 664.375 682.614 664.375Z"
        fill="#3188E5" stroke="black" stroke-width="0.032522"></path>
    <path
        d="M583.278 614.656C589.154 614.656 593.918 609.892 593.918 604.016C593.918 598.14 589.154 593.377 583.278 593.377C577.402 593.377 572.639 598.14 572.639 604.016C572.639 609.892 577.402 614.656 583.278 614.656Z"
        fill="#3188E5" stroke="black" stroke-width="0.032522"></path>
    <path
        d="M533.663 664.375C539.539 664.375 544.302 659.611 544.302 653.735C544.302 647.859 539.539 643.096 533.663 643.096C527.787 643.096 523.023 647.859 523.023 653.735C523.023 659.611 527.787 664.375 533.663 664.375Z"
        fill="#3188E5" stroke="black" stroke-width="0.032522"></path>
    <path
        d="M781.948 639.463C787.824 639.463 792.588 634.699 792.588 628.823C792.588 622.947 787.824 618.184 781.948 618.184C776.072 618.184 771.309 622.947 771.309 628.823C771.309 634.699 776.072 639.463 781.948 639.463Z"
        fill="#3188E5" stroke="black" stroke-width="0.032522"></path>
    <path
        d="M657.806 639.463C663.682 639.463 668.445 634.699 668.445 628.823C668.445 622.947 663.682 618.184 657.806 618.184C651.929 618.184 647.166 622.947 647.166 628.823C647.166 634.699 651.929 639.463 657.806 639.463Z"
        fill="#3188E5" stroke="black" stroke-width="0.032522"></path>
    <path
        d="M483.95 664.375C489.826 664.375 494.59 659.611 494.59 653.735C494.59 647.859 489.826 643.096 483.95 643.096C478.074 643.096 473.311 647.859 473.311 653.735C473.311 659.611 478.074 664.375 483.95 664.375Z"
        fill="#3188E5" stroke="black" stroke-width="0.032522"></path>
    <path
        d="M359.905 664.375C365.781 664.375 370.545 659.611 370.545 653.735C370.545 647.859 365.781 643.096 359.905 643.096C354.029 643.096 349.266 647.859 349.266 653.735C349.266 659.611 354.029 664.375 359.905 664.375Z"
        fill="#3188E5" stroke="black" stroke-width="0.032522"></path>
    <path
        d="M732.231 639.463C738.107 639.463 742.871 634.699 742.871 628.823C742.871 622.947 738.107 618.184 732.231 618.184C726.355 618.184 721.592 622.947 721.592 628.823C721.592 634.699 726.355 639.463 732.231 639.463Z"
        fill="#3188E5" stroke="black" stroke-width="0.032522"></path>
    <path
        d="M682.614 639.463C688.49 639.463 693.254 634.699 693.254 628.823C693.254 622.947 688.49 618.184 682.614 618.184C676.738 618.184 671.975 622.947 671.975 628.823C671.975 634.699 676.738 639.463 682.614 639.463Z"
        fill="#3188E5" stroke="black" stroke-width="0.032522"></path>
    <path
        d="M608.093 614.656C613.969 614.656 618.732 609.892 618.732 604.016C618.732 598.14 613.969 593.377 608.093 593.377C602.217 593.377 597.453 598.14 597.453 604.016C597.453 609.892 602.217 614.656 608.093 614.656Z"
        fill="#3188E5" stroke="black" stroke-width="0.032522"></path>
    <path
        d="M533.663 614.656C539.539 614.656 544.302 609.892 544.302 604.016C544.302 598.14 539.539 593.377 533.663 593.377C527.787 593.377 523.023 598.14 523.023 604.016C523.023 609.892 527.787 614.656 533.663 614.656Z"
        fill="#3188E5" stroke="black" stroke-width="0.032522"></path>
    <path
        d="M608.093 639.463C613.969 639.463 618.732 634.699 618.732 628.823C618.732 622.947 613.969 618.184 608.093 618.184C602.217 618.184 597.453 622.947 597.453 628.823C597.453 634.699 602.217 639.463 608.093 639.463Z"
        fill="#3188E5" stroke="black" stroke-width="0.032522"></path>
    <path
        d="M583.278 639.463C589.154 639.463 593.918 634.699 593.918 628.823C593.918 622.947 589.154 618.184 583.278 618.184C577.402 618.184 572.639 622.947 572.639 628.823C572.639 634.699 577.402 639.463 583.278 639.463Z"
        fill="#3188E5" stroke="black" stroke-width="0.032522"></path>
    <path
        d="M558.472 639.463C564.348 639.463 569.111 634.699 569.111 628.823C569.111 622.947 564.348 618.184 558.472 618.184C552.595 618.184 547.832 622.947 547.832 628.823C547.832 634.699 552.595 639.463 558.472 639.463Z"
        fill="#3188E5" stroke="black" stroke-width="0.032522"></path>
    <path
        d="M533.663 639.463C539.539 639.463 544.302 634.699 544.302 628.823C544.302 622.947 539.539 618.184 533.663 618.184C527.787 618.184 523.023 622.947 523.023 628.823C523.023 634.699 527.787 639.463 533.663 639.463Z"
        fill="#3188E5" stroke="black" stroke-width="0.032522"></path>
    <path
        d="M508.856 639.463C514.732 639.463 519.496 634.699 519.496 628.823C519.496 622.947 514.732 618.184 508.856 618.184C502.98 618.184 498.217 622.947 498.217 628.823C498.217 634.699 502.98 639.463 508.856 639.463Z"
        fill="#3188E5" stroke="black" stroke-width="0.032522"></path>
    <path
        d="M483.95 639.463C489.826 639.463 494.59 634.699 494.59 628.823C494.59 622.947 489.826 618.184 483.95 618.184C478.074 618.184 473.311 622.947 473.311 628.823C473.311 634.699 478.074 639.463 483.95 639.463Z"
        fill="#3188E5" stroke="black" stroke-width="0.032522"></path>
    <path
        d="M459.136 639.463C465.012 639.463 469.775 634.699 469.775 628.823C469.775 622.947 465.012 618.184 459.136 618.184C453.26 618.184 448.496 622.947 448.496 628.823C448.496 634.699 453.26 639.463 459.136 639.463Z"
        fill="#3188E5" stroke="black" stroke-width="0.032522"></path>
    <path
        d="M434.335 639.463C440.211 639.463 444.974 634.699 444.974 628.823C444.974 622.947 440.211 618.184 434.335 618.184C428.459 618.184 423.695 622.947 423.695 628.823C423.695 634.699 428.459 639.463 434.335 639.463Z"
        fill="#3188E5" stroke="black" stroke-width="0.032522"></path>
    <path
        d="M409.52 639.463C415.396 639.463 420.16 634.699 420.16 628.823C420.16 622.947 415.396 618.184 409.52 618.184C403.644 618.184 398.881 622.947 398.881 628.823C398.881 634.699 403.644 639.463 409.52 639.463Z"
        fill="#3188E5" stroke="black" stroke-width="0.032522"></path>
    <path
        d="M384.71 639.463C390.586 639.463 395.349 634.699 395.349 628.823C395.349 622.947 390.586 618.184 384.71 618.184C378.834 618.184 374.07 622.947 374.07 628.823C374.07 634.699 378.834 639.463 384.71 639.463Z"
        fill="#3188E5" stroke="black" stroke-width="0.032522"></path>
    <path
        d="M359.905 639.463C365.781 639.463 370.545 634.699 370.545 628.823C370.545 622.947 365.781 618.184 359.905 618.184C354.029 618.184 349.266 622.947 349.266 628.823C349.266 634.699 354.029 639.463 359.905 639.463Z"
        fill="#3188E5" stroke="black" stroke-width="0.032522"></path>
    <path
        d="M334.997 639.463C340.873 639.463 345.636 634.699 345.636 628.823C345.636 622.947 340.873 618.184 334.997 618.184C329.121 618.184 324.357 622.947 324.357 628.823C324.357 634.699 329.121 639.463 334.997 639.463Z"
        fill="#3188E5" stroke="black" stroke-width="0.032522"></path>
    <path
        d="M310.182 639.463C316.058 639.463 320.822 634.699 320.822 628.823C320.822 622.947 316.058 618.184 310.182 618.184C304.306 618.184 299.543 622.947 299.543 628.823C299.543 634.699 304.306 639.463 310.182 639.463Z"
        fill="#3188E5" stroke="black" stroke-width="0.032522"></path>
    <path
        d="M285.378 639.463C291.254 639.463 296.017 634.699 296.017 628.823C296.017 622.947 291.254 618.184 285.378 618.184C279.502 618.184 274.738 622.947 274.738 628.823C274.738 634.699 279.502 639.463 285.378 639.463Z"
        fill="#3188E5" stroke="black" stroke-width="0.032522"></path>
    <path
        d="M260.567 639.463C266.443 639.463 271.207 634.699 271.207 628.823C271.207 622.947 266.443 618.184 260.567 618.184C254.691 618.184 249.928 622.947 249.928 628.823C249.928 634.699 254.691 639.463 260.567 639.463Z"
        fill="#3188E5" stroke="black" stroke-width="0.032522"></path>
    <path
        d="M235.639 639.463C241.516 639.463 246.279 634.699 246.279 628.823C246.279 622.947 241.516 618.184 235.639 618.184C229.763 618.184 225 622.947 225 628.823C225 634.699 229.763 639.463 235.639 639.463Z"
        fill="#3188E5" stroke="black" stroke-width="0.032522"></path>
    <path
        d="M806.757 614.656C812.633 614.656 817.396 609.892 817.396 604.016C817.396 598.14 812.633 593.377 806.757 593.377C800.881 593.377 796.117 598.14 796.117 604.016C796.117 609.892 800.881 614.656 806.757 614.656Z"
        fill="#3188E5" stroke="black" stroke-width="0.032522"></path>
    <path
        d="M781.948 614.656C787.824 614.656 792.588 609.892 792.588 604.016C792.588 598.14 787.824 593.377 781.948 593.377C776.072 593.377 771.309 598.14 771.309 604.016C771.309 609.892 776.072 614.656 781.948 614.656Z"
        fill="#3188E5" stroke="black" stroke-width="0.032522"></path>
    <path
        d="M757.044 614.656C762.92 614.656 767.683 609.892 767.683 604.016C767.683 598.14 762.92 593.377 757.044 593.377C751.168 593.377 746.404 598.14 746.404 604.016C746.404 609.892 751.168 614.656 757.044 614.656Z"
        fill="#3188E5" stroke="black" stroke-width="0.032522"></path>
    <path
        d="M732.231 614.656C738.107 614.656 742.871 609.892 742.871 604.016C742.871 598.14 738.107 593.377 732.231 593.377C726.355 593.377 721.592 598.14 721.592 604.016C721.592 609.892 726.355 614.656 732.231 614.656Z"
        fill="#3188E5" stroke="black" stroke-width="0.032522"></path>
    <path
        d="M707.421 614.656C713.297 614.656 718.06 609.892 718.06 604.016C718.06 598.14 713.297 593.377 707.421 593.377C701.545 593.377 696.781 598.14 696.781 604.016C696.781 609.892 701.545 614.656 707.421 614.656Z"
        fill="#3188E5" stroke="black" stroke-width="0.032522"></path>
    <path
        d="M682.614 614.656C688.49 614.656 693.254 609.892 693.254 604.016C693.254 598.14 688.49 593.377 682.614 593.377C676.738 593.377 671.975 598.14 671.975 604.016C671.975 609.892 676.738 614.656 682.614 614.656Z"
        fill="#3188E5" stroke="black" stroke-width="0.032522"></path>
    <path
        d="M657.806 614.656C663.682 614.656 668.445 609.892 668.445 604.016C668.445 598.14 663.682 593.377 657.806 593.377C651.929 593.377 647.166 598.14 647.166 604.016C647.166 609.892 651.929 614.656 657.806 614.656Z"
        fill="#3188E5" stroke="black" stroke-width="0.032522"></path>
    <path
        d="M632.897 614.656C638.773 614.656 643.537 609.892 643.537 604.016C643.537 598.14 638.773 593.377 632.897 593.377C627.021 593.377 622.258 598.14 622.258 604.016C622.258 609.892 627.021 614.656 632.897 614.656Z"
        fill="#3188E5" stroke="black" stroke-width="0.032522"></path>
    <path
        d="M558.472 614.656C564.348 614.656 569.111 609.892 569.111 604.016C569.111 598.14 564.348 593.377 558.472 593.377C552.595 593.377 547.832 598.14 547.832 604.016C547.832 609.892 552.595 614.656 558.472 614.656Z"
        fill="#3188E5" stroke="black" stroke-width="0.032522"></path>
    <path
        d="M483.95 614.656C489.826 614.656 494.59 609.892 494.59 604.016C494.59 598.14 489.826 593.377 483.95 593.377C478.074 593.377 473.311 598.14 473.311 604.016C473.311 609.892 478.074 614.656 483.95 614.656Z"
        fill="#3188E5" stroke="black" stroke-width="0.032522"></path>
    <path
        d="M384.71 614.656C390.586 614.656 395.349 609.892 395.349 604.016C395.349 598.14 390.586 593.377 384.71 593.377C378.834 593.377 374.07 598.14 374.07 604.016C374.07 609.892 378.834 614.656 384.71 614.656Z"
        fill="#3188E5" stroke="black" stroke-width="0.032522"></path>
    <path
        d="M459.136 614.656C465.012 614.656 469.775 609.892 469.775 604.016C469.775 598.14 465.012 593.377 459.136 593.377C453.26 593.377 448.496 598.14 448.496 604.016C448.496 609.892 453.26 614.656 459.136 614.656Z"
        fill="#3188E5" stroke="black" stroke-width="0.032522"></path>
    <path
        d="M409.52 614.656C415.396 614.656 420.16 609.892 420.16 604.016C420.16 598.14 415.396 593.377 409.52 593.377C403.644 593.377 398.881 598.14 398.881 604.016C398.881 609.892 403.644 614.656 409.52 614.656Z"
        fill="#3188E5" stroke="black" stroke-width="0.032522"></path>
    <path
        d="M359.905 614.656C365.781 614.656 370.545 609.892 370.545 604.016C370.545 598.14 365.781 593.377 359.905 593.377C354.029 593.377 349.266 598.14 349.266 604.016C349.266 609.892 354.029 614.656 359.905 614.656Z"
        fill="#3188E5" stroke="black" stroke-width="0.032522"></path>
    <path
        d="M310.182 614.656C316.058 614.656 320.822 609.892 320.822 604.016C320.822 598.14 316.058 593.377 310.182 593.377C304.306 593.377 299.543 598.14 299.543 604.016C299.543 609.892 304.306 614.656 310.182 614.656Z"
        fill="#3188E5" stroke="black" stroke-width="0.032522"></path>
    <path
        d="M334.997 614.656C340.873 614.656 345.636 609.892 345.636 604.016C345.636 598.14 340.873 593.377 334.997 593.377C329.121 593.377 324.357 598.14 324.357 604.016C324.357 609.892 329.121 614.656 334.997 614.656Z"
        fill="#3188E5" stroke="black" stroke-width="0.032522"></path>
    <path
        d="M583.278 589.847C589.154 589.847 593.918 585.084 593.918 579.208C593.918 573.332 589.154 568.568 583.278 568.568C577.402 568.568 572.639 573.332 572.639 579.208C572.639 585.084 577.402 589.847 583.278 589.847Z"
        fill="#3188E5" stroke="black" stroke-width="0.032522"></path>
    <path
        d="M459.136 589.847C465.012 589.847 469.775 585.084 469.775 579.208C469.775 573.332 465.012 568.568 459.136 568.568C453.26 568.568 448.496 573.332 448.496 579.208C448.496 585.084 453.26 589.847 459.136 589.847Z"
        fill="#3188E5" stroke="black" stroke-width="0.032522"></path>
    <path
        d="M260.567 614.656C266.443 614.656 271.207 609.892 271.207 604.016C271.207 598.14 266.443 593.377 260.567 593.377C254.691 593.377 249.928 598.14 249.928 604.016C249.928 609.892 254.691 614.656 260.567 614.656Z"
        fill="#3188E5" stroke="black" stroke-width="0.032522"></path>
    <path
        d="M806.757 589.847C812.633 589.847 817.396 585.084 817.396 579.208C817.396 573.332 812.633 568.568 806.757 568.568C800.881 568.568 796.117 573.332 796.117 579.208C796.117 585.084 800.881 589.847 806.757 589.847Z"
        fill="#3188E5" stroke="black" stroke-width="0.032522"></path>
    <path
        d="M781.948 589.847C787.824 589.847 792.588 585.084 792.588 579.208C792.588 573.332 787.824 568.568 781.948 568.568C776.072 568.568 771.309 573.332 771.309 579.208C771.309 585.084 776.072 589.847 781.948 589.847Z"
        fill="#3188E5" stroke="black" stroke-width="0.032522"></path>
    <path
        d="M757.044 589.847C762.92 589.847 767.683 585.084 767.683 579.208C767.683 573.332 762.92 568.568 757.044 568.568C751.168 568.568 746.404 573.332 746.404 579.208C746.404 585.084 751.168 589.847 757.044 589.847Z"
        fill="#3188E5" stroke="black" stroke-width="0.032522"></path>
    <path
        d="M732.231 589.847C738.107 589.847 742.871 585.084 742.871 579.208C742.871 573.332 738.107 568.568 732.231 568.568C726.355 568.568 721.592 573.332 721.592 579.208C721.592 585.084 726.355 589.847 732.231 589.847Z"
        fill="#3188E5" stroke="black" stroke-width="0.032522"></path>
    <path
        d="M707.421 589.847C713.297 589.847 718.06 585.084 718.06 579.208C718.06 573.332 713.297 568.568 707.421 568.568C701.545 568.568 696.781 573.332 696.781 579.208C696.781 585.084 701.545 589.847 707.421 589.847Z"
        fill="#3188E5" stroke="black" stroke-width="0.032522"></path>
    <path
        d="M682.614 589.847C688.49 589.847 693.254 585.084 693.254 579.208C693.254 573.332 688.49 568.568 682.614 568.568C676.738 568.568 671.975 573.332 671.975 579.208C671.975 585.084 676.738 589.847 682.614 589.847Z"
        fill="#3188E5" stroke="black" stroke-width="0.032522"></path>
    <path
        d="M657.806 589.847C663.682 589.847 668.445 585.084 668.445 579.208C668.445 573.332 663.682 568.568 657.806 568.568C651.929 568.568 647.166 573.332 647.166 579.208C647.166 585.084 651.929 589.847 657.806 589.847Z"
        fill="#3188E5" stroke="black" stroke-width="0.032522"></path>
    <path
        d="M632.897 589.847C638.773 589.847 643.537 585.084 643.537 579.208C643.537 573.332 638.773 568.568 632.897 568.568C627.021 568.568 622.258 573.332 622.258 579.208C622.258 585.084 627.021 589.847 632.897 589.847Z"
        fill="#3188E5" stroke="black" stroke-width="0.032522"></path>
    <path
        d="M608.093 589.847C613.969 589.847 618.732 585.084 618.732 579.208C618.732 573.332 613.969 568.568 608.093 568.568C602.217 568.568 597.453 573.332 597.453 579.208C597.453 585.084 602.217 589.847 608.093 589.847Z"
        fill="#3188E5" stroke="black" stroke-width="0.032522"></path>
    <path
        d="M558.472 589.847C564.348 589.847 569.111 585.084 569.111 579.208C569.111 573.332 564.348 568.568 558.472 568.568C552.595 568.568 547.832 573.332 547.832 579.208C547.832 585.084 552.595 589.847 558.472 589.847Z"
        fill="#3188E5" stroke="black" stroke-width="0.032522"></path>
    <path
        d="M508.856 589.847C514.732 589.847 519.496 585.084 519.496 579.208C519.496 573.332 514.732 568.568 508.856 568.568C502.98 568.568 498.217 573.332 498.217 579.208C498.217 585.084 502.98 589.847 508.856 589.847Z"
        fill="#3188E5" stroke="black" stroke-width="0.032522"></path>
    <path
        d="M483.95 589.847C489.826 589.847 494.59 585.084 494.59 579.208C494.59 573.332 489.826 568.568 483.95 568.568C478.074 568.568 473.311 573.332 473.311 579.208C473.311 585.084 478.074 589.847 483.95 589.847Z"
        fill="#3188E5" stroke="black" stroke-width="0.032522"></path>
    <path
        d="M334.997 589.847C340.873 589.847 345.636 585.084 345.636 579.208C345.636 573.332 340.873 568.568 334.997 568.568C329.121 568.568 324.357 573.332 324.357 579.208C324.357 585.084 329.121 589.847 334.997 589.847Z"
        fill="#3188E5" stroke="black" stroke-width="0.032522"></path>
    <path
        d="M285.378 589.847C291.254 589.847 296.017 585.084 296.017 579.208C296.017 573.332 291.254 568.568 285.378 568.568C279.502 568.568 274.738 573.332 274.738 579.208C274.738 585.084 279.502 589.847 285.378 589.847Z"
        fill="#3188E5" stroke="black" stroke-width="0.032522"></path>
    <path
        d="M359.905 589.847C365.781 589.847 370.545 585.084 370.545 579.208C370.545 573.332 365.781 568.568 359.905 568.568C354.029 568.568 349.266 573.332 349.266 579.208C349.266 585.084 354.029 589.847 359.905 589.847Z"
        fill="#3188E5" stroke="black" stroke-width="0.032522"></path>
    <path
        d="M310.182 589.847C316.058 589.847 320.822 585.084 320.822 579.208C320.822 573.332 316.058 568.568 310.182 568.568C304.306 568.568 299.543 573.332 299.543 579.208C299.543 585.084 304.306 589.847 310.182 589.847Z"
        fill="#3188E5" stroke="black" stroke-width="0.032522"></path>
    <path
        d="M806.757 565.041C812.633 565.041 817.396 560.277 817.396 554.401C817.396 548.525 812.633 543.762 806.757 543.762C800.881 543.762 796.117 548.525 796.117 554.401C796.117 560.277 800.881 565.041 806.757 565.041Z"
        fill="#3188E5" stroke="black" stroke-width="0.032522"></path>
    <path
        d="M632.897 565.041C638.773 565.041 643.537 560.277 643.537 554.401C643.537 548.525 638.773 543.762 632.897 543.762C627.021 543.762 622.258 548.525 622.258 554.401C622.258 560.277 627.021 565.041 632.897 565.041Z"
        fill="#3188E5" stroke="black" stroke-width="0.032522"></path>
    <path
        d="M583.278 565.041C589.154 565.041 593.918 560.277 593.918 554.401C593.918 548.525 589.154 543.762 583.278 543.762C577.402 543.762 572.639 548.525 572.639 554.401C572.639 560.277 577.402 565.041 583.278 565.041Z"
        fill="#3188E5" stroke="black" stroke-width="0.032522"></path>
    <path
        d="M757.044 565.041C762.92 565.041 767.683 560.277 767.683 554.401C767.683 548.525 762.92 543.762 757.044 543.762C751.168 543.762 746.404 548.525 746.404 554.401C746.404 560.277 751.168 565.041 757.044 565.041Z"
        fill="#3188E5" stroke="black" stroke-width="0.032522"></path>
    <path
        d="M707.421 565.041C713.297 565.041 718.06 560.277 718.06 554.401C718.06 548.525 713.297 543.762 707.421 543.762C701.545 543.762 696.781 548.525 696.781 554.401C696.781 560.277 701.545 565.041 707.421 565.041Z"
        fill="#3188E5" stroke="black" stroke-width="0.032522"></path>
    <path
        d="M682.614 565.041C688.49 565.041 693.254 560.277 693.254 554.401C693.254 548.525 688.49 543.762 682.614 543.762C676.738 543.762 671.975 548.525 671.975 554.401C671.975 560.277 676.738 565.041 682.614 565.041Z"
        fill="#3188E5" stroke="black" stroke-width="0.032522"></path>
    <path
        d="M657.806 565.041C663.682 565.041 668.445 560.277 668.445 554.401C668.445 548.525 663.682 543.762 657.806 543.762C651.929 543.762 647.166 548.525 647.166 554.401C647.166 560.277 651.929 565.041 657.806 565.041Z"
        fill="#3188E5" stroke="black" stroke-width="0.032522"></path>
    <path
        d="M608.093 565.041C613.969 565.041 618.732 560.277 618.732 554.401C618.732 548.525 613.969 543.762 608.093 543.762C602.217 543.762 597.453 548.525 597.453 554.401C597.453 560.277 602.217 565.041 608.093 565.041Z"
        fill="#3188E5" stroke="black" stroke-width="0.032522"></path>
    <path
        d="M533.663 565.041C539.539 565.041 544.302 560.277 544.302 554.401C544.302 548.525 539.539 543.762 533.663 543.762C527.787 543.762 523.023 548.525 523.023 554.401C523.023 560.277 527.787 565.041 533.663 565.041Z"
        fill="#3188E5" stroke="black" stroke-width="0.032522"></path>
    <path
        d="M508.856 565.041C514.732 565.041 519.496 560.277 519.496 554.401C519.496 548.525 514.732 543.762 508.856 543.762C502.98 543.762 498.217 548.525 498.217 554.401C498.217 560.277 502.98 565.041 508.856 565.041Z"
        fill="#3188E5" stroke="black" stroke-width="0.032522"></path>
    <path
        d="M483.95 565.041C489.826 565.041 494.59 560.277 494.59 554.401C494.59 548.525 489.826 543.762 483.95 543.762C478.074 543.762 473.311 548.525 473.311 554.401C473.311 560.277 478.074 565.041 483.95 565.041Z"
        fill="#3188E5" stroke="black" stroke-width="0.032522"></path>
    <path
        d="M757.044 540.226C762.92 540.226 767.683 535.463 767.683 529.587C767.683 523.711 762.92 518.947 757.044 518.947C751.168 518.947 746.404 523.711 746.404 529.587C746.404 535.463 751.168 540.226 757.044 540.226Z"
        fill="#3188E5" stroke="black" stroke-width="0.032522"></path>
    <path
        d="M334.997 515.422C340.873 515.422 345.636 510.658 345.636 504.782C345.636 498.906 340.873 494.143 334.997 494.143C329.121 494.143 324.357 498.906 324.357 504.782C324.357 510.658 329.121 515.422 334.997 515.422Z"
        fill="#3188E5" stroke="black" stroke-width="0.032522"></path>
    <path
        d="M310.182 565.041C316.058 565.041 320.822 560.277 320.822 554.401C320.822 548.525 316.058 543.762 310.182 543.762C304.306 543.762 299.543 548.525 299.543 554.401C299.543 560.277 304.306 565.041 310.182 565.041Z"
        fill="#3188E5" stroke="black" stroke-width="0.032522"></path>
    <path
        d="M334.997 540.226C340.873 540.226 345.636 535.463 345.636 529.587C345.636 523.711 340.873 518.947 334.997 518.947C329.121 518.947 324.357 523.711 324.357 529.587C324.357 535.463 329.121 540.226 334.997 540.226Z"
        fill="#3188E5" stroke="black" stroke-width="0.032522"></path>
    <path
        d="M533.663 540.226C539.539 540.226 544.302 535.463 544.302 529.587C544.302 523.711 539.539 518.947 533.663 518.947C527.787 518.947 523.023 523.711 523.023 529.587C523.023 535.463 527.787 540.226 533.663 540.226Z"
        fill="#3188E5" stroke="black" stroke-width="0.032522"></path>
    <path
        d="M508.856 540.226C514.732 540.226 519.496 535.463 519.496 529.587C519.496 523.711 514.732 518.947 508.856 518.947C502.98 518.947 498.217 523.711 498.217 529.587C498.217 535.463 502.98 540.226 508.856 540.226Z"
        fill="#3188E5" stroke="black" stroke-width="0.032522"></path>
    <path
        d="M483.95 540.226C489.826 540.226 494.59 535.463 494.59 529.587C494.59 523.711 489.826 518.947 483.95 518.947C478.074 518.947 473.311 523.711 473.311 529.587C473.311 535.463 478.074 540.226 483.95 540.226Z"
        fill="#3188E5" stroke="black" stroke-width="0.032522"></path>
    <path
        d="M310.182 540.226C316.058 540.226 320.822 535.463 320.822 529.587C320.822 523.711 316.058 518.947 310.182 518.947C304.306 518.947 299.543 523.711 299.543 529.587C299.543 535.463 304.306 540.226 310.182 540.226Z"
        fill="#3188E5" stroke="black" stroke-width="0.032522"></path>
    <path
        d="M533.663 490.611C539.539 490.611 544.302 485.848 544.302 479.972C544.302 474.095 539.539 469.332 533.663 469.332C527.787 469.332 523.023 474.095 523.023 479.972C523.023 485.848 527.787 490.611 533.663 490.611Z"
        fill="#3188E5" stroke="black" stroke-width="0.032522"></path>
    <path
        d="M483.95 515.422C489.826 515.422 494.59 510.658 494.59 504.782C494.59 498.906 489.826 494.143 483.95 494.143C478.074 494.143 473.311 498.906 473.311 504.782C473.311 510.658 478.074 515.422 483.95 515.422Z"
        fill="#3188E5" stroke="black" stroke-width="0.032522"></path>
    <path
        d="M310.182 515.422C316.058 515.422 320.822 510.658 320.822 504.782C320.822 498.906 316.058 494.143 310.182 494.143C304.306 494.143 299.543 498.906 299.543 504.782C299.543 510.658 304.306 515.422 310.182 515.422Z"
        fill="#3188E5" stroke="black" stroke-width="0.032522"></path>
    <path
        d="M285.378 515.422C291.254 515.422 296.017 510.658 296.017 504.782C296.017 498.906 291.254 494.143 285.378 494.143C279.502 494.143 274.738 498.906 274.738 504.782C274.738 510.658 279.502 515.422 285.378 515.422Z"
        fill="#3188E5" stroke="black" stroke-width="0.032522"></path>
    <path
        d="M260.567 515.422C266.443 515.422 271.207 510.658 271.207 504.782C271.207 498.906 266.443 494.143 260.567 494.143C254.691 494.143 249.928 498.906 249.928 504.782C249.928 510.658 254.691 515.422 260.567 515.422Z"
        fill="#3188E5" stroke="black" stroke-width="0.032522"></path>
    <path
        d="M285.378 490.611C291.254 490.611 296.017 485.848 296.017 479.972C296.017 474.095 291.254 469.332 285.378 469.332C279.502 469.332 274.738 474.095 274.738 479.972C274.738 485.848 279.502 490.611 285.378 490.611Z"
        fill="#3188E5" stroke="black" stroke-width="0.032522"></path>
    <path
        d="M260.567 490.611C266.443 490.611 271.207 485.848 271.207 479.972C271.207 474.095 266.443 469.332 260.567 469.332C254.691 469.332 249.928 474.095 249.928 479.972C249.928 485.848 254.691 490.611 260.567 490.611Z"
        fill="#3188E5" stroke="black" stroke-width="0.032522"></path>
    <path
        d="M235.639 490.611C241.516 490.611 246.279 485.848 246.279 479.972C246.279 474.095 241.516 469.332 235.639 469.332C229.763 469.332 225 474.095 225 479.972C225 485.848 229.763 490.611 235.639 490.611Z"
        fill="#3188E5" stroke="black" stroke-width="0.032522"></path>
    <path
        d="M334.997 490.611C340.873 490.611 345.636 485.848 345.636 479.972C345.636 474.095 340.873 469.332 334.997 469.332C329.121 469.332 324.357 474.095 324.357 479.972C324.357 485.848 329.121 490.611 334.997 490.611Z"
        fill="#3188E5" stroke="black" stroke-width="0.032522"></path>
    <path
        d="M632.897 465.705C638.773 465.705 643.537 460.941 643.537 455.065C643.537 449.189 638.773 444.426 632.897 444.426C627.021 444.426 622.258 449.189 622.258 455.065C622.258 460.941 627.021 465.705 632.897 465.705Z"
        fill="#3188E5" stroke="black" stroke-width="0.032522"></path>
    <path
        d="M533.663 465.705C539.539 465.705 544.302 460.941 544.302 455.065C544.302 449.189 539.539 444.426 533.663 444.426C527.787 444.426 523.023 449.189 523.023 455.065C523.023 460.941 527.787 465.705 533.663 465.705Z"
        fill="#3188E5" stroke="black" stroke-width="0.032522"></path>
    <path
        d="M483.95 465.705C489.826 465.705 494.59 460.941 494.59 455.065C494.59 449.189 489.826 444.426 483.95 444.426C478.074 444.426 473.311 449.189 473.311 455.065C473.311 460.941 478.074 465.705 483.95 465.705Z"
        fill="#3188E5" stroke="black" stroke-width="0.032522"></path>
    <path
        d="M508.856 465.705C514.732 465.705 519.496 460.941 519.496 455.065C519.496 449.189 514.732 444.426 508.856 444.426C502.98 444.426 498.217 449.189 498.217 455.065C498.217 460.941 502.98 465.705 508.856 465.705Z"
        fill="#3188E5" stroke="black" stroke-width="0.032522"></path>
    <path
        d="M806.757 440.894C812.633 440.894 817.396 436.131 817.396 430.255C817.396 424.379 812.633 419.615 806.757 419.615C800.881 419.615 796.117 424.379 796.117 430.255C796.117 436.131 800.881 440.894 806.757 440.894Z"
        fill="#3188E5" stroke="black" stroke-width="0.032522"></path>
    <path
        d="M334.997 465.705C340.873 465.705 345.636 460.941 345.636 455.065C345.636 449.189 340.873 444.426 334.997 444.426C329.121 444.426 324.357 449.189 324.357 455.065C324.357 460.941 329.121 465.705 334.997 465.705Z"
        fill="#3188E5" stroke="black" stroke-width="0.032522"></path>
    <path
        d="M434.335 465.705C440.211 465.705 444.974 460.941 444.974 455.065C444.974 449.189 440.211 444.426 434.335 444.426C428.459 444.426 423.695 449.189 423.695 455.065C423.695 460.941 428.459 465.705 434.335 465.705Z"
        fill="#3188E5" stroke="black" stroke-width="0.032522"></path>
    <path
        d="M430.672 488.194C434.526 488.194 437.65 485.071 437.65 481.217C437.65 477.364 434.526 474.24 430.672 474.24C426.819 474.24 423.695 477.364 423.695 481.217C423.695 485.071 426.819 488.194 430.672 488.194Z"
        fill="#3188E5" stroke="black" stroke-width="0.0213271"></path>
    <path
        d="M430.672 588.263C434.526 588.263 437.65 585.139 437.65 581.286C437.65 577.432 434.526 574.309 430.672 574.309C426.819 574.309 423.695 577.432 423.695 581.286C423.695 585.139 426.819 588.263 430.672 588.263Z"
        fill="#3188E5" stroke="black" stroke-width="0.0213271"></path>
    <path
        d="M461.303 513.21C465.157 513.21 468.28 510.086 468.28 506.233C468.28 502.38 465.157 499.256 461.303 499.256C457.45 499.256 454.326 502.38 454.326 506.233C454.326 510.086 457.45 513.21 461.303 513.21Z"
        fill="#3188E5" stroke="black" stroke-width="0.0213271"></path>
    <path
        d="M357.065 513.21C360.918 513.21 364.042 510.086 364.042 506.233C364.042 502.38 360.918 499.256 357.065 499.256C353.212 499.256 350.088 502.38 350.088 506.233C350.088 510.086 353.212 513.21 357.065 513.21Z"
        fill="#3188E5" stroke="black" stroke-width="0.0213271"></path>
    <path
        d="M461.303 556.991C465.157 556.991 468.28 553.868 468.28 550.014C468.28 546.161 465.157 543.037 461.303 543.037C457.45 543.037 454.326 546.161 454.326 550.014C454.326 553.868 457.45 556.991 461.303 556.991Z"
        fill="#3188E5" stroke="black" stroke-width="0.0213271"></path>
    <path
        d="M357.065 556.991C360.918 556.991 364.042 553.868 364.042 550.014C364.042 546.161 360.918 543.037 357.065 543.037C353.212 543.037 350.088 546.161 350.088 550.014C350.088 553.868 353.212 556.991 357.065 556.991Z"
        fill="#3188E5" stroke="black" stroke-width="0.0213271"></path>
    <path
        d="M388.336 488.194C392.19 488.194 395.314 485.071 395.314 481.217C395.314 477.364 392.19 474.24 388.336 474.24C384.483 474.24 381.359 477.364 381.359 481.217C381.359 485.071 384.483 488.194 388.336 488.194Z"
        fill="#3188E5" stroke="black" stroke-width="0.0213271"></path>
    <path
        d="M388.336 588.263C392.19 588.263 395.314 585.139 395.314 581.286C395.314 577.432 392.19 574.309 388.336 574.309C384.483 574.309 381.359 577.432 381.359 581.286C381.359 585.139 384.483 588.263 388.336 588.263Z"
        fill="#3188E5" stroke="black" stroke-width="0.0213271"></path>
    <path
        d="M409.52 465.705C415.396 465.705 420.16 460.941 420.16 455.065C420.16 449.189 415.396 444.426 409.52 444.426C403.644 444.426 398.881 449.189 398.881 455.065C398.881 460.941 403.644 465.705 409.52 465.705Z"
        fill="#3188E5" stroke="black" stroke-width="0.032522"></path>
    <path
        d="M384.71 465.705C390.586 465.705 395.349 460.941 395.349 455.065C395.349 449.189 390.586 444.426 384.71 444.426C378.834 444.426 374.07 449.189 374.07 455.065C374.07 460.941 378.834 465.705 384.71 465.705Z"
        fill="#3188E5" stroke="black" stroke-width="0.032522"></path>
    <path
        d="M757.044 440.894C762.92 440.894 767.683 436.131 767.683 430.255C767.683 424.379 762.92 419.615 757.044 419.615C751.168 419.615 746.404 424.379 746.404 430.255C746.404 436.131 751.168 440.894 757.044 440.894Z"
        fill="#3188E5" stroke="black" stroke-width="0.032522"></path>
    <path
        d="M657.806 440.894C663.682 440.894 668.445 436.131 668.445 430.255C668.445 424.379 663.682 419.615 657.806 419.615C651.929 419.615 647.166 424.379 647.166 430.255C647.166 436.131 651.929 440.894 657.806 440.894Z"
        fill="#3188E5" stroke="black" stroke-width="0.032522"></path>
    <path
        d="M707.421 440.894C713.297 440.894 718.06 436.131 718.06 430.255C718.06 424.379 713.297 419.615 707.421 419.615C701.545 419.615 696.781 424.379 696.781 430.255C696.781 436.131 701.545 440.894 707.421 440.894Z"
        fill="#3188E5" stroke="black" stroke-width="0.032522"></path>
    <path
        d="M632.897 440.894C638.773 440.894 643.537 436.131 643.537 430.255C643.537 424.379 638.773 419.615 632.897 419.615C627.021 419.615 622.258 424.379 622.258 430.255C622.258 436.131 627.021 440.894 632.897 440.894Z"
        fill="#3188E5" stroke="black" stroke-width="0.032522"></path>
    <path
        d="M608.093 440.894C613.969 440.894 618.732 436.131 618.732 430.255C618.732 424.379 613.969 419.615 608.093 419.615C602.217 419.615 597.453 424.379 597.453 430.255C597.453 436.131 602.217 440.894 608.093 440.894Z"
        fill="#3188E5" stroke="black" stroke-width="0.032522"></path>
    <path
        d="M583.278 440.894C589.154 440.894 593.918 436.131 593.918 430.255C593.918 424.379 589.154 419.615 583.278 419.615C577.402 419.615 572.639 424.379 572.639 430.255C572.639 436.131 577.402 440.894 583.278 440.894Z"
        fill="#3188E5" stroke="black" stroke-width="0.032522"></path>
    <path
        d="M558.472 440.894C564.348 440.894 569.111 436.131 569.111 430.255C569.111 424.379 564.348 419.615 558.472 419.615C552.595 419.615 547.832 424.379 547.832 430.255C547.832 436.131 552.595 440.894 558.472 440.894Z"
        fill="#3188E5" stroke="black" stroke-width="0.032522"></path>
    <path
        d="M533.663 440.894C539.539 440.894 544.302 436.131 544.302 430.255C544.302 424.379 539.539 419.615 533.663 419.615C527.787 419.615 523.023 424.379 523.023 430.255C523.023 436.131 527.787 440.894 533.663 440.894Z"
        fill="#3188E5" stroke="black" stroke-width="0.032522"></path>
    <path
        d="M508.856 440.894C514.732 440.894 519.496 436.131 519.496 430.255C519.496 424.379 514.732 419.615 508.856 419.615C502.98 419.615 498.217 424.379 498.217 430.255C498.217 436.131 502.98 440.894 508.856 440.894Z"
        fill="#3188E5" stroke="black" stroke-width="0.032522"></path>
    <path
        d="M483.95 440.894C489.826 440.894 494.59 436.131 494.59 430.255C494.59 424.379 489.826 419.615 483.95 419.615C478.074 419.615 473.311 424.379 473.311 430.255C473.311 436.131 478.074 440.894 483.95 440.894Z"
        fill="#3188E5" stroke="black" stroke-width="0.032522"></path>
    <path
        d="M459.136 440.894C465.012 440.894 469.775 436.131 469.775 430.255C469.775 424.379 465.012 419.615 459.136 419.615C453.26 419.615 448.496 424.379 448.496 430.255C448.496 436.131 453.26 440.894 459.136 440.894Z"
        fill="#3188E5" stroke="black" stroke-width="0.032522"></path>
    <path
        d="M434.335 440.894C440.211 440.894 444.974 436.131 444.974 430.255C444.974 424.379 440.211 419.615 434.335 419.615C428.459 419.615 423.695 424.379 423.695 430.255C423.695 436.131 428.459 440.894 434.335 440.894Z"
        fill="#3188E5" stroke="black" stroke-width="0.032522"></path>
    <path
        d="M409.52 440.894C415.396 440.894 420.16 436.131 420.16 430.255C420.16 424.379 415.396 419.615 409.52 419.615C403.644 419.615 398.881 424.379 398.881 430.255C398.881 436.131 403.644 440.894 409.52 440.894Z"
        fill="#3188E5" stroke="black" stroke-width="0.032522"></path>
    <path
        d="M384.71 440.894C390.586 440.894 395.349 436.131 395.349 430.255C395.349 424.379 390.586 419.615 384.71 419.615C378.834 419.615 374.07 424.379 374.07 430.255C374.07 436.131 378.834 440.894 384.71 440.894Z"
        fill="#3188E5" stroke="black" stroke-width="0.032522"></path>
    <path
        d="M359.905 440.894C365.781 440.894 370.545 436.131 370.545 430.255C370.545 424.379 365.781 419.615 359.905 419.615C354.029 419.615 349.266 424.379 349.266 430.255C349.266 436.131 354.029 440.894 359.905 440.894Z"
        fill="#3188E5" stroke="black" stroke-width="0.032522"></path>
    <path
        d="M757.044 416.086C762.92 416.086 767.683 411.322 767.683 405.446C767.683 399.57 762.92 394.807 757.044 394.807C751.168 394.807 746.404 399.57 746.404 405.446C746.404 411.322 751.168 416.086 757.044 416.086Z"
        fill="#3188E5" stroke="black" stroke-width="0.032522"></path>
    <path
        d="M732.231 416.086C738.107 416.086 742.871 411.322 742.871 405.446C742.871 399.57 738.107 394.807 732.231 394.807C726.355 394.807 721.592 399.57 721.592 405.446C721.592 411.322 726.355 416.086 732.231 416.086Z"
        fill="#3188E5" stroke="black" stroke-width="0.032522"></path>
    <path
        d="M707.421 416.086C713.297 416.086 718.06 411.322 718.06 405.446C718.06 399.57 713.297 394.807 707.421 394.807C701.545 394.807 696.781 399.57 696.781 405.446C696.781 411.322 701.545 416.086 707.421 416.086Z"
        fill="#3188E5" stroke="black" stroke-width="0.032522"></path>
    <path
        d="M682.614 416.086C688.49 416.086 693.254 411.322 693.254 405.446C693.254 399.57 688.49 394.807 682.614 394.807C676.738 394.807 671.975 399.57 671.975 405.446C671.975 411.322 676.738 416.086 682.614 416.086Z"
        fill="#3188E5" stroke="black" stroke-width="0.032522"></path>
    <path
        d="M657.806 416.086C663.682 416.086 668.445 411.322 668.445 405.446C668.445 399.57 663.682 394.807 657.806 394.807C651.929 394.807 647.166 399.57 647.166 405.446C647.166 411.322 651.929 416.086 657.806 416.086Z"
        fill="#3188E5" stroke="black" stroke-width="0.032522"></path>
    <path
        d="M632.897 416.086C638.773 416.086 643.537 411.322 643.537 405.446C643.537 399.57 638.773 394.807 632.897 394.807C627.021 394.807 622.258 399.57 622.258 405.446C622.258 411.322 627.021 416.086 632.897 416.086Z"
        fill="#3188E5" stroke="black" stroke-width="0.032522"></path>
    <path
        d="M608.093 416.086C613.969 416.086 618.732 411.322 618.732 405.446C618.732 399.57 613.969 394.807 608.093 394.807C602.217 394.807 597.453 399.57 597.453 405.446C597.453 411.322 602.217 416.086 608.093 416.086Z"
        fill="#3188E5" stroke="black" stroke-width="0.032522"></path>
    <path
        d="M583.278 416.086C589.154 416.086 593.918 411.322 593.918 405.446C593.918 399.57 589.154 394.807 583.278 394.807C577.402 394.807 572.639 399.57 572.639 405.446C572.639 411.322 577.402 416.086 583.278 416.086Z"
        fill="#3188E5" stroke="black" stroke-width="0.032522"></path>
    <path
        d="M558.472 416.086C564.348 416.086 569.111 411.322 569.111 405.446C569.111 399.57 564.348 394.807 558.472 394.807C552.595 394.807 547.832 399.57 547.832 405.446C547.832 411.322 552.595 416.086 558.472 416.086Z"
        fill="#3188E5" stroke="black" stroke-width="0.032522"></path>
    <path
        d="M508.856 416.086C514.732 416.086 519.496 411.322 519.496 405.446C519.496 399.57 514.732 394.807 508.856 394.807C502.98 394.807 498.217 399.57 498.217 405.446C498.217 411.322 502.98 416.086 508.856 416.086Z"
        fill="#3188E5" stroke="black" stroke-width="0.032522"></path>
    <path
        d="M483.95 416.086C489.826 416.086 494.59 411.322 494.59 405.446C494.59 399.57 489.826 394.807 483.95 394.807C478.074 394.807 473.311 399.57 473.311 405.446C473.311 411.322 478.074 416.086 483.95 416.086Z"
        fill="#3188E5" stroke="black" stroke-width="0.032522"></path>
    <path
        d="M459.136 416.086C465.012 416.086 469.775 411.322 469.775 405.446C469.775 399.57 465.012 394.807 459.136 394.807C453.26 394.807 448.496 399.57 448.496 405.446C448.496 411.322 453.26 416.086 459.136 416.086Z"
        fill="#3188E5" stroke="black" stroke-width="0.032522"></path>
    <path
        d="M434.335 416.086C440.211 416.086 444.974 411.322 444.974 405.446C444.974 399.57 440.211 394.807 434.335 394.807C428.459 394.807 423.695 399.57 423.695 405.446C423.695 411.322 428.459 416.086 434.335 416.086Z"
        fill="#3188E5" stroke="black" stroke-width="0.032522"></path>
    <path
        d="M409.52 416.086C415.396 416.086 420.16 411.322 420.16 405.446C420.16 399.57 415.396 394.807 409.52 394.807C403.644 394.807 398.881 399.57 398.881 405.446C398.881 411.322 403.644 416.086 409.52 416.086Z"
        fill="#3188E5" stroke="black" stroke-width="0.032522"></path>
    <path
        d="M384.71 416.086C390.586 416.086 395.349 411.322 395.349 405.446C395.349 399.57 390.586 394.807 384.71 394.807C378.834 394.807 374.07 399.57 374.07 405.446C374.07 411.322 378.834 416.086 384.71 416.086Z"
        fill="#3188E5" stroke="black" stroke-width="0.032522"></path>
    <path
        d="M359.905 416.086C365.781 416.086 370.545 411.322 370.545 405.446C370.545 399.57 365.781 394.807 359.905 394.807C354.029 394.807 349.266 399.57 349.266 405.446C349.266 411.322 354.029 416.086 359.905 416.086Z"
        fill="#3188E5" stroke="black" stroke-width="0.032522"></path>
    <path
        d="M359.905 391.279C365.781 391.279 370.545 386.516 370.545 380.639C370.545 374.763 365.781 370 359.905 370C354.029 370 349.266 374.763 349.266 380.639C349.266 386.516 354.029 391.279 359.905 391.279Z"
        fill="#3188E5" stroke="black" stroke-width="0.032522"></path>
    <path
        d="M352.752 524.328C381.248 524.328 404.348 501.228 404.348 472.732H414.667C414.667 501.228 437.767 524.328 466.263 524.328V534.647C437.767 534.647 414.667 557.748 414.667 586.243H404.348C404.348 557.748 381.248 534.647 352.752 534.647V524.328Z"
        fill="#FF0048"></path>
    <path
        d="M373.022 485.706C393.172 505.856 425.84 505.856 445.99 485.706L453.286 493.003C433.137 513.153 433.137 545.821 453.286 565.971L445.99 573.267C425.84 553.118 393.171 553.118 373.022 573.267L365.725 565.971C385.875 545.821 385.875 513.153 365.725 493.003L373.022 485.706Z"
        fill="#FF0048"></path>
</svg>